<ttFont>
    <TTGlyph name=".notdef" xMin="130" yMin="-260" xMax="626" yMax="970">
      <contour>
        <pt x="130" y="970" on="1"/>
        <pt x="626" y="970" on="1"/>
        <pt x="626" y="-260" on="1"/>
        <pt x="130" y="-260" on="1"/>
      </contour>
      <contour>
        <pt x="240" y="-199" on="1"/>
        <pt x="515" y="-199" on="1"/>
        <pt x="515" y="911" on="1"/>
        <pt x="240" y="911" on="1"/>
      </contour>
    </TTGlyph>
    <TTGlyph name="A" xMin="-108" yMin="0" xMax="690" yMax="780">
      <contour>
        <pt x="551" y="166" on="1"/>
        <pt x="539" y="113" on="0"/>
        <pt x="539" y="89" on="1"/>
        <pt x="539" y="60" on="0"/>
        <pt x="577" y="40" on="0"/>
        <pt x="632" y="40" on="1"/>
        <pt x="622" y="0" on="1"/>
        <pt x="326" y="0" on="1"/>
        <pt x="336" y="40" on="1"/>
        <pt x="365" y="40" on="0"/>
        <pt x="403" y="49" on="0"/>
        <pt x="428" y="76" on="0"/>
        <pt x="446" y="126" on="0"/>
        <pt x="455" y="167" on="1"/>
        <pt x="482" y="290" on="1"/>
        <pt x="267" y="290" on="1"/>
        <pt x="204" y="224" on="1"/>
        <pt x="163" y="181" on="0"/>
        <pt x="116" y="128" on="0"/>
        <pt x="92" y="96" on="0"/>
        <pt x="86" y="80" on="0"/>
        <pt x="86" y="74" on="1"/>
        <pt x="86" y="55" on="0"/>
        <pt x="119" y="40" on="0"/>
        <pt x="161" y="40" on="1"/>
        <pt x="151" y="0" on="1"/>
        <pt x="-108" y="0" on="1"/>
        <pt x="-98" y="40" on="1"/>
        <pt x="-74" y="40" on="0"/>
        <pt x="-27" y="59" on="0"/>
        <pt x="30" y="103" on="0"/>
        <pt x="99" y="176" on="0"/>
        <pt x="145" y="231" on="1"/>
        <pt x="606" y="780" on="1"/>
        <pt x="690" y="780" on="1"/>
      </contour>
      <contour>
        <pt x="491" y="340" on="1"/>
        <pt x="573" y="650" on="1"/>
        <pt x="569" y="650" on="1"/>
        <pt x="310" y="340" on="1"/>
      </contour>
    </TTGlyph>
    <TTGlyph name="A.ss01" xMin="-75" yMin="0" xMax="656" yMax="780">
      <contour>
        <pt x="547" y="166" on="1"/>
        <pt x="547" y="142" on="0"/>
        <pt x="549" y="101" on="0"/>
        <pt x="552" y="89" on="1"/>
        <pt x="559" y="59" on="0"/>
        <pt x="604" y="40" on="0"/>
        <pt x="656" y="40" on="1"/>
        <pt x="654" y="0" on="1"/>
        <pt x="358" y="0" on="1"/>
        <pt x="360" y="40" on="1"/>
        <pt x="389" y="40" on="0"/>
        <pt x="425" y="49" on="0"/>
        <pt x="444" y="76" on="0"/>
        <pt x="451" y="126" on="0"/>
        <pt x="451" y="167" on="1"/>
        <pt x="451" y="290" on="1"/>
        <pt x="228" y="290" on="1"/>
        <pt x="184" y="224" on="1"/>
        <pt x="155" y="180" on="0"/>
        <pt x="122" y="127" on="0"/>
        <pt x="106" y="96" on="0"/>
        <pt x="102" y="82" on="0"/>
        <pt x="102" y="78" on="1"/>
        <pt x="102" y="56" on="0"/>
        <pt x="146" y="40" on="0"/>
        <pt x="185" y="40" on="1"/>
        <pt x="183" y="0" on="1"/>
        <pt x="-75" y="0" on="1"/>
        <pt x="-73" y="40" on="1"/>
        <pt x="-49" y="40" on="0"/>
        <pt x="-7" y="59" on="0"/>
        <pt x="39" y="103" on="0"/>
        <pt x="92" y="176" on="0"/>
        <pt x="126" y="231" on="1"/>
        <pt x="466" y="780" on="1"/>
        <pt x="550" y="780" on="1"/>
      </contour>
      <contour>
        <pt x="449" y="340" on="1"/>
        <pt x="462" y="673" on="1"/>
        <pt x="458" y="673" on="1"/>
        <pt x="258" y="340" on="1"/>
      </contour>
    </TTGlyph>
    <TTGlyph name="AE" xMin="-85" yMin="0" xMax="1037" yMax="770">
      <contour>
        <pt x="349" y="0" on="1"/>
        <pt x="359" y="40" on="1"/>
        <pt x="388" y="40" on="0"/>
        <pt x="426" y="49" on="0"/>
        <pt x="451" y="76" on="0"/>
        <pt x="469" y="126" on="0"/>
        <pt x="478" y="167" on="1"/>
        <pt x="505" y="290" on="1"/>
        <pt x="290" y="290" on="1"/>
        <pt x="227" y="224" on="1"/>
        <pt x="186" y="181" on="0"/>
        <pt x="139" y="128" on="0"/>
        <pt x="115" y="96" on="0"/>
        <pt x="109" y="80" on="0"/>
        <pt x="109" y="74" on="1"/>
        <pt x="109" y="55" on="0"/>
        <pt x="142" y="40" on="0"/>
        <pt x="184" y="40" on="1"/>
        <pt x="174" y="0" on="1"/>
        <pt x="-85" y="0" on="1"/>
        <pt x="-75" y="40" on="1"/>
        <pt x="-51" y="40" on="0"/>
        <pt x="-4" y="59" on="0"/>
        <pt x="52" y="103" on="0"/>
        <pt x="122" y="176" on="0"/>
        <pt x="168" y="231" on="1"/>
        <pt x="542" y="677" on="1"/>
        <pt x="558" y="696" on="0"/>
        <pt x="558" y="706" on="1"/>
        <pt x="558" y="719" on="0"/>
        <pt x="508" y="730" on="0"/>
        <pt x="450" y="730" on="1"/>
        <pt x="461" y="770" on="1"/>
        <pt x="1037" y="770" on="1"/>
        <pt x="1037" y="568" on="1"/>
        <pt x="999" y="568" on="1"/>
        <pt x="986" y="616" on="0"/>
        <pt x="954" y="677" on="0"/>
        <pt x="913" y="712" on="0"/>
        <pt x="862" y="726" on="0"/>
        <pt x="831" y="726" on="1"/>
        <pt x="701" y="726" on="1"/>
        <pt x="633" y="429" on="1"/>
        <pt x="686" y="429" on="1"/>
        <pt x="713" y="429" on="0"/>
        <pt x="751" y="439" on="0"/>
        <pt x="782" y="464" on="0"/>
        <pt x="809" y="508" on="0"/>
        <pt x="825" y="543" on="1"/>
        <pt x="862" y="543" on="1"/>
        <pt x="802" y="247" on="1"/>
        <pt x="762" y="247" on="1"/>
        <pt x="765" y="277" on="0"/>
        <pt x="765" y="299" on="1"/>
        <pt x="765" y="344" on="0"/>
        <pt x="731" y="385" on="0"/>
        <pt x="685" y="385" on="1"/>
        <pt x="623" y="385" on="1"/>
        <pt x="574" y="166" on="1"/>
        <pt x="562" y="113" on="0"/>
        <pt x="562" y="89" on="1"/>
        <pt x="562" y="77" on="0"/>
        <pt x="574" y="60" on="0"/>
        <pt x="603" y="48" on="0"/>
        <pt x="651" y="43" on="0"/>
        <pt x="686" y="43" on="1"/>
        <pt x="743" y="43" on="0"/>
        <pt x="828" y="61" on="0"/>
        <pt x="891" y="100" on="0"/>
        <pt x="938" y="164" on="0"/>
        <pt x="959" y="211" on="1"/>
        <pt x="1006" y="211" on="1"/>
        <pt x="928" y="0" on="1"/>
      </contour>
      <contour>
        <pt x="514" y="340" on="1"/>
        <pt x="596" y="650" on="1"/>
        <pt x="592" y="650" on="1"/>
        <pt x="333" y="340" on="1"/>
      </contour>
    </TTGlyph>
    <TTGlyph name="AEacute" xMin="-85" yMin="0" xMax="1037" yMax="960">
      <contour>
        <pt x="349" y="0" on="1"/>
        <pt x="359" y="40" on="1"/>
        <pt x="388" y="40" on="0"/>
        <pt x="426" y="49" on="0"/>
        <pt x="451" y="76" on="0"/>
        <pt x="469" y="126" on="0"/>
        <pt x="478" y="167" on="1"/>
        <pt x="505" y="290" on="1"/>
        <pt x="290" y="290" on="1"/>
        <pt x="227" y="224" on="1"/>
        <pt x="186" y="181" on="0"/>
        <pt x="139" y="128" on="0"/>
        <pt x="115" y="96" on="0"/>
        <pt x="109" y="80" on="0"/>
        <pt x="109" y="74" on="1"/>
        <pt x="109" y="55" on="0"/>
        <pt x="142" y="40" on="0"/>
        <pt x="184" y="40" on="1"/>
        <pt x="174" y="0" on="1"/>
        <pt x="-85" y="0" on="1"/>
        <pt x="-75" y="40" on="1"/>
        <pt x="-51" y="40" on="0"/>
        <pt x="-4" y="59" on="0"/>
        <pt x="52" y="103" on="0"/>
        <pt x="122" y="176" on="0"/>
        <pt x="168" y="231" on="1"/>
        <pt x="542" y="677" on="1"/>
        <pt x="558" y="696" on="0"/>
        <pt x="558" y="706" on="1"/>
        <pt x="558" y="719" on="0"/>
        <pt x="508" y="730" on="0"/>
        <pt x="450" y="730" on="1"/>
        <pt x="461" y="770" on="1"/>
        <pt x="1037" y="770" on="1"/>
        <pt x="1037" y="568" on="1"/>
        <pt x="999" y="568" on="1"/>
        <pt x="986" y="616" on="0"/>
        <pt x="954" y="677" on="0"/>
        <pt x="913" y="712" on="0"/>
        <pt x="862" y="726" on="0"/>
        <pt x="831" y="726" on="1"/>
        <pt x="701" y="726" on="1"/>
        <pt x="633" y="429" on="1"/>
        <pt x="686" y="429" on="1"/>
        <pt x="713" y="429" on="0"/>
        <pt x="751" y="439" on="0"/>
        <pt x="782" y="464" on="0"/>
        <pt x="809" y="508" on="0"/>
        <pt x="825" y="543" on="1"/>
        <pt x="862" y="543" on="1"/>
        <pt x="802" y="247" on="1"/>
        <pt x="762" y="247" on="1"/>
        <pt x="765" y="277" on="0"/>
        <pt x="765" y="299" on="1"/>
        <pt x="765" y="344" on="0"/>
        <pt x="731" y="385" on="0"/>
        <pt x="685" y="385" on="1"/>
        <pt x="623" y="385" on="1"/>
        <pt x="574" y="166" on="1"/>
        <pt x="562" y="113" on="0"/>
        <pt x="562" y="89" on="1"/>
        <pt x="562" y="77" on="0"/>
        <pt x="574" y="60" on="0"/>
        <pt x="603" y="48" on="0"/>
        <pt x="651" y="43" on="0"/>
        <pt x="686" y="43" on="1"/>
        <pt x="743" y="43" on="0"/>
        <pt x="828" y="61" on="0"/>
        <pt x="891" y="100" on="0"/>
        <pt x="938" y="164" on="0"/>
        <pt x="959" y="211" on="1"/>
        <pt x="1006" y="211" on="1"/>
        <pt x="928" y="0" on="1"/>
      </contour>
      <contour>
        <pt x="514" y="340" on="1"/>
        <pt x="596" y="650" on="1"/>
        <pt x="592" y="650" on="1"/>
        <pt x="333" y="340" on="1"/>
      </contour>
      <contour>
        <pt x="644" y="850" on="1"/>
        <pt x="794" y="927" on="1"/>
        <pt x="826" y="944" on="0"/>
        <pt x="870" y="960" on="0"/>
        <pt x="890" y="960" on="1"/>
        <pt x="920" y="960" on="0"/>
        <pt x="920" y="935" on="1"/>
        <pt x="920" y="915" on="0"/>
        <pt x="874" y="887" on="0"/>
        <pt x="831" y="878" on="1"/>
        <pt x="704" y="850" on="1"/>
      </contour>
    </TTGlyph>
    <TTGlyph name="Aacute" xMin="-108" yMin="0" xMax="901" yMax="960">
      <contour>
        <pt x="551" y="166" on="1"/>
        <pt x="539" y="113" on="0"/>
        <pt x="539" y="89" on="1"/>
        <pt x="539" y="60" on="0"/>
        <pt x="577" y="40" on="0"/>
        <pt x="632" y="40" on="1"/>
        <pt x="622" y="0" on="1"/>
        <pt x="326" y="0" on="1"/>
        <pt x="336" y="40" on="1"/>
        <pt x="365" y="40" on="0"/>
        <pt x="403" y="49" on="0"/>
        <pt x="428" y="76" on="0"/>
        <pt x="446" y="126" on="0"/>
        <pt x="455" y="167" on="1"/>
        <pt x="482" y="290" on="1"/>
        <pt x="267" y="290" on="1"/>
        <pt x="204" y="224" on="1"/>
        <pt x="163" y="181" on="0"/>
        <pt x="116" y="128" on="0"/>
        <pt x="92" y="96" on="0"/>
        <pt x="86" y="80" on="0"/>
        <pt x="86" y="74" on="1"/>
        <pt x="86" y="55" on="0"/>
        <pt x="119" y="40" on="0"/>
        <pt x="161" y="40" on="1"/>
        <pt x="151" y="0" on="1"/>
        <pt x="-108" y="0" on="1"/>
        <pt x="-98" y="40" on="1"/>
        <pt x="-74" y="40" on="0"/>
        <pt x="-27" y="59" on="0"/>
        <pt x="29" y="103" on="0"/>
        <pt x="99" y="176" on="0"/>
        <pt x="145" y="231" on="1"/>
        <pt x="606" y="780" on="1"/>
        <pt x="690" y="780" on="1"/>
      </contour>
      <contour>
        <pt x="491" y="340" on="1"/>
        <pt x="573" y="650" on="1"/>
        <pt x="569" y="650" on="1"/>
        <pt x="310" y="340" on="1"/>
      </contour>
      <contour>
        <pt x="625" y="850" on="1"/>
        <pt x="775" y="927" on="1"/>
        <pt x="807" y="944" on="0"/>
        <pt x="851" y="960" on="0"/>
        <pt x="871" y="960" on="1"/>
        <pt x="901" y="960" on="0"/>
        <pt x="901" y="935" on="1"/>
        <pt x="901" y="915" on="0"/>
        <pt x="855" y="887" on="0"/>
        <pt x="812" y="878" on="1"/>
        <pt x="685" y="850" on="1"/>
      </contour>
    </TTGlyph>
    <TTGlyph name="Abreve" xMin="-108" yMin="0" xMax="845" yMax="960">
      <contour>
        <pt x="551" y="166" on="1"/>
        <pt x="539" y="113" on="0"/>
        <pt x="539" y="89" on="1"/>
        <pt x="539" y="60" on="0"/>
        <pt x="577" y="40" on="0"/>
        <pt x="632" y="40" on="1"/>
        <pt x="622" y="0" on="1"/>
        <pt x="326" y="0" on="1"/>
        <pt x="336" y="40" on="1"/>
        <pt x="365" y="40" on="0"/>
        <pt x="403" y="49" on="0"/>
        <pt x="428" y="76" on="0"/>
        <pt x="446" y="126" on="0"/>
        <pt x="455" y="167" on="1"/>
        <pt x="482" y="290" on="1"/>
        <pt x="267" y="290" on="1"/>
        <pt x="204" y="224" on="1"/>
        <pt x="163" y="181" on="0"/>
        <pt x="116" y="128" on="0"/>
        <pt x="92" y="96" on="0"/>
        <pt x="86" y="80" on="0"/>
        <pt x="86" y="74" on="1"/>
        <pt x="86" y="55" on="0"/>
        <pt x="119" y="40" on="0"/>
        <pt x="161" y="40" on="1"/>
        <pt x="151" y="0" on="1"/>
        <pt x="-108" y="0" on="1"/>
        <pt x="-98" y="40" on="1"/>
        <pt x="-74" y="40" on="0"/>
        <pt x="-27" y="59" on="0"/>
        <pt x="29" y="103" on="0"/>
        <pt x="99" y="176" on="0"/>
        <pt x="145" y="231" on="1"/>
        <pt x="606" y="780" on="1"/>
        <pt x="690" y="780" on="1"/>
      </contour>
      <contour>
        <pt x="491" y="340" on="1"/>
        <pt x="573" y="650" on="1"/>
        <pt x="569" y="650" on="1"/>
        <pt x="310" y="340" on="1"/>
      </contour>
      <contour>
        <pt x="845" y="960" on="1"/>
        <pt x="836" y="935" on="0"/>
        <pt x="802" y="893" on="0"/>
        <pt x="757" y="862" on="0"/>
        <pt x="704" y="845" on="0"/>
        <pt x="676" y="845" on="1"/>
        <pt x="625" y="845" on="0"/>
        <pt x="566" y="895" on="0"/>
        <pt x="566" y="935" on="1"/>
        <pt x="566" y="946" on="0"/>
        <pt x="569" y="960" on="1"/>
        <pt x="605" y="960" on="1"/>
        <pt x="607" y="939" on="0"/>
        <pt x="656" y="914" on="0"/>
        <pt x="694" y="914" on="1"/>
        <pt x="732" y="914" on="0"/>
        <pt x="794" y="939" on="0"/>
        <pt x="808" y="960" on="1"/>
      </contour>
    </TTGlyph>
    <TTGlyph name="Acircumflex" xMin="-108" yMin="0" xMax="837" yMax="960">
      <contour>
        <pt x="551" y="166" on="1"/>
        <pt x="539" y="113" on="0"/>
        <pt x="539" y="89" on="1"/>
        <pt x="539" y="60" on="0"/>
        <pt x="577" y="40" on="0"/>
        <pt x="632" y="40" on="1"/>
        <pt x="622" y="0" on="1"/>
        <pt x="326" y="0" on="1"/>
        <pt x="336" y="40" on="1"/>
        <pt x="365" y="40" on="0"/>
        <pt x="403" y="49" on="0"/>
        <pt x="428" y="76" on="0"/>
        <pt x="446" y="126" on="0"/>
        <pt x="455" y="167" on="1"/>
        <pt x="482" y="290" on="1"/>
        <pt x="267" y="290" on="1"/>
        <pt x="204" y="224" on="1"/>
        <pt x="163" y="181" on="0"/>
        <pt x="116" y="128" on="0"/>
        <pt x="92" y="96" on="0"/>
        <pt x="86" y="80" on="0"/>
        <pt x="86" y="74" on="1"/>
        <pt x="86" y="55" on="0"/>
        <pt x="119" y="40" on="0"/>
        <pt x="161" y="40" on="1"/>
        <pt x="151" y="0" on="1"/>
        <pt x="-108" y="0" on="1"/>
        <pt x="-98" y="40" on="1"/>
        <pt x="-74" y="40" on="0"/>
        <pt x="-27" y="59" on="0"/>
        <pt x="29" y="103" on="0"/>
        <pt x="99" y="176" on="0"/>
        <pt x="145" y="231" on="1"/>
        <pt x="606" y="780" on="1"/>
        <pt x="690" y="780" on="1"/>
      </contour>
      <contour>
        <pt x="491" y="340" on="1"/>
        <pt x="573" y="650" on="1"/>
        <pt x="569" y="650" on="1"/>
        <pt x="310" y="340" on="1"/>
      </contour>
      <contour>
        <pt x="757" y="960" on="1"/>
        <pt x="837" y="851" on="1"/>
        <pt x="792" y="851" on="1"/>
        <pt x="687" y="905" on="1"/>
        <pt x="554" y="851" on="1"/>
        <pt x="509" y="851" on="1"/>
        <pt x="647" y="960" on="1"/>
      </contour>
    </TTGlyph>
    <TTGlyph name="Adieresis" xMin="-108" yMin="0" xMax="836" yMax="960">
      <contour>
        <pt x="551" y="166" on="1"/>
        <pt x="539" y="113" on="0"/>
        <pt x="539" y="89" on="1"/>
        <pt x="539" y="60" on="0"/>
        <pt x="577" y="40" on="0"/>
        <pt x="632" y="40" on="1"/>
        <pt x="622" y="0" on="1"/>
        <pt x="326" y="0" on="1"/>
        <pt x="336" y="40" on="1"/>
        <pt x="365" y="40" on="0"/>
        <pt x="403" y="49" on="0"/>
        <pt x="428" y="76" on="0"/>
        <pt x="446" y="126" on="0"/>
        <pt x="455" y="167" on="1"/>
        <pt x="482" y="290" on="1"/>
        <pt x="267" y="290" on="1"/>
        <pt x="204" y="224" on="1"/>
        <pt x="163" y="181" on="0"/>
        <pt x="116" y="128" on="0"/>
        <pt x="92" y="96" on="0"/>
        <pt x="86" y="80" on="0"/>
        <pt x="86" y="74" on="1"/>
        <pt x="86" y="55" on="0"/>
        <pt x="119" y="40" on="0"/>
        <pt x="161" y="40" on="1"/>
        <pt x="151" y="0" on="1"/>
        <pt x="-108" y="0" on="1"/>
        <pt x="-98" y="40" on="1"/>
        <pt x="-74" y="40" on="0"/>
        <pt x="-27" y="59" on="0"/>
        <pt x="29" y="103" on="0"/>
        <pt x="99" y="176" on="0"/>
        <pt x="145" y="231" on="1"/>
        <pt x="606" y="780" on="1"/>
        <pt x="690" y="780" on="1"/>
      </contour>
      <contour>
        <pt x="491" y="340" on="1"/>
        <pt x="573" y="650" on="1"/>
        <pt x="569" y="650" on="1"/>
        <pt x="310" y="340" on="1"/>
      </contour>
      <contour>
        <pt x="551" y="910" on="1"/>
        <pt x="556" y="931" on="0"/>
        <pt x="593" y="960" on="0"/>
        <pt x="614" y="960" on="1"/>
        <pt x="632" y="960" on="0"/>
        <pt x="654" y="939" on="0"/>
        <pt x="654" y="923" on="1"/>
        <pt x="654" y="910" on="0"/>
        <pt x="642" y="887" on="0"/>
        <pt x="623" y="869" on="0"/>
        <pt x="599" y="859" on="0"/>
        <pt x="587" y="859" on="1"/>
        <pt x="570" y="859" on="0"/>
        <pt x="549" y="879" on="0"/>
        <pt x="549" y="895" on="1"/>
        <pt x="549" y="905" on="0"/>
      </contour>
      <contour>
        <pt x="733" y="910" on="1"/>
        <pt x="738" y="931" on="0"/>
        <pt x="775" y="960" on="0"/>
        <pt x="797" y="960" on="1"/>
        <pt x="814" y="960" on="0"/>
        <pt x="836" y="939" on="0"/>
        <pt x="836" y="923" on="1"/>
        <pt x="836" y="910" on="0"/>
        <pt x="824" y="887" on="0"/>
        <pt x="805" y="869" on="0"/>
        <pt x="782" y="859" on="0"/>
        <pt x="770" y="859" on="1"/>
        <pt x="752" y="859" on="0"/>
        <pt x="731" y="879" on="0"/>
        <pt x="731" y="895" on="1"/>
        <pt x="731" y="905" on="0"/>
      </contour>
    </TTGlyph>
    <TTGlyph name="Agrave" xMin="-108" yMin="0" xMax="702" yMax="960">
      <contour>
        <pt x="551" y="166" on="1"/>
        <pt x="539" y="113" on="0"/>
        <pt x="539" y="89" on="1"/>
        <pt x="539" y="60" on="0"/>
        <pt x="577" y="40" on="0"/>
        <pt x="632" y="40" on="1"/>
        <pt x="622" y="0" on="1"/>
        <pt x="326" y="0" on="1"/>
        <pt x="336" y="40" on="1"/>
        <pt x="365" y="40" on="0"/>
        <pt x="403" y="49" on="0"/>
        <pt x="428" y="76" on="0"/>
        <pt x="446" y="126" on="0"/>
        <pt x="455" y="167" on="1"/>
        <pt x="482" y="290" on="1"/>
        <pt x="267" y="290" on="1"/>
        <pt x="204" y="224" on="1"/>
        <pt x="163" y="181" on="0"/>
        <pt x="116" y="128" on="0"/>
        <pt x="92" y="96" on="0"/>
        <pt x="86" y="80" on="0"/>
        <pt x="86" y="74" on="1"/>
        <pt x="86" y="55" on="0"/>
        <pt x="119" y="40" on="0"/>
        <pt x="161" y="40" on="1"/>
        <pt x="151" y="0" on="1"/>
        <pt x="-108" y="0" on="1"/>
        <pt x="-98" y="40" on="1"/>
        <pt x="-74" y="40" on="0"/>
        <pt x="-27" y="59" on="0"/>
        <pt x="29" y="103" on="0"/>
        <pt x="99" y="176" on="0"/>
        <pt x="145" y="231" on="1"/>
        <pt x="606" y="780" on="1"/>
        <pt x="690" y="780" on="1"/>
      </contour>
      <contour>
        <pt x="491" y="340" on="1"/>
        <pt x="573" y="650" on="1"/>
        <pt x="569" y="650" on="1"/>
        <pt x="310" y="340" on="1"/>
      </contour>
      <contour>
        <pt x="642" y="850" on="1"/>
        <pt x="529" y="878" on="1"/>
        <pt x="500" y="885" on="0"/>
        <pt x="466" y="905" on="0"/>
        <pt x="466" y="919" on="1"/>
        <pt x="466" y="938" on="0"/>
        <pt x="497" y="960" on="0"/>
        <pt x="514" y="960" on="1"/>
        <pt x="534" y="960" on="0"/>
        <pt x="569" y="944" on="0"/>
        <pt x="592" y="927" on="1"/>
        <pt x="702" y="850" on="1"/>
      </contour>
    </TTGlyph>
    <TTGlyph name="Amacron" xMin="-108" yMin="0" xMax="823" yMax="930">
      <contour>
        <pt x="551" y="166" on="1"/>
        <pt x="539" y="113" on="0"/>
        <pt x="539" y="89" on="1"/>
        <pt x="539" y="60" on="0"/>
        <pt x="577" y="40" on="0"/>
        <pt x="632" y="40" on="1"/>
        <pt x="622" y="0" on="1"/>
        <pt x="326" y="0" on="1"/>
        <pt x="336" y="40" on="1"/>
        <pt x="365" y="40" on="0"/>
        <pt x="403" y="49" on="0"/>
        <pt x="428" y="76" on="0"/>
        <pt x="446" y="126" on="0"/>
        <pt x="455" y="167" on="1"/>
        <pt x="482" y="290" on="1"/>
        <pt x="267" y="290" on="1"/>
        <pt x="204" y="224" on="1"/>
        <pt x="163" y="181" on="0"/>
        <pt x="116" y="128" on="0"/>
        <pt x="92" y="96" on="0"/>
        <pt x="86" y="80" on="0"/>
        <pt x="86" y="74" on="1"/>
        <pt x="86" y="55" on="0"/>
        <pt x="119" y="40" on="0"/>
        <pt x="161" y="40" on="1"/>
        <pt x="151" y="0" on="1"/>
        <pt x="-108" y="0" on="1"/>
        <pt x="-98" y="40" on="1"/>
        <pt x="-74" y="40" on="0"/>
        <pt x="-27" y="59" on="0"/>
        <pt x="29" y="103" on="0"/>
        <pt x="99" y="176" on="0"/>
        <pt x="145" y="231" on="1"/>
        <pt x="606" y="780" on="1"/>
        <pt x="690" y="780" on="1"/>
      </contour>
      <contour>
        <pt x="491" y="340" on="1"/>
        <pt x="573" y="650" on="1"/>
        <pt x="569" y="650" on="1"/>
        <pt x="310" y="340" on="1"/>
      </contour>
      <contour>
        <pt x="540" y="880" on="1"/>
        <pt x="553" y="930" on="1"/>
        <pt x="823" y="930" on="1"/>
        <pt x="810" y="880" on="1"/>
      </contour>
    </TTGlyph>
    <TTGlyph name="Aogonek" xMin="-108" yMin="-234" xMax="690" yMax="780">
      <contour>
        <pt x="552" y="-152" on="1"/>
        <pt x="521" y="-192" on="0"/>
        <pt x="440" y="-234" on="0"/>
        <pt x="395" y="-234" on="1"/>
        <pt x="349" y="-234" on="0"/>
        <pt x="298" y="-189" on="0"/>
        <pt x="298" y="-149" on="1"/>
        <pt x="298" y="-105" on="0"/>
        <pt x="363" y="-28" on="0"/>
        <pt x="423" y="0" on="1"/>
        <pt x="326" y="0" on="1"/>
        <pt x="336" y="40" on="1"/>
        <pt x="365" y="40" on="0"/>
        <pt x="403" y="49" on="0"/>
        <pt x="428" y="76" on="0"/>
        <pt x="446" y="126" on="0"/>
        <pt x="455" y="167" on="1"/>
        <pt x="482" y="290" on="1"/>
        <pt x="267" y="290" on="1"/>
        <pt x="204" y="224" on="1"/>
        <pt x="163" y="181" on="0"/>
        <pt x="116" y="128" on="0"/>
        <pt x="92" y="96" on="0"/>
        <pt x="86" y="80" on="0"/>
        <pt x="86" y="74" on="1"/>
        <pt x="86" y="55" on="0"/>
        <pt x="119" y="40" on="0"/>
        <pt x="161" y="40" on="1"/>
        <pt x="151" y="0" on="1"/>
        <pt x="-108" y="0" on="1"/>
        <pt x="-98" y="40" on="1"/>
        <pt x="-74" y="40" on="0"/>
        <pt x="-27" y="59" on="0"/>
        <pt x="29" y="103" on="0"/>
        <pt x="99" y="176" on="0"/>
        <pt x="145" y="231" on="1"/>
        <pt x="606" y="780" on="1"/>
        <pt x="690" y="780" on="1"/>
        <pt x="551" y="166" on="1"/>
        <pt x="539" y="113" on="0"/>
        <pt x="539" y="89" on="1"/>
        <pt x="539" y="60" on="0"/>
        <pt x="577" y="40" on="0"/>
        <pt x="632" y="40" on="1"/>
        <pt x="622" y="0" on="1"/>
        <pt x="488" y="0" on="1"/>
        <pt x="438" y="-26" on="0"/>
        <pt x="377" y="-96" on="0"/>
        <pt x="377" y="-126" on="1"/>
        <pt x="377" y="-146" on="0"/>
        <pt x="407" y="-174" on="0"/>
        <pt x="428" y="-174" on="1"/>
        <pt x="447" y="-174" on="0"/>
        <pt x="497" y="-147" on="0"/>
        <pt x="523" y="-121" on="1"/>
      </contour>
      <contour>
        <pt x="491" y="340" on="1"/>
        <pt x="573" y="650" on="1"/>
        <pt x="569" y="650" on="1"/>
        <pt x="310" y="340" on="1"/>
      </contour>
    </TTGlyph>
    <TTGlyph name="Aring" xMin="-108" yMin="0" xMax="751" yMax="960">
      <contour>
        <pt x="551" y="166" on="1"/>
        <pt x="539" y="113" on="0"/>
        <pt x="539" y="89" on="1"/>
        <pt x="539" y="60" on="0"/>
        <pt x="577" y="40" on="0"/>
        <pt x="632" y="40" on="1"/>
        <pt x="622" y="0" on="1"/>
        <pt x="326" y="0" on="1"/>
        <pt x="336" y="40" on="1"/>
        <pt x="365" y="40" on="0"/>
        <pt x="403" y="49" on="0"/>
        <pt x="428" y="76" on="0"/>
        <pt x="446" y="126" on="0"/>
        <pt x="455" y="167" on="1"/>
        <pt x="482" y="290" on="1"/>
        <pt x="267" y="290" on="1"/>
        <pt x="204" y="224" on="1"/>
        <pt x="163" y="181" on="0"/>
        <pt x="116" y="128" on="0"/>
        <pt x="92" y="96" on="0"/>
        <pt x="86" y="80" on="0"/>
        <pt x="86" y="74" on="1"/>
        <pt x="86" y="55" on="0"/>
        <pt x="119" y="40" on="0"/>
        <pt x="161" y="40" on="1"/>
        <pt x="151" y="0" on="1"/>
        <pt x="-108" y="0" on="1"/>
        <pt x="-98" y="40" on="1"/>
        <pt x="-74" y="40" on="0"/>
        <pt x="-27" y="59" on="0"/>
        <pt x="29" y="103" on="0"/>
        <pt x="99" y="176" on="0"/>
        <pt x="145" y="231" on="1"/>
        <pt x="606" y="780" on="1"/>
        <pt x="690" y="780" on="1"/>
      </contour>
      <contour>
        <pt x="491" y="340" on="1"/>
        <pt x="573" y="650" on="1"/>
        <pt x="569" y="650" on="1"/>
        <pt x="310" y="340" on="1"/>
      </contour>
      <contour>
        <pt x="616" y="878" on="1"/>
        <pt x="616" y="894" on="0"/>
        <pt x="630" y="923" on="0"/>
        <pt x="654" y="946" on="0"/>
        <pt x="684" y="960" on="0"/>
        <pt x="701" y="960" on="1"/>
        <pt x="724" y="960" on="0"/>
        <pt x="751" y="934" on="0"/>
        <pt x="751" y="911" on="1"/>
        <pt x="751" y="895" on="0"/>
        <pt x="736" y="866" on="0"/>
        <pt x="712" y="843" on="0"/>
        <pt x="681" y="830" on="0"/>
        <pt x="665" y="830" on="1"/>
        <pt x="642" y="830" on="0"/>
        <pt x="616" y="856" on="0"/>
      </contour>
      <contour>
        <pt x="692" y="928" on="1"/>
        <pt x="675" y="928" on="0"/>
        <pt x="648" y="902" on="0"/>
        <pt x="648" y="885" on="1"/>
        <pt x="648" y="861" on="0"/>
        <pt x="673" y="861" on="1"/>
        <pt x="690" y="861" on="0"/>
        <pt x="718" y="886" on="0"/>
        <pt x="718" y="903" on="1"/>
        <pt x="718" y="928" on="0"/>
      </contour>
    </TTGlyph>
    <TTGlyph name="Aringacute" xMin="-108" yMin="0" xMax="823" yMax="960">
      <contour>
        <pt x="622" y="894" on="1"/>
        <pt x="629" y="921" on="0"/>
        <pt x="676" y="960" on="0"/>
        <pt x="705" y="960" on="1"/>
        <pt x="730" y="960" on="0"/>
        <pt x="745" y="942" on="1"/>
        <pt x="759" y="948" on="0"/>
        <pt x="781" y="955" on="0"/>
        <pt x="793" y="955" on="1"/>
        <pt x="823" y="955" on="0"/>
        <pt x="823" y="935" on="1"/>
        <pt x="823" y="920" on="0"/>
        <pt x="786" y="898" on="0"/>
        <pt x="752" y="891" on="1"/>
        <pt x="744" y="865" on="0"/>
        <pt x="697" y="830" on="0"/>
        <pt x="669" y="830" on="1"/>
        <pt x="652" y="830" on="0"/>
        <pt x="628" y="845" on="0"/>
        <pt x="623" y="858" on="1"/>
        <pt x="577" y="850" on="1"/>
        <pt x="517" y="850" on="1"/>
      </contour>
      <contour>
        <pt x="696" y="928" on="1"/>
        <pt x="679" y="928" on="0"/>
        <pt x="652" y="902" on="0"/>
        <pt x="652" y="885" on="1"/>
        <pt x="652" y="861" on="0"/>
        <pt x="677" y="861" on="1"/>
        <pt x="694" y="861" on="0"/>
        <pt x="722" y="886" on="0"/>
        <pt x="722" y="903" on="1"/>
        <pt x="722" y="928" on="0"/>
      </contour>
      <contour>
        <pt x="551" y="166" on="1"/>
        <pt x="539" y="113" on="0"/>
        <pt x="539" y="89" on="1"/>
        <pt x="539" y="60" on="0"/>
        <pt x="577" y="40" on="0"/>
        <pt x="632" y="40" on="1"/>
        <pt x="622" y="0" on="1"/>
        <pt x="326" y="0" on="1"/>
        <pt x="336" y="40" on="1"/>
        <pt x="365" y="40" on="0"/>
        <pt x="403" y="49" on="0"/>
        <pt x="428" y="76" on="0"/>
        <pt x="446" y="126" on="0"/>
        <pt x="455" y="167" on="1"/>
        <pt x="482" y="290" on="1"/>
        <pt x="267" y="290" on="1"/>
        <pt x="204" y="224" on="1"/>
        <pt x="163" y="181" on="0"/>
        <pt x="116" y="128" on="0"/>
        <pt x="92" y="96" on="0"/>
        <pt x="86" y="80" on="0"/>
        <pt x="86" y="74" on="1"/>
        <pt x="86" y="55" on="0"/>
        <pt x="119" y="40" on="0"/>
        <pt x="161" y="40" on="1"/>
        <pt x="151" y="0" on="1"/>
        <pt x="-108" y="0" on="1"/>
        <pt x="-98" y="40" on="1"/>
        <pt x="-74" y="40" on="0"/>
        <pt x="-27" y="59" on="0"/>
        <pt x="29" y="103" on="0"/>
        <pt x="99" y="176" on="0"/>
        <pt x="145" y="231" on="1"/>
        <pt x="606" y="780" on="1"/>
        <pt x="690" y="780" on="1"/>
      </contour>
      <contour>
        <pt x="491" y="340" on="1"/>
        <pt x="573" y="650" on="1"/>
        <pt x="569" y="650" on="1"/>
        <pt x="310" y="340" on="1"/>
      </contour>
    </TTGlyph>
    <TTGlyph name="Atilde" xMin="-108" yMin="0" xMax="854" yMax="960">
      <contour>
        <pt x="551" y="166" on="1"/>
        <pt x="539" y="113" on="0"/>
        <pt x="539" y="89" on="1"/>
        <pt x="539" y="60" on="0"/>
        <pt x="577" y="40" on="0"/>
        <pt x="632" y="40" on="1"/>
        <pt x="622" y="0" on="1"/>
        <pt x="326" y="0" on="1"/>
        <pt x="336" y="40" on="1"/>
        <pt x="365" y="40" on="0"/>
        <pt x="403" y="49" on="0"/>
        <pt x="428" y="76" on="0"/>
        <pt x="446" y="126" on="0"/>
        <pt x="455" y="167" on="1"/>
        <pt x="482" y="290" on="1"/>
        <pt x="267" y="290" on="1"/>
        <pt x="204" y="224" on="1"/>
        <pt x="163" y="181" on="0"/>
        <pt x="116" y="128" on="0"/>
        <pt x="92" y="96" on="0"/>
        <pt x="86" y="80" on="0"/>
        <pt x="86" y="74" on="1"/>
        <pt x="86" y="55" on="0"/>
        <pt x="119" y="40" on="0"/>
        <pt x="161" y="40" on="1"/>
        <pt x="151" y="0" on="1"/>
        <pt x="-108" y="0" on="1"/>
        <pt x="-98" y="40" on="1"/>
        <pt x="-74" y="40" on="0"/>
        <pt x="-27" y="59" on="0"/>
        <pt x="29" y="103" on="0"/>
        <pt x="99" y="176" on="0"/>
        <pt x="145" y="231" on="1"/>
        <pt x="606" y="780" on="1"/>
        <pt x="690" y="780" on="1"/>
      </contour>
      <contour>
        <pt x="491" y="340" on="1"/>
        <pt x="573" y="650" on="1"/>
        <pt x="569" y="650" on="1"/>
        <pt x="310" y="340" on="1"/>
      </contour>
      <contour>
        <pt x="513" y="846" on="1"/>
        <pt x="521" y="897" on="0"/>
        <pt x="580" y="960" on="0"/>
        <pt x="618" y="960" on="1"/>
        <pt x="640" y="960" on="0"/>
        <pt x="682" y="946" on="0"/>
        <pt x="722" y="928" on="0"/>
        <pt x="759" y="914" on="0"/>
        <pt x="777" y="914" on="1"/>
        <pt x="794" y="914" on="0"/>
        <pt x="814" y="933" on="0"/>
        <pt x="821" y="956" on="1"/>
        <pt x="854" y="956" on="1"/>
        <pt x="851" y="933" on="0"/>
        <pt x="835" y="891" on="0"/>
        <pt x="809" y="858" on="0"/>
        <pt x="775" y="838" on="0"/>
        <pt x="755" y="838" on="1"/>
        <pt x="733" y="838" on="0"/>
        <pt x="688" y="853" on="0"/>
        <pt x="645" y="871" on="0"/>
        <pt x="605" y="886" on="0"/>
        <pt x="589" y="886" on="1"/>
        <pt x="572" y="886" on="0"/>
        <pt x="554" y="868" on="0"/>
        <pt x="547" y="846" on="1"/>
      </contour>
    </TTGlyph>
    <TTGlyph name="B" xMin="-29" yMin="0" xMax="686" yMax="770">
      <contour>
        <pt x="231" y="207" on="1"/>
        <pt x="228" y="198" on="0"/>
        <pt x="221" y="170" on="0"/>
        <pt x="215" y="142" on="0"/>
        <pt x="210" y="114" on="0"/>
        <pt x="210" y="105" on="1"/>
        <pt x="210" y="85" on="0"/>
        <pt x="228" y="61" on="0"/>
        <pt x="255" y="49" on="0"/>
        <pt x="288" y="45" on="0"/>
        <pt x="304" y="45" on="1"/>
        <pt x="359" y="45" on="0"/>
        <pt x="446" y="74" on="0"/>
        <pt x="506" y="126" on="0"/>
        <pt x="537" y="197" on="0"/>
        <pt x="537" y="239" on="1"/>
        <pt x="537" y="315" on="0"/>
        <pt x="439" y="385" on="0"/>
        <pt x="337" y="385" on="1"/>
        <pt x="280" y="385" on="1"/>
      </contour>
      <contour>
        <pt x="-18" y="40" on="1"/>
        <pt x="12" y="40" on="0"/>
        <pt x="54" y="48" on="0"/>
        <pt x="84" y="73" on="0"/>
        <pt x="106" y="120" on="0"/>
        <pt x="117" y="159" on="1"/>
        <pt x="235" y="600" on="1"/>
        <pt x="246" y="644" on="0"/>
        <pt x="246" y="669" on="1"/>
        <pt x="246" y="703" on="0"/>
        <pt x="204" y="730" on="0"/>
        <pt x="154" y="730" on="1"/>
        <pt x="165" y="770" on="1"/>
        <pt x="433" y="770" on="1"/>
        <pt x="476" y="770" on="0"/>
        <pt x="566" y="755" on="0"/>
        <pt x="639" y="716" on="0"/>
        <pt x="686" y="649" on="0"/>
        <pt x="686" y="597" on="1"/>
        <pt x="686" y="548" on="0"/>
        <pt x="646" y="482" on="0"/>
        <pt x="584" y="439" on="0"/>
        <pt x="509" y="416" on="0"/>
        <pt x="474" y="411" on="1"/>
        <pt x="474" y="407" on="1"/>
        <pt x="562" y="389" on="0"/>
        <pt x="654" y="294" on="0"/>
        <pt x="654" y="221" on="1"/>
        <pt x="654" y="170" on="0"/>
        <pt x="606" y="88" on="0"/>
        <pt x="522" y="31" on="0"/>
        <pt x="406" y="0" on="0"/>
        <pt x="337" y="0" on="1"/>
        <pt x="-29" y="0" on="1"/>
      </contour>
      <contour>
        <pt x="293" y="436" on="1"/>
        <pt x="367" y="436" on="1"/>
        <pt x="414" y="436" on="0"/>
        <pt x="493" y="460" on="0"/>
        <pt x="549" y="504" on="0"/>
        <pt x="580" y="565" on="0"/>
        <pt x="580" y="602" on="1"/>
        <pt x="580" y="667" on="0"/>
        <pt x="507" y="725" on="0"/>
        <pt x="420" y="725" on="1"/>
        <pt x="393" y="725" on="0"/>
        <pt x="360" y="688" on="0"/>
        <pt x="349" y="645" on="1"/>
      </contour>
    </TTGlyph>
    <TTGlyph name="C" xMin="73" yMin="-10" xMax="752" yMax="780">
      <contour>
        <pt x="665" y="189" on="1"/>
        <pt x="630" y="136" on="0"/>
        <pt x="563" y="60" on="0"/>
        <pt x="491" y="12" on="0"/>
        <pt x="411" y="-10" on="0"/>
        <pt x="365" y="-10" on="1"/>
        <pt x="297" y="-10" on="0"/>
        <pt x="189" y="33" on="0"/>
        <pt x="114" y="114" on="0"/>
        <pt x="73" y="229" on="0"/>
        <pt x="73" y="301" on="1"/>
        <pt x="73" y="396" on="0"/>
        <pt x="143" y="569" on="0"/>
        <pt x="260" y="701" on="0"/>
        <pt x="414" y="780" on="0"/>
        <pt x="498" y="780" on="1"/>
        <pt x="546" y="780" on="0"/>
        <pt x="633" y="751" on="0"/>
        <pt x="678" y="720" on="1"/>
        <pt x="715" y="770" on="1"/>
        <pt x="752" y="770" on="1"/>
        <pt x="706" y="519" on="1"/>
        <pt x="668" y="519" on="1"/>
        <pt x="660" y="628" on="0"/>
        <pt x="583" y="728" on="0"/>
        <pt x="506" y="728" on="1"/>
        <pt x="440" y="728" on="0"/>
        <pt x="326" y="662" on="0"/>
        <pt x="242" y="546" on="0"/>
        <pt x="194" y="390" on="0"/>
        <pt x="194" y="300" on="1"/>
        <pt x="194" y="52" on="0"/>
        <pt x="387" y="52" on="1"/>
        <pt x="459" y="52" on="0"/>
        <pt x="576" y="130" on="0"/>
        <pt x="629" y="213" on="1"/>
      </contour>
    </TTGlyph>
    <TTGlyph name="Cacute" xMin="73" yMin="-10" xMax="752" yMax="960">
      <contour>
        <pt x="665" y="189" on="1"/>
        <pt x="630" y="136" on="0"/>
        <pt x="563" y="60" on="0"/>
        <pt x="491" y="12" on="0"/>
        <pt x="411" y="-10" on="0"/>
        <pt x="365" y="-10" on="1"/>
        <pt x="297" y="-10" on="0"/>
        <pt x="189" y="33" on="0"/>
        <pt x="114" y="114" on="0"/>
        <pt x="73" y="229" on="0"/>
        <pt x="73" y="301" on="1"/>
        <pt x="73" y="396" on="0"/>
        <pt x="143" y="569" on="0"/>
        <pt x="260" y="701" on="0"/>
        <pt x="414" y="780" on="0"/>
        <pt x="498" y="780" on="1"/>
        <pt x="546" y="780" on="0"/>
        <pt x="633" y="751" on="0"/>
        <pt x="678" y="720" on="1"/>
        <pt x="715" y="770" on="1"/>
        <pt x="752" y="770" on="1"/>
        <pt x="706" y="519" on="1"/>
        <pt x="668" y="519" on="1"/>
        <pt x="660" y="628" on="0"/>
        <pt x="583" y="728" on="0"/>
        <pt x="506" y="728" on="1"/>
        <pt x="440" y="728" on="0"/>
        <pt x="326" y="662" on="0"/>
        <pt x="242" y="546" on="0"/>
        <pt x="194" y="390" on="0"/>
        <pt x="194" y="300" on="1"/>
        <pt x="194" y="52" on="0"/>
        <pt x="387" y="52" on="1"/>
        <pt x="459" y="52" on="0"/>
        <pt x="576" y="130" on="0"/>
        <pt x="629" y="213" on="1"/>
      </contour>
      <contour>
        <pt x="408" y="850" on="1"/>
        <pt x="558" y="927" on="1"/>
        <pt x="590" y="944" on="0"/>
        <pt x="634" y="960" on="0"/>
        <pt x="654" y="960" on="1"/>
        <pt x="684" y="960" on="0"/>
        <pt x="684" y="935" on="1"/>
        <pt x="684" y="915" on="0"/>
        <pt x="638" y="887" on="0"/>
        <pt x="595" y="878" on="1"/>
        <pt x="468" y="850" on="1"/>
      </contour>
    </TTGlyph>
    <TTGlyph name="Ccaron" xMin="73" yMin="-10" xMax="752" yMax="960">
      <contour>
        <pt x="665" y="189" on="1"/>
        <pt x="630" y="136" on="0"/>
        <pt x="563" y="60" on="0"/>
        <pt x="491" y="12" on="0"/>
        <pt x="411" y="-10" on="0"/>
        <pt x="365" y="-10" on="1"/>
        <pt x="297" y="-10" on="0"/>
        <pt x="189" y="33" on="0"/>
        <pt x="114" y="114" on="0"/>
        <pt x="73" y="229" on="0"/>
        <pt x="73" y="301" on="1"/>
        <pt x="73" y="396" on="0"/>
        <pt x="143" y="569" on="0"/>
        <pt x="260" y="701" on="0"/>
        <pt x="414" y="780" on="0"/>
        <pt x="498" y="780" on="1"/>
        <pt x="546" y="780" on="0"/>
        <pt x="633" y="751" on="0"/>
        <pt x="678" y="720" on="1"/>
        <pt x="715" y="770" on="1"/>
        <pt x="752" y="770" on="1"/>
        <pt x="706" y="519" on="1"/>
        <pt x="668" y="519" on="1"/>
        <pt x="660" y="628" on="0"/>
        <pt x="583" y="728" on="0"/>
        <pt x="506" y="728" on="1"/>
        <pt x="440" y="728" on="0"/>
        <pt x="326" y="662" on="0"/>
        <pt x="242" y="546" on="0"/>
        <pt x="194" y="390" on="0"/>
        <pt x="194" y="300" on="1"/>
        <pt x="194" y="52" on="0"/>
        <pt x="387" y="52" on="1"/>
        <pt x="459" y="52" on="0"/>
        <pt x="576" y="130" on="0"/>
        <pt x="629" y="213" on="1"/>
      </contour>
      <contour>
        <pt x="467" y="851" on="1"/>
        <pt x="387" y="960" on="1"/>
        <pt x="432" y="960" on="1"/>
        <pt x="537" y="906" on="1"/>
        <pt x="670" y="960" on="1"/>
        <pt x="715" y="960" on="1"/>
        <pt x="577" y="851" on="1"/>
      </contour>
    </TTGlyph>
    <TTGlyph name="Ccedilla" xMin="73" yMin="-260" xMax="752" yMax="780">
      <contour>
        <pt x="665" y="189" on="1"/>
        <pt x="604" y="95" on="0"/>
        <pt x="484" y="2" on="0"/>
        <pt x="409" y="-7" on="1"/>
        <pt x="368" y="-72" on="1"/>
        <pt x="419" y="-72" on="0"/>
        <pt x="472" y="-104" on="0"/>
        <pt x="472" y="-135" on="1"/>
        <pt x="472" y="-161" on="0"/>
        <pt x="446" y="-206" on="0"/>
        <pt x="403" y="-240" on="0"/>
        <pt x="348" y="-260" on="0"/>
        <pt x="320" y="-260" on="1"/>
        <pt x="275" y="-260" on="0"/>
        <pt x="221" y="-224" on="0"/>
        <pt x="221" y="-197" on="1"/>
        <pt x="221" y="-176" on="0"/>
        <pt x="245" y="-148" on="0"/>
        <pt x="262" y="-148" on="1"/>
        <pt x="274" y="-148" on="0"/>
        <pt x="283" y="-170" on="0"/>
        <pt x="290" y="-195" on="0"/>
        <pt x="304" y="-217" on="0"/>
        <pt x="322" y="-217" on="1"/>
        <pt x="346" y="-217" on="0"/>
        <pt x="387" y="-181" on="0"/>
        <pt x="387" y="-154" on="1"/>
        <pt x="387" y="-113" on="0"/>
        <pt x="320" y="-113" on="1"/>
        <pt x="310" y="-113" on="0"/>
        <pt x="290" y="-114" on="0"/>
        <pt x="285" y="-115" on="1"/>
        <pt x="284" y="-112" on="1"/>
        <pt x="354" y="-10" on="1"/>
        <pt x="289" y="-8" on="0"/>
        <pt x="185" y="37" on="0"/>
        <pt x="112" y="118" on="0"/>
        <pt x="73" y="231" on="0"/>
        <pt x="73" y="301" on="1"/>
        <pt x="73" y="396" on="0"/>
        <pt x="143" y="569" on="0"/>
        <pt x="260" y="701" on="0"/>
        <pt x="414" y="780" on="0"/>
        <pt x="498" y="780" on="1"/>
        <pt x="546" y="780" on="0"/>
        <pt x="633" y="751" on="0"/>
        <pt x="678" y="720" on="1"/>
        <pt x="715" y="770" on="1"/>
        <pt x="752" y="770" on="1"/>
        <pt x="706" y="519" on="1"/>
        <pt x="668" y="519" on="1"/>
        <pt x="660" y="628" on="0"/>
        <pt x="583" y="728" on="0"/>
        <pt x="506" y="728" on="1"/>
        <pt x="440" y="728" on="0"/>
        <pt x="326" y="662" on="0"/>
        <pt x="242" y="546" on="0"/>
        <pt x="194" y="390" on="0"/>
        <pt x="194" y="300" on="1"/>
        <pt x="194" y="52" on="0"/>
        <pt x="387" y="52" on="1"/>
        <pt x="459" y="52" on="0"/>
        <pt x="576" y="130" on="0"/>
        <pt x="629" y="213" on="1"/>
        <pt x="665" y="189" on="1"/>
      </contour>
    </TTGlyph>
    <TTGlyph name="Ccircumflex" xMin="73" yMin="-10" xMax="752" yMax="960">
      <contour>
        <pt x="665" y="189" on="1"/>
        <pt x="630" y="136" on="0"/>
        <pt x="563" y="60" on="0"/>
        <pt x="491" y="12" on="0"/>
        <pt x="411" y="-10" on="0"/>
        <pt x="365" y="-10" on="1"/>
        <pt x="297" y="-10" on="0"/>
        <pt x="189" y="33" on="0"/>
        <pt x="114" y="114" on="0"/>
        <pt x="73" y="229" on="0"/>
        <pt x="73" y="301" on="1"/>
        <pt x="73" y="396" on="0"/>
        <pt x="143" y="569" on="0"/>
        <pt x="260" y="701" on="0"/>
        <pt x="414" y="780" on="0"/>
        <pt x="498" y="780" on="1"/>
        <pt x="546" y="780" on="0"/>
        <pt x="633" y="751" on="0"/>
        <pt x="678" y="720" on="1"/>
        <pt x="715" y="770" on="1"/>
        <pt x="752" y="770" on="1"/>
        <pt x="706" y="519" on="1"/>
        <pt x="668" y="519" on="1"/>
        <pt x="660" y="628" on="0"/>
        <pt x="583" y="728" on="0"/>
        <pt x="506" y="728" on="1"/>
        <pt x="440" y="728" on="0"/>
        <pt x="326" y="662" on="0"/>
        <pt x="242" y="546" on="0"/>
        <pt x="194" y="390" on="0"/>
        <pt x="194" y="300" on="1"/>
        <pt x="194" y="52" on="0"/>
        <pt x="387" y="52" on="1"/>
        <pt x="459" y="52" on="0"/>
        <pt x="576" y="130" on="0"/>
        <pt x="629" y="213" on="1"/>
      </contour>
      <contour>
        <pt x="611" y="960" on="1"/>
        <pt x="691" y="851" on="1"/>
        <pt x="646" y="851" on="1"/>
        <pt x="541" y="905" on="1"/>
        <pt x="408" y="851" on="1"/>
        <pt x="363" y="851" on="1"/>
        <pt x="501" y="960" on="1"/>
      </contour>
    </TTGlyph>
    <TTGlyph name="Cdotaccent" xMin="73" yMin="-10" xMax="752" yMax="959">
      <contour>
        <pt x="665" y="189" on="1"/>
        <pt x="630" y="136" on="0"/>
        <pt x="563" y="60" on="0"/>
        <pt x="491" y="12" on="0"/>
        <pt x="411" y="-10" on="0"/>
        <pt x="365" y="-10" on="1"/>
        <pt x="297" y="-10" on="0"/>
        <pt x="189" y="33" on="0"/>
        <pt x="114" y="114" on="0"/>
        <pt x="73" y="229" on="0"/>
        <pt x="73" y="301" on="1"/>
        <pt x="73" y="396" on="0"/>
        <pt x="143" y="569" on="0"/>
        <pt x="260" y="701" on="0"/>
        <pt x="414" y="780" on="0"/>
        <pt x="498" y="780" on="1"/>
        <pt x="546" y="780" on="0"/>
        <pt x="633" y="751" on="0"/>
        <pt x="678" y="720" on="1"/>
        <pt x="715" y="770" on="1"/>
        <pt x="752" y="770" on="1"/>
        <pt x="706" y="519" on="1"/>
        <pt x="668" y="519" on="1"/>
        <pt x="660" y="628" on="0"/>
        <pt x="583" y="728" on="0"/>
        <pt x="506" y="728" on="1"/>
        <pt x="440" y="728" on="0"/>
        <pt x="326" y="662" on="0"/>
        <pt x="242" y="546" on="0"/>
        <pt x="194" y="390" on="0"/>
        <pt x="194" y="300" on="1"/>
        <pt x="194" y="52" on="0"/>
        <pt x="387" y="52" on="1"/>
        <pt x="459" y="52" on="0"/>
        <pt x="576" y="130" on="0"/>
        <pt x="629" y="213" on="1"/>
      </contour>
      <contour>
        <pt x="500" y="904" on="1"/>
        <pt x="500" y="927" on="0"/>
        <pt x="531" y="959" on="0"/>
        <pt x="552" y="959" on="1"/>
        <pt x="575" y="959" on="0"/>
        <pt x="607" y="927" on="0"/>
        <pt x="607" y="904" on="1"/>
        <pt x="607" y="883" on="0"/>
        <pt x="575" y="852" on="0"/>
        <pt x="552" y="852" on="1"/>
        <pt x="531" y="852" on="0"/>
        <pt x="500" y="883" on="0"/>
      </contour>
    </TTGlyph>
    <TTGlyph name="D" xMin="-29" yMin="0" xMax="797" yMax="770">
      <contour>
        <pt x="165" y="770" on="1"/>
        <pt x="436" y="770" on="1"/>
        <pt x="505" y="770" on="0"/>
        <pt x="635" y="737" on="0"/>
        <pt x="688" y="693" on="1"/>
        <pt x="745" y="646" on="0"/>
        <pt x="797" y="517" on="0"/>
        <pt x="797" y="447" on="1"/>
        <pt x="797" y="402" on="0"/>
        <pt x="776" y="311" on="0"/>
        <pt x="739" y="226" on="0"/>
        <pt x="688" y="151" on="0"/>
        <pt x="658" y="121" on="1"/>
        <pt x="588" y="52" on="0"/>
        <pt x="418" y="0" on="0"/>
        <pt x="321" y="0" on="1"/>
        <pt x="-29" y="0" on="1"/>
        <pt x="-18" y="40" on="1"/>
        <pt x="14" y="40" on="0"/>
        <pt x="57" y="48" on="0"/>
        <pt x="86" y="73" on="0"/>
        <pt x="107" y="119" on="0"/>
        <pt x="117" y="158" on="1"/>
        <pt x="232" y="600" on="1"/>
        <pt x="234" y="607" on="0"/>
        <pt x="241" y="629" on="0"/>
        <pt x="249" y="655" on="0"/>
        <pt x="254" y="679" on="0"/>
        <pt x="254" y="688" on="1"/>
        <pt x="254" y="703" on="0"/>
        <pt x="237" y="719" on="0"/>
        <pt x="212" y="728" on="0"/>
        <pt x="183" y="730" on="0"/>
        <pt x="171" y="730" on="1"/>
        <pt x="152" y="730" on="1"/>
      </contour>
      <contour>
        <pt x="237" y="231" on="1"/>
        <pt x="229" y="201" on="0"/>
        <pt x="219" y="162" on="0"/>
        <pt x="214" y="137" on="0"/>
        <pt x="212" y="123" on="0"/>
        <pt x="212" y="118" on="1"/>
        <pt x="212" y="91" on="0"/>
        <pt x="235" y="62" on="0"/>
        <pt x="267" y="47" on="0"/>
        <pt x="301" y="44" on="0"/>
        <pt x="312" y="44" on="1"/>
        <pt x="377" y="44" on="0"/>
        <pt x="483" y="80" on="0"/>
        <pt x="565" y="143" on="0"/>
        <pt x="624" y="225" on="0"/>
        <pt x="663" y="317" on="0"/>
        <pt x="681" y="412" on="0"/>
        <pt x="681" y="457" on="1"/>
        <pt x="681" y="583" on="0"/>
        <pt x="546" y="720" on="0"/>
        <pt x="428" y="720" on="1"/>
        <pt x="399" y="720" on="0"/>
        <pt x="364" y="703" on="0"/>
        <pt x="355" y="669" on="1"/>
      </contour>
    </TTGlyph>
    <TTGlyph name="Dcaron" xMin="-29" yMin="0" xMax="797" yMax="960">
      <contour>
        <pt x="165" y="770" on="1"/>
        <pt x="436" y="770" on="1"/>
        <pt x="505" y="770" on="0"/>
        <pt x="635" y="737" on="0"/>
        <pt x="688" y="693" on="1"/>
        <pt x="745" y="646" on="0"/>
        <pt x="797" y="517" on="0"/>
        <pt x="797" y="447" on="1"/>
        <pt x="797" y="402" on="0"/>
        <pt x="776" y="311" on="0"/>
        <pt x="739" y="226" on="0"/>
        <pt x="688" y="151" on="0"/>
        <pt x="658" y="121" on="1"/>
        <pt x="588" y="52" on="0"/>
        <pt x="418" y="0" on="0"/>
        <pt x="321" y="0" on="1"/>
        <pt x="-29" y="0" on="1"/>
        <pt x="-18" y="40" on="1"/>
        <pt x="14" y="40" on="0"/>
        <pt x="57" y="48" on="0"/>
        <pt x="86" y="73" on="0"/>
        <pt x="107" y="119" on="0"/>
        <pt x="117" y="158" on="1"/>
        <pt x="232" y="600" on="1"/>
        <pt x="234" y="607" on="0"/>
        <pt x="241" y="629" on="0"/>
        <pt x="249" y="655" on="0"/>
        <pt x="254" y="679" on="0"/>
        <pt x="254" y="688" on="1"/>
        <pt x="254" y="703" on="0"/>
        <pt x="237" y="719" on="0"/>
        <pt x="212" y="728" on="0"/>
        <pt x="183" y="730" on="0"/>
        <pt x="171" y="730" on="1"/>
        <pt x="152" y="730" on="1"/>
      </contour>
      <contour>
        <pt x="237" y="231" on="1"/>
        <pt x="229" y="201" on="0"/>
        <pt x="219" y="162" on="0"/>
        <pt x="214" y="137" on="0"/>
        <pt x="212" y="123" on="0"/>
        <pt x="212" y="118" on="1"/>
        <pt x="212" y="91" on="0"/>
        <pt x="235" y="62" on="0"/>
        <pt x="267" y="47" on="0"/>
        <pt x="301" y="44" on="0"/>
        <pt x="312" y="44" on="1"/>
        <pt x="377" y="44" on="0"/>
        <pt x="483" y="80" on="0"/>
        <pt x="565" y="143" on="0"/>
        <pt x="624" y="225" on="0"/>
        <pt x="663" y="317" on="0"/>
        <pt x="681" y="412" on="0"/>
        <pt x="681" y="457" on="1"/>
        <pt x="681" y="583" on="0"/>
        <pt x="546" y="720" on="0"/>
        <pt x="428" y="720" on="1"/>
        <pt x="399" y="720" on="0"/>
        <pt x="364" y="703" on="0"/>
        <pt x="355" y="669" on="1"/>
      </contour>
      <contour>
        <pt x="433" y="851" on="1"/>
        <pt x="353" y="960" on="1"/>
        <pt x="398" y="960" on="1"/>
        <pt x="503" y="906" on="1"/>
        <pt x="636" y="960" on="1"/>
        <pt x="681" y="960" on="1"/>
        <pt x="543" y="851" on="1"/>
      </contour>
    </TTGlyph>
    <TTGlyph name="Dcroat" xMin="-26" yMin="0" xMax="800" yMax="770">
      <contour>
        <pt x="168" y="770" on="1"/>
        <pt x="439" y="770" on="1"/>
        <pt x="508" y="770" on="0"/>
        <pt x="638" y="737" on="0"/>
        <pt x="691" y="693" on="1"/>
        <pt x="748" y="646" on="0"/>
        <pt x="800" y="517" on="0"/>
        <pt x="800" y="447" on="1"/>
        <pt x="800" y="402" on="0"/>
        <pt x="779" y="311" on="0"/>
        <pt x="742" y="226" on="0"/>
        <pt x="691" y="151" on="0"/>
        <pt x="661" y="121" on="1"/>
        <pt x="591" y="52" on="0"/>
        <pt x="421" y="0" on="0"/>
        <pt x="324" y="0" on="1"/>
        <pt x="-26" y="0" on="1"/>
        <pt x="-15" y="40" on="1"/>
        <pt x="17" y="40" on="0"/>
        <pt x="60" y="48" on="0"/>
        <pt x="89" y="73" on="0"/>
        <pt x="110" y="119" on="0"/>
        <pt x="120" y="158" on="1"/>
        <pt x="174" y="366" on="1"/>
        <pt x="81" y="366" on="1"/>
        <pt x="94" y="416" on="1"/>
        <pt x="187" y="416" on="1"/>
        <pt x="235" y="600" on="1"/>
        <pt x="237" y="607" on="0"/>
        <pt x="244" y="629" on="0"/>
        <pt x="252" y="655" on="0"/>
        <pt x="257" y="679" on="0"/>
        <pt x="257" y="688" on="1"/>
        <pt x="257" y="703" on="0"/>
        <pt x="240" y="719" on="0"/>
        <pt x="215" y="728" on="0"/>
        <pt x="186" y="730" on="0"/>
        <pt x="174" y="730" on="1"/>
        <pt x="155" y="730" on="1"/>
      </contour>
      <contour>
        <pt x="290" y="416" on="1"/>
        <pt x="404" y="416" on="1"/>
        <pt x="391" y="366" on="1"/>
        <pt x="276" y="366" on="1"/>
        <pt x="240" y="231" on="1"/>
        <pt x="232" y="201" on="0"/>
        <pt x="222" y="162" on="0"/>
        <pt x="217" y="137" on="0"/>
        <pt x="215" y="123" on="0"/>
        <pt x="215" y="118" on="1"/>
        <pt x="215" y="91" on="0"/>
        <pt x="238" y="62" on="0"/>
        <pt x="270" y="47" on="0"/>
        <pt x="304" y="44" on="0"/>
        <pt x="315" y="44" on="1"/>
        <pt x="380" y="44" on="0"/>
        <pt x="486" y="80" on="0"/>
        <pt x="568" y="143" on="0"/>
        <pt x="627" y="225" on="0"/>
        <pt x="666" y="317" on="0"/>
        <pt x="684" y="412" on="0"/>
        <pt x="684" y="457" on="1"/>
        <pt x="684" y="583" on="0"/>
        <pt x="549" y="720" on="0"/>
        <pt x="431" y="720" on="1"/>
        <pt x="402" y="720" on="0"/>
        <pt x="367" y="703" on="0"/>
        <pt x="358" y="669" on="1"/>
      </contour>
    </TTGlyph>
    <TTGlyph name="Ddotbelow" xMin="-29" yMin="-232" xMax="797" yMax="770">
      <contour>
        <pt x="165" y="770" on="1"/>
        <pt x="436" y="770" on="1"/>
        <pt x="505" y="770" on="0"/>
        <pt x="635" y="737" on="0"/>
        <pt x="688" y="693" on="1"/>
        <pt x="745" y="646" on="0"/>
        <pt x="797" y="517" on="0"/>
        <pt x="797" y="447" on="1"/>
        <pt x="797" y="402" on="0"/>
        <pt x="776" y="311" on="0"/>
        <pt x="739" y="226" on="0"/>
        <pt x="688" y="151" on="0"/>
        <pt x="658" y="121" on="1"/>
        <pt x="588" y="52" on="0"/>
        <pt x="418" y="0" on="0"/>
        <pt x="321" y="0" on="1"/>
        <pt x="-29" y="0" on="1"/>
        <pt x="-18" y="40" on="1"/>
        <pt x="14" y="40" on="0"/>
        <pt x="57" y="48" on="0"/>
        <pt x="86" y="73" on="0"/>
        <pt x="107" y="119" on="0"/>
        <pt x="117" y="158" on="1"/>
        <pt x="232" y="600" on="1"/>
        <pt x="234" y="607" on="0"/>
        <pt x="241" y="629" on="0"/>
        <pt x="249" y="655" on="0"/>
        <pt x="254" y="679" on="0"/>
        <pt x="254" y="688" on="1"/>
        <pt x="254" y="703" on="0"/>
        <pt x="237" y="719" on="0"/>
        <pt x="212" y="728" on="0"/>
        <pt x="183" y="730" on="0"/>
        <pt x="171" y="730" on="1"/>
        <pt x="152" y="730" on="1"/>
      </contour>
      <contour>
        <pt x="237" y="231" on="1"/>
        <pt x="229" y="201" on="0"/>
        <pt x="219" y="162" on="0"/>
        <pt x="214" y="137" on="0"/>
        <pt x="212" y="123" on="0"/>
        <pt x="212" y="118" on="1"/>
        <pt x="212" y="91" on="0"/>
        <pt x="235" y="62" on="0"/>
        <pt x="267" y="47" on="0"/>
        <pt x="301" y="44" on="0"/>
        <pt x="312" y="44" on="1"/>
        <pt x="377" y="44" on="0"/>
        <pt x="483" y="80" on="0"/>
        <pt x="565" y="143" on="0"/>
        <pt x="624" y="225" on="0"/>
        <pt x="663" y="317" on="0"/>
        <pt x="681" y="412" on="0"/>
        <pt x="681" y="457" on="1"/>
        <pt x="681" y="583" on="0"/>
        <pt x="546" y="720" on="0"/>
        <pt x="428" y="720" on="1"/>
        <pt x="399" y="720" on="0"/>
        <pt x="364" y="703" on="0"/>
        <pt x="355" y="669" on="1"/>
      </contour>
      <contour>
        <pt x="229" y="-170" on="1"/>
        <pt x="229" y="-144" on="0"/>
        <pt x="265" y="-108" on="0"/>
        <pt x="291" y="-108" on="1"/>
        <pt x="317" y="-108" on="0"/>
        <pt x="353" y="-144" on="0"/>
        <pt x="353" y="-170" on="1"/>
        <pt x="353" y="-196" on="0"/>
        <pt x="317" y="-232" on="0"/>
        <pt x="291" y="-232" on="1"/>
        <pt x="265" y="-232" on="0"/>
        <pt x="229" y="-196" on="0"/>
      </contour>
    </TTGlyph>
    <TTGlyph name="E" xMin="-26" yMin="0" xMax="706" yMax="770">
      <contour>
        <pt x="-15" y="40" on="1"/>
        <pt x="18" y="40" on="0"/>
        <pt x="61" y="50" on="0"/>
        <pt x="90" y="77" on="0"/>
        <pt x="110" y="122" on="0"/>
        <pt x="119" y="158" on="1"/>
        <pt x="235" y="599" on="1"/>
        <pt x="242" y="625" on="0"/>
        <pt x="249" y="663" on="0"/>
        <pt x="249" y="677" on="1"/>
        <pt x="249" y="710" on="0"/>
        <pt x="203" y="730" on="0"/>
        <pt x="149" y="730" on="1"/>
        <pt x="160" y="770" on="1"/>
        <pt x="706" y="770" on="1"/>
        <pt x="706" y="568" on="1"/>
        <pt x="668" y="568" on="1"/>
        <pt x="655" y="616" on="0"/>
        <pt x="623" y="677" on="0"/>
        <pt x="582" y="712" on="0"/>
        <pt x="531" y="726" on="0"/>
        <pt x="500" y="726" on="1"/>
        <pt x="370" y="726" on="1"/>
        <pt x="292" y="429" on="1"/>
        <pt x="355" y="429" on="1"/>
        <pt x="382" y="429" on="0"/>
        <pt x="420" y="439" on="0"/>
        <pt x="451" y="464" on="0"/>
        <pt x="478" y="508" on="0"/>
        <pt x="494" y="543" on="1"/>
        <pt x="531" y="543" on="1"/>
        <pt x="471" y="247" on="1"/>
        <pt x="431" y="247" on="1"/>
        <pt x="434" y="277" on="0"/>
        <pt x="434" y="299" on="1"/>
        <pt x="434" y="344" on="0"/>
        <pt x="400" y="385" on="0"/>
        <pt x="354" y="385" on="1"/>
        <pt x="279" y="385" on="1"/>
        <pt x="222" y="170" on="1"/>
        <pt x="213" y="137" on="0"/>
        <pt x="213" y="114" on="1"/>
        <pt x="213" y="78" on="0"/>
        <pt x="277" y="43" on="0"/>
        <pt x="355" y="43" on="1"/>
        <pt x="412" y="43" on="0"/>
        <pt x="497" y="61" on="0"/>
        <pt x="560" y="100" on="0"/>
        <pt x="607" y="164" on="0"/>
        <pt x="628" y="211" on="1"/>
        <pt x="675" y="211" on="1"/>
        <pt x="597" y="0" on="1"/>
        <pt x="-26" y="0" on="1"/>
      </contour>
    </TTGlyph>
    <TTGlyph name="Eacute" xMin="-26" yMin="0" xMax="706" yMax="960">
      <contour>
        <pt x="-15" y="40" on="1"/>
        <pt x="18" y="40" on="0"/>
        <pt x="61" y="50" on="0"/>
        <pt x="90" y="77" on="0"/>
        <pt x="110" y="122" on="0"/>
        <pt x="119" y="158" on="1"/>
        <pt x="235" y="599" on="1"/>
        <pt x="242" y="625" on="0"/>
        <pt x="249" y="663" on="0"/>
        <pt x="249" y="677" on="1"/>
        <pt x="249" y="710" on="0"/>
        <pt x="203" y="730" on="0"/>
        <pt x="149" y="730" on="1"/>
        <pt x="160" y="770" on="1"/>
        <pt x="706" y="770" on="1"/>
        <pt x="706" y="568" on="1"/>
        <pt x="668" y="568" on="1"/>
        <pt x="655" y="616" on="0"/>
        <pt x="623" y="677" on="0"/>
        <pt x="582" y="712" on="0"/>
        <pt x="531" y="726" on="0"/>
        <pt x="500" y="726" on="1"/>
        <pt x="370" y="726" on="1"/>
        <pt x="292" y="429" on="1"/>
        <pt x="355" y="429" on="1"/>
        <pt x="382" y="429" on="0"/>
        <pt x="420" y="439" on="0"/>
        <pt x="451" y="464" on="0"/>
        <pt x="478" y="508" on="0"/>
        <pt x="494" y="543" on="1"/>
        <pt x="531" y="543" on="1"/>
        <pt x="471" y="247" on="1"/>
        <pt x="431" y="247" on="1"/>
        <pt x="434" y="277" on="0"/>
        <pt x="434" y="299" on="1"/>
        <pt x="434" y="344" on="0"/>
        <pt x="400" y="385" on="0"/>
        <pt x="354" y="385" on="1"/>
        <pt x="279" y="385" on="1"/>
        <pt x="222" y="170" on="1"/>
        <pt x="213" y="137" on="0"/>
        <pt x="213" y="114" on="1"/>
        <pt x="213" y="78" on="0"/>
        <pt x="277" y="43" on="0"/>
        <pt x="355" y="43" on="1"/>
        <pt x="412" y="43" on="0"/>
        <pt x="497" y="61" on="0"/>
        <pt x="560" y="100" on="0"/>
        <pt x="607" y="164" on="0"/>
        <pt x="628" y="211" on="1"/>
        <pt x="675" y="211" on="1"/>
        <pt x="597" y="0" on="1"/>
        <pt x="-26" y="0" on="1"/>
      </contour>
      <contour>
        <pt x="378" y="850" on="1"/>
        <pt x="528" y="927" on="1"/>
        <pt x="560" y="944" on="0"/>
        <pt x="604" y="960" on="0"/>
        <pt x="624" y="960" on="1"/>
        <pt x="654" y="960" on="0"/>
        <pt x="654" y="935" on="1"/>
        <pt x="654" y="915" on="0"/>
        <pt x="608" y="887" on="0"/>
        <pt x="565" y="878" on="1"/>
        <pt x="438" y="850" on="1"/>
      </contour>
    </TTGlyph>
    <TTGlyph name="Ebreve" xMin="-26" yMin="0" xMax="706" yMax="960">
      <contour>
        <pt x="-15" y="40" on="1"/>
        <pt x="18" y="40" on="0"/>
        <pt x="61" y="50" on="0"/>
        <pt x="90" y="77" on="0"/>
        <pt x="110" y="122" on="0"/>
        <pt x="119" y="158" on="1"/>
        <pt x="235" y="599" on="1"/>
        <pt x="242" y="625" on="0"/>
        <pt x="249" y="663" on="0"/>
        <pt x="249" y="677" on="1"/>
        <pt x="249" y="710" on="0"/>
        <pt x="203" y="730" on="0"/>
        <pt x="149" y="730" on="1"/>
        <pt x="160" y="770" on="1"/>
        <pt x="706" y="770" on="1"/>
        <pt x="706" y="568" on="1"/>
        <pt x="668" y="568" on="1"/>
        <pt x="655" y="616" on="0"/>
        <pt x="623" y="677" on="0"/>
        <pt x="582" y="712" on="0"/>
        <pt x="531" y="726" on="0"/>
        <pt x="500" y="726" on="1"/>
        <pt x="370" y="726" on="1"/>
        <pt x="292" y="429" on="1"/>
        <pt x="355" y="429" on="1"/>
        <pt x="382" y="429" on="0"/>
        <pt x="420" y="439" on="0"/>
        <pt x="451" y="464" on="0"/>
        <pt x="478" y="508" on="0"/>
        <pt x="494" y="543" on="1"/>
        <pt x="531" y="543" on="1"/>
        <pt x="471" y="247" on="1"/>
        <pt x="431" y="247" on="1"/>
        <pt x="434" y="277" on="0"/>
        <pt x="434" y="299" on="1"/>
        <pt x="434" y="344" on="0"/>
        <pt x="400" y="385" on="0"/>
        <pt x="354" y="385" on="1"/>
        <pt x="279" y="385" on="1"/>
        <pt x="222" y="170" on="1"/>
        <pt x="213" y="137" on="0"/>
        <pt x="213" y="114" on="1"/>
        <pt x="213" y="78" on="0"/>
        <pt x="277" y="43" on="0"/>
        <pt x="355" y="43" on="1"/>
        <pt x="412" y="43" on="0"/>
        <pt x="497" y="61" on="0"/>
        <pt x="560" y="100" on="0"/>
        <pt x="607" y="164" on="0"/>
        <pt x="628" y="211" on="1"/>
        <pt x="675" y="211" on="1"/>
        <pt x="597" y="0" on="1"/>
        <pt x="-26" y="0" on="1"/>
      </contour>
      <contour>
        <pt x="654" y="960" on="1"/>
        <pt x="645" y="935" on="0"/>
        <pt x="611" y="893" on="0"/>
        <pt x="566" y="862" on="0"/>
        <pt x="513" y="845" on="0"/>
        <pt x="485" y="845" on="1"/>
        <pt x="434" y="845" on="0"/>
        <pt x="375" y="895" on="0"/>
        <pt x="375" y="935" on="1"/>
        <pt x="375" y="946" on="0"/>
        <pt x="378" y="960" on="1"/>
        <pt x="414" y="960" on="1"/>
        <pt x="416" y="939" on="0"/>
        <pt x="465" y="914" on="0"/>
        <pt x="503" y="914" on="1"/>
        <pt x="541" y="914" on="0"/>
        <pt x="603" y="939" on="0"/>
        <pt x="617" y="960" on="1"/>
      </contour>
    </TTGlyph>
    <TTGlyph name="Ecaron" xMin="-26" yMin="0" xMax="706" yMax="960">
      <contour>
        <pt x="-15" y="40" on="1"/>
        <pt x="18" y="40" on="0"/>
        <pt x="61" y="50" on="0"/>
        <pt x="90" y="77" on="0"/>
        <pt x="110" y="122" on="0"/>
        <pt x="119" y="158" on="1"/>
        <pt x="235" y="599" on="1"/>
        <pt x="242" y="625" on="0"/>
        <pt x="249" y="663" on="0"/>
        <pt x="249" y="677" on="1"/>
        <pt x="249" y="710" on="0"/>
        <pt x="203" y="730" on="0"/>
        <pt x="149" y="730" on="1"/>
        <pt x="160" y="770" on="1"/>
        <pt x="706" y="770" on="1"/>
        <pt x="706" y="568" on="1"/>
        <pt x="668" y="568" on="1"/>
        <pt x="655" y="616" on="0"/>
        <pt x="623" y="677" on="0"/>
        <pt x="582" y="712" on="0"/>
        <pt x="531" y="726" on="0"/>
        <pt x="500" y="726" on="1"/>
        <pt x="370" y="726" on="1"/>
        <pt x="292" y="429" on="1"/>
        <pt x="355" y="429" on="1"/>
        <pt x="382" y="429" on="0"/>
        <pt x="420" y="439" on="0"/>
        <pt x="451" y="464" on="0"/>
        <pt x="478" y="508" on="0"/>
        <pt x="494" y="543" on="1"/>
        <pt x="531" y="543" on="1"/>
        <pt x="471" y="247" on="1"/>
        <pt x="431" y="247" on="1"/>
        <pt x="434" y="277" on="0"/>
        <pt x="434" y="299" on="1"/>
        <pt x="434" y="344" on="0"/>
        <pt x="400" y="385" on="0"/>
        <pt x="354" y="385" on="1"/>
        <pt x="279" y="385" on="1"/>
        <pt x="222" y="170" on="1"/>
        <pt x="213" y="137" on="0"/>
        <pt x="213" y="114" on="1"/>
        <pt x="213" y="78" on="0"/>
        <pt x="277" y="43" on="0"/>
        <pt x="355" y="43" on="1"/>
        <pt x="412" y="43" on="0"/>
        <pt x="497" y="61" on="0"/>
        <pt x="560" y="100" on="0"/>
        <pt x="607" y="164" on="0"/>
        <pt x="628" y="211" on="1"/>
        <pt x="675" y="211" on="1"/>
        <pt x="597" y="0" on="1"/>
        <pt x="-26" y="0" on="1"/>
      </contour>
      <contour>
        <pt x="423" y="851" on="1"/>
        <pt x="343" y="960" on="1"/>
        <pt x="388" y="960" on="1"/>
        <pt x="493" y="906" on="1"/>
        <pt x="626" y="960" on="1"/>
        <pt x="671" y="960" on="1"/>
        <pt x="533" y="851" on="1"/>
      </contour>
    </TTGlyph>
    <TTGlyph name="Ecircumflex" xMin="-26" yMin="0" xMax="706" yMax="960">
      <contour>
        <pt x="-15" y="40" on="1"/>
        <pt x="18" y="40" on="0"/>
        <pt x="61" y="50" on="0"/>
        <pt x="90" y="77" on="0"/>
        <pt x="110" y="122" on="0"/>
        <pt x="119" y="158" on="1"/>
        <pt x="235" y="599" on="1"/>
        <pt x="242" y="625" on="0"/>
        <pt x="249" y="663" on="0"/>
        <pt x="249" y="677" on="1"/>
        <pt x="249" y="710" on="0"/>
        <pt x="203" y="730" on="0"/>
        <pt x="149" y="730" on="1"/>
        <pt x="160" y="770" on="1"/>
        <pt x="706" y="770" on="1"/>
        <pt x="706" y="568" on="1"/>
        <pt x="668" y="568" on="1"/>
        <pt x="655" y="616" on="0"/>
        <pt x="623" y="677" on="0"/>
        <pt x="582" y="712" on="0"/>
        <pt x="531" y="726" on="0"/>
        <pt x="500" y="726" on="1"/>
        <pt x="370" y="726" on="1"/>
        <pt x="292" y="429" on="1"/>
        <pt x="355" y="429" on="1"/>
        <pt x="382" y="429" on="0"/>
        <pt x="420" y="439" on="0"/>
        <pt x="451" y="464" on="0"/>
        <pt x="478" y="508" on="0"/>
        <pt x="494" y="543" on="1"/>
        <pt x="531" y="543" on="1"/>
        <pt x="471" y="247" on="1"/>
        <pt x="431" y="247" on="1"/>
        <pt x="434" y="277" on="0"/>
        <pt x="434" y="299" on="1"/>
        <pt x="434" y="344" on="0"/>
        <pt x="400" y="385" on="0"/>
        <pt x="354" y="385" on="1"/>
        <pt x="279" y="385" on="1"/>
        <pt x="222" y="170" on="1"/>
        <pt x="213" y="137" on="0"/>
        <pt x="213" y="114" on="1"/>
        <pt x="213" y="78" on="0"/>
        <pt x="277" y="43" on="0"/>
        <pt x="355" y="43" on="1"/>
        <pt x="412" y="43" on="0"/>
        <pt x="497" y="61" on="0"/>
        <pt x="560" y="100" on="0"/>
        <pt x="607" y="164" on="0"/>
        <pt x="628" y="211" on="1"/>
        <pt x="675" y="211" on="1"/>
        <pt x="597" y="0" on="1"/>
        <pt x="-26" y="0" on="1"/>
      </contour>
      <contour>
        <pt x="562" y="960" on="1"/>
        <pt x="642" y="851" on="1"/>
        <pt x="597" y="851" on="1"/>
        <pt x="492" y="905" on="1"/>
        <pt x="359" y="851" on="1"/>
        <pt x="314" y="851" on="1"/>
        <pt x="452" y="960" on="1"/>
      </contour>
    </TTGlyph>
    <TTGlyph name="Edieresis" xMin="-26" yMin="0" xMax="706" yMax="960">
      <contour>
        <pt x="-15" y="40" on="1"/>
        <pt x="18" y="40" on="0"/>
        <pt x="61" y="50" on="0"/>
        <pt x="90" y="77" on="0"/>
        <pt x="110" y="122" on="0"/>
        <pt x="119" y="158" on="1"/>
        <pt x="235" y="599" on="1"/>
        <pt x="242" y="625" on="0"/>
        <pt x="249" y="663" on="0"/>
        <pt x="249" y="677" on="1"/>
        <pt x="249" y="710" on="0"/>
        <pt x="203" y="730" on="0"/>
        <pt x="149" y="730" on="1"/>
        <pt x="160" y="770" on="1"/>
        <pt x="706" y="770" on="1"/>
        <pt x="706" y="568" on="1"/>
        <pt x="668" y="568" on="1"/>
        <pt x="655" y="616" on="0"/>
        <pt x="623" y="677" on="0"/>
        <pt x="582" y="712" on="0"/>
        <pt x="531" y="726" on="0"/>
        <pt x="500" y="726" on="1"/>
        <pt x="370" y="726" on="1"/>
        <pt x="292" y="429" on="1"/>
        <pt x="355" y="429" on="1"/>
        <pt x="382" y="429" on="0"/>
        <pt x="420" y="439" on="0"/>
        <pt x="451" y="464" on="0"/>
        <pt x="478" y="508" on="0"/>
        <pt x="494" y="543" on="1"/>
        <pt x="531" y="543" on="1"/>
        <pt x="471" y="247" on="1"/>
        <pt x="431" y="247" on="1"/>
        <pt x="434" y="277" on="0"/>
        <pt x="434" y="299" on="1"/>
        <pt x="434" y="344" on="0"/>
        <pt x="400" y="385" on="0"/>
        <pt x="354" y="385" on="1"/>
        <pt x="279" y="385" on="1"/>
        <pt x="222" y="170" on="1"/>
        <pt x="213" y="137" on="0"/>
        <pt x="213" y="114" on="1"/>
        <pt x="213" y="78" on="0"/>
        <pt x="277" y="43" on="0"/>
        <pt x="355" y="43" on="1"/>
        <pt x="412" y="43" on="0"/>
        <pt x="497" y="61" on="0"/>
        <pt x="560" y="100" on="0"/>
        <pt x="607" y="164" on="0"/>
        <pt x="628" y="211" on="1"/>
        <pt x="675" y="211" on="1"/>
        <pt x="597" y="0" on="1"/>
        <pt x="-26" y="0" on="1"/>
      </contour>
      <contour>
        <pt x="352" y="910" on="1"/>
        <pt x="357" y="931" on="0"/>
        <pt x="394" y="960" on="0"/>
        <pt x="415" y="960" on="1"/>
        <pt x="433" y="960" on="0"/>
        <pt x="455" y="939" on="0"/>
        <pt x="455" y="923" on="1"/>
        <pt x="455" y="910" on="0"/>
        <pt x="443" y="887" on="0"/>
        <pt x="424" y="869" on="0"/>
        <pt x="400" y="859" on="0"/>
        <pt x="388" y="859" on="1"/>
        <pt x="371" y="859" on="0"/>
        <pt x="350" y="879" on="0"/>
        <pt x="350" y="895" on="1"/>
        <pt x="350" y="905" on="0"/>
      </contour>
      <contour>
        <pt x="534" y="910" on="1"/>
        <pt x="539" y="931" on="0"/>
        <pt x="576" y="960" on="0"/>
        <pt x="598" y="960" on="1"/>
        <pt x="615" y="960" on="0"/>
        <pt x="637" y="939" on="0"/>
        <pt x="637" y="923" on="1"/>
        <pt x="637" y="910" on="0"/>
        <pt x="625" y="887" on="0"/>
        <pt x="606" y="869" on="0"/>
        <pt x="583" y="859" on="0"/>
        <pt x="571" y="859" on="1"/>
        <pt x="553" y="859" on="0"/>
        <pt x="532" y="879" on="0"/>
        <pt x="532" y="895" on="1"/>
        <pt x="532" y="905" on="0"/>
      </contour>
    </TTGlyph>
    <TTGlyph name="Edotaccent" xMin="-26" yMin="0" xMax="706" yMax="959">
      <contour>
        <pt x="-15" y="40" on="1"/>
        <pt x="18" y="40" on="0"/>
        <pt x="61" y="50" on="0"/>
        <pt x="90" y="77" on="0"/>
        <pt x="110" y="122" on="0"/>
        <pt x="119" y="158" on="1"/>
        <pt x="235" y="599" on="1"/>
        <pt x="242" y="625" on="0"/>
        <pt x="249" y="663" on="0"/>
        <pt x="249" y="677" on="1"/>
        <pt x="249" y="710" on="0"/>
        <pt x="203" y="730" on="0"/>
        <pt x="149" y="730" on="1"/>
        <pt x="160" y="770" on="1"/>
        <pt x="706" y="770" on="1"/>
        <pt x="706" y="568" on="1"/>
        <pt x="668" y="568" on="1"/>
        <pt x="655" y="616" on="0"/>
        <pt x="623" y="677" on="0"/>
        <pt x="582" y="712" on="0"/>
        <pt x="531" y="726" on="0"/>
        <pt x="500" y="726" on="1"/>
        <pt x="370" y="726" on="1"/>
        <pt x="292" y="429" on="1"/>
        <pt x="355" y="429" on="1"/>
        <pt x="382" y="429" on="0"/>
        <pt x="420" y="439" on="0"/>
        <pt x="451" y="464" on="0"/>
        <pt x="478" y="508" on="0"/>
        <pt x="494" y="543" on="1"/>
        <pt x="531" y="543" on="1"/>
        <pt x="471" y="247" on="1"/>
        <pt x="431" y="247" on="1"/>
        <pt x="434" y="277" on="0"/>
        <pt x="434" y="299" on="1"/>
        <pt x="434" y="344" on="0"/>
        <pt x="400" y="385" on="0"/>
        <pt x="354" y="385" on="1"/>
        <pt x="279" y="385" on="1"/>
        <pt x="222" y="170" on="1"/>
        <pt x="213" y="137" on="0"/>
        <pt x="213" y="114" on="1"/>
        <pt x="213" y="78" on="0"/>
        <pt x="277" y="43" on="0"/>
        <pt x="355" y="43" on="1"/>
        <pt x="412" y="43" on="0"/>
        <pt x="497" y="61" on="0"/>
        <pt x="560" y="100" on="0"/>
        <pt x="607" y="164" on="0"/>
        <pt x="628" y="211" on="1"/>
        <pt x="675" y="211" on="1"/>
        <pt x="597" y="0" on="1"/>
        <pt x="-26" y="0" on="1"/>
      </contour>
      <contour>
        <pt x="456" y="904" on="1"/>
        <pt x="456" y="927" on="0"/>
        <pt x="487" y="959" on="0"/>
        <pt x="508" y="959" on="1"/>
        <pt x="531" y="959" on="0"/>
        <pt x="563" y="927" on="0"/>
        <pt x="563" y="904" on="1"/>
        <pt x="563" y="883" on="0"/>
        <pt x="531" y="852" on="0"/>
        <pt x="508" y="852" on="1"/>
        <pt x="487" y="852" on="0"/>
        <pt x="456" y="883" on="0"/>
      </contour>
    </TTGlyph>
    <TTGlyph name="Edotbelow" xMin="-26" yMin="-230" xMax="706" yMax="770">
      <contour>
        <pt x="-15" y="40" on="1"/>
        <pt x="18" y="40" on="0"/>
        <pt x="61" y="50" on="0"/>
        <pt x="90" y="77" on="0"/>
        <pt x="110" y="122" on="0"/>
        <pt x="119" y="158" on="1"/>
        <pt x="235" y="599" on="1"/>
        <pt x="242" y="625" on="0"/>
        <pt x="249" y="663" on="0"/>
        <pt x="249" y="677" on="1"/>
        <pt x="249" y="710" on="0"/>
        <pt x="203" y="730" on="0"/>
        <pt x="149" y="730" on="1"/>
        <pt x="160" y="770" on="1"/>
        <pt x="706" y="770" on="1"/>
        <pt x="706" y="568" on="1"/>
        <pt x="668" y="568" on="1"/>
        <pt x="655" y="616" on="0"/>
        <pt x="623" y="677" on="0"/>
        <pt x="582" y="712" on="0"/>
        <pt x="531" y="726" on="0"/>
        <pt x="500" y="726" on="1"/>
        <pt x="370" y="726" on="1"/>
        <pt x="292" y="429" on="1"/>
        <pt x="355" y="429" on="1"/>
        <pt x="382" y="429" on="0"/>
        <pt x="420" y="439" on="0"/>
        <pt x="451" y="464" on="0"/>
        <pt x="478" y="508" on="0"/>
        <pt x="494" y="543" on="1"/>
        <pt x="531" y="543" on="1"/>
        <pt x="471" y="247" on="1"/>
        <pt x="431" y="247" on="1"/>
        <pt x="434" y="277" on="0"/>
        <pt x="434" y="299" on="1"/>
        <pt x="434" y="344" on="0"/>
        <pt x="400" y="385" on="0"/>
        <pt x="354" y="385" on="1"/>
        <pt x="279" y="385" on="1"/>
        <pt x="222" y="170" on="1"/>
        <pt x="213" y="137" on="0"/>
        <pt x="213" y="114" on="1"/>
        <pt x="213" y="78" on="0"/>
        <pt x="277" y="43" on="0"/>
        <pt x="355" y="43" on="1"/>
        <pt x="412" y="43" on="0"/>
        <pt x="497" y="61" on="0"/>
        <pt x="560" y="100" on="0"/>
        <pt x="607" y="164" on="0"/>
        <pt x="628" y="211" on="1"/>
        <pt x="675" y="211" on="1"/>
        <pt x="597" y="0" on="1"/>
        <pt x="-26" y="0" on="1"/>
      </contour>
      <contour>
        <pt x="240" y="-168" on="1"/>
        <pt x="240" y="-142" on="0"/>
        <pt x="276" y="-106" on="0"/>
        <pt x="302" y="-106" on="1"/>
        <pt x="328" y="-106" on="0"/>
        <pt x="364" y="-142" on="0"/>
        <pt x="364" y="-168" on="1"/>
        <pt x="364" y="-194" on="0"/>
        <pt x="328" y="-230" on="0"/>
        <pt x="302" y="-230" on="1"/>
        <pt x="276" y="-230" on="0"/>
        <pt x="240" y="-194" on="0"/>
      </contour>
    </TTGlyph>
    <TTGlyph name="Egrave" xMin="-26" yMin="0" xMax="706" yMax="960">
      <contour>
        <pt x="-15" y="40" on="1"/>
        <pt x="18" y="40" on="0"/>
        <pt x="61" y="50" on="0"/>
        <pt x="90" y="77" on="0"/>
        <pt x="110" y="122" on="0"/>
        <pt x="119" y="158" on="1"/>
        <pt x="235" y="599" on="1"/>
        <pt x="242" y="625" on="0"/>
        <pt x="249" y="663" on="0"/>
        <pt x="249" y="677" on="1"/>
        <pt x="249" y="710" on="0"/>
        <pt x="203" y="730" on="0"/>
        <pt x="149" y="730" on="1"/>
        <pt x="160" y="770" on="1"/>
        <pt x="706" y="770" on="1"/>
        <pt x="706" y="568" on="1"/>
        <pt x="668" y="568" on="1"/>
        <pt x="655" y="616" on="0"/>
        <pt x="623" y="677" on="0"/>
        <pt x="582" y="712" on="0"/>
        <pt x="531" y="726" on="0"/>
        <pt x="500" y="726" on="1"/>
        <pt x="370" y="726" on="1"/>
        <pt x="292" y="429" on="1"/>
        <pt x="355" y="429" on="1"/>
        <pt x="382" y="429" on="0"/>
        <pt x="420" y="439" on="0"/>
        <pt x="451" y="464" on="0"/>
        <pt x="478" y="508" on="0"/>
        <pt x="494" y="543" on="1"/>
        <pt x="531" y="543" on="1"/>
        <pt x="471" y="247" on="1"/>
        <pt x="431" y="247" on="1"/>
        <pt x="434" y="277" on="0"/>
        <pt x="434" y="299" on="1"/>
        <pt x="434" y="344" on="0"/>
        <pt x="400" y="385" on="0"/>
        <pt x="354" y="385" on="1"/>
        <pt x="279" y="385" on="1"/>
        <pt x="222" y="170" on="1"/>
        <pt x="213" y="137" on="0"/>
        <pt x="213" y="114" on="1"/>
        <pt x="213" y="78" on="0"/>
        <pt x="277" y="43" on="0"/>
        <pt x="355" y="43" on="1"/>
        <pt x="412" y="43" on="0"/>
        <pt x="497" y="61" on="0"/>
        <pt x="560" y="100" on="0"/>
        <pt x="607" y="164" on="0"/>
        <pt x="628" y="211" on="1"/>
        <pt x="675" y="211" on="1"/>
        <pt x="597" y="0" on="1"/>
        <pt x="-26" y="0" on="1"/>
      </contour>
      <contour>
        <pt x="524" y="850" on="1"/>
        <pt x="411" y="878" on="1"/>
        <pt x="382" y="885" on="0"/>
        <pt x="348" y="905" on="0"/>
        <pt x="348" y="919" on="1"/>
        <pt x="348" y="938" on="0"/>
        <pt x="379" y="960" on="0"/>
        <pt x="396" y="960" on="1"/>
        <pt x="416" y="960" on="0"/>
        <pt x="451" y="944" on="0"/>
        <pt x="474" y="927" on="1"/>
        <pt x="584" y="850" on="1"/>
      </contour>
    </TTGlyph>
    <TTGlyph name="Emacron" xMin="-26" yMin="0" xMax="706" yMax="930">
      <contour>
        <pt x="-15" y="40" on="1"/>
        <pt x="18" y="40" on="0"/>
        <pt x="61" y="50" on="0"/>
        <pt x="90" y="77" on="0"/>
        <pt x="110" y="122" on="0"/>
        <pt x="119" y="158" on="1"/>
        <pt x="235" y="599" on="1"/>
        <pt x="242" y="625" on="0"/>
        <pt x="249" y="663" on="0"/>
        <pt x="249" y="677" on="1"/>
        <pt x="249" y="710" on="0"/>
        <pt x="203" y="730" on="0"/>
        <pt x="149" y="730" on="1"/>
        <pt x="160" y="770" on="1"/>
        <pt x="706" y="770" on="1"/>
        <pt x="706" y="568" on="1"/>
        <pt x="668" y="568" on="1"/>
        <pt x="655" y="616" on="0"/>
        <pt x="623" y="677" on="0"/>
        <pt x="582" y="712" on="0"/>
        <pt x="531" y="726" on="0"/>
        <pt x="500" y="726" on="1"/>
        <pt x="370" y="726" on="1"/>
        <pt x="292" y="429" on="1"/>
        <pt x="355" y="429" on="1"/>
        <pt x="382" y="429" on="0"/>
        <pt x="420" y="439" on="0"/>
        <pt x="451" y="464" on="0"/>
        <pt x="478" y="508" on="0"/>
        <pt x="494" y="543" on="1"/>
        <pt x="531" y="543" on="1"/>
        <pt x="471" y="247" on="1"/>
        <pt x="431" y="247" on="1"/>
        <pt x="434" y="277" on="0"/>
        <pt x="434" y="299" on="1"/>
        <pt x="434" y="344" on="0"/>
        <pt x="400" y="385" on="0"/>
        <pt x="354" y="385" on="1"/>
        <pt x="279" y="385" on="1"/>
        <pt x="222" y="170" on="1"/>
        <pt x="213" y="137" on="0"/>
        <pt x="213" y="114" on="1"/>
        <pt x="213" y="78" on="0"/>
        <pt x="277" y="43" on="0"/>
        <pt x="355" y="43" on="1"/>
        <pt x="412" y="43" on="0"/>
        <pt x="497" y="61" on="0"/>
        <pt x="560" y="100" on="0"/>
        <pt x="607" y="164" on="0"/>
        <pt x="628" y="211" on="1"/>
        <pt x="675" y="211" on="1"/>
        <pt x="597" y="0" on="1"/>
        <pt x="-26" y="0" on="1"/>
      </contour>
      <contour>
        <pt x="351" y="880" on="1"/>
        <pt x="364" y="930" on="1"/>
        <pt x="634" y="930" on="1"/>
        <pt x="621" y="880" on="1"/>
      </contour>
    </TTGlyph>
    <TTGlyph name="Eng" xMin="-9" yMin="-260" xMax="908" yMax="770">
      <contour>
        <pt x="410" y="-207" on="1"/>
        <pt x="456" y="-207" on="0"/>
        <pt x="532" y="-113" on="0"/>
        <pt x="555" y="-28" on="1"/>
        <pt x="569" y="25" on="1"/>
        <pt x="318" y="602" on="1"/>
        <pt x="314" y="602" on="1"/>
        <pt x="200" y="168" on="1"/>
        <pt x="194" y="144" on="0"/>
        <pt x="194" y="125" on="1"/>
        <pt x="194" y="83" on="0"/>
        <pt x="244" y="41" on="0"/>
        <pt x="289" y="40" on="1"/>
        <pt x="277" y="0" on="1"/>
        <pt x="-9" y="0" on="1"/>
        <pt x="2" y="40" on="1"/>
        <pt x="49" y="40" on="0"/>
        <pt x="123" y="107" on="0"/>
        <pt x="137" y="158" on="1"/>
        <pt x="255" y="602" on="1"/>
        <pt x="259" y="617" on="0"/>
        <pt x="259" y="633" on="1"/>
        <pt x="259" y="681" on="0"/>
        <pt x="178" y="729" on="0"/>
        <pt x="112" y="730" on="1"/>
        <pt x="124" y="770" on="1"/>
        <pt x="359" y="770" on="1"/>
        <pt x="609" y="197" on="1"/>
        <pt x="613" y="197" on="1"/>
        <pt x="719" y="602" on="1"/>
        <pt x="724" y="624" on="0"/>
        <pt x="724" y="639" on="1"/>
        <pt x="724" y="682" on="0"/>
        <pt x="675" y="729" on="0"/>
        <pt x="640" y="730" on="1"/>
        <pt x="652" y="770" on="1"/>
        <pt x="908" y="770" on="1"/>
        <pt x="897" y="730" on="1"/>
        <pt x="878" y="730" on="0"/>
        <pt x="842" y="712" on="0"/>
        <pt x="812" y="681" on="0"/>
        <pt x="789" y="637" on="0"/>
        <pt x="782" y="612" on="1"/>
        <pt x="605" y="-64" on="1"/>
        <pt x="555" y="-260" on="0"/>
        <pt x="400" y="-260" on="1"/>
        <pt x="335" y="-260" on="0"/>
        <pt x="260" y="-197" on="0"/>
        <pt x="260" y="-143" on="1"/>
        <pt x="260" y="-97" on="0"/>
        <pt x="310" y="-34" on="0"/>
        <pt x="347" y="-34" on="1"/>
        <pt x="370" y="-34" on="0"/>
        <pt x="400" y="-64" on="0"/>
        <pt x="400" y="-87" on="1"/>
        <pt x="400" y="-104" on="0"/>
        <pt x="387" y="-122" on="0"/>
        <pt x="371" y="-137" on="0"/>
        <pt x="358" y="-152" on="0"/>
        <pt x="358" y="-164" on="1"/>
        <pt x="358" y="-183" on="0"/>
        <pt x="387" y="-207" on="0"/>
      </contour>
    </TTGlyph>
    <TTGlyph name="Eogonek" xMin="-26" yMin="-234" xMax="706" yMax="770">
      <contour>
        <pt x="-15" y="40" on="1"/>
        <pt x="18" y="40" on="0"/>
        <pt x="61" y="50" on="0"/>
        <pt x="90" y="77" on="0"/>
        <pt x="110" y="122" on="0"/>
        <pt x="119" y="158" on="1"/>
        <pt x="235" y="599" on="1"/>
        <pt x="242" y="625" on="0"/>
        <pt x="249" y="663" on="0"/>
        <pt x="249" y="677" on="1"/>
        <pt x="249" y="710" on="0"/>
        <pt x="203" y="730" on="0"/>
        <pt x="149" y="730" on="1"/>
        <pt x="160" y="770" on="1"/>
        <pt x="706" y="770" on="1"/>
        <pt x="706" y="568" on="1"/>
        <pt x="668" y="568" on="1"/>
        <pt x="655" y="616" on="0"/>
        <pt x="623" y="677" on="0"/>
        <pt x="582" y="712" on="0"/>
        <pt x="531" y="726" on="0"/>
        <pt x="500" y="726" on="1"/>
        <pt x="370" y="726" on="1"/>
        <pt x="292" y="429" on="1"/>
        <pt x="355" y="429" on="1"/>
        <pt x="382" y="429" on="0"/>
        <pt x="420" y="439" on="0"/>
        <pt x="451" y="464" on="0"/>
        <pt x="478" y="508" on="0"/>
        <pt x="494" y="543" on="1"/>
        <pt x="531" y="543" on="1"/>
        <pt x="471" y="247" on="1"/>
        <pt x="431" y="247" on="1"/>
        <pt x="434" y="277" on="0"/>
        <pt x="434" y="299" on="1"/>
        <pt x="434" y="344" on="0"/>
        <pt x="400" y="385" on="0"/>
        <pt x="354" y="385" on="1"/>
        <pt x="279" y="385" on="1"/>
        <pt x="222" y="170" on="1"/>
        <pt x="213" y="137" on="0"/>
        <pt x="213" y="114" on="1"/>
        <pt x="213" y="78" on="0"/>
        <pt x="277" y="43" on="0"/>
        <pt x="355" y="43" on="1"/>
        <pt x="412" y="43" on="0"/>
        <pt x="497" y="61" on="0"/>
        <pt x="560" y="100" on="0"/>
        <pt x="607" y="164" on="0"/>
        <pt x="628" y="211" on="1"/>
        <pt x="675" y="211" on="1"/>
        <pt x="597" y="0" on="1"/>
        <pt x="326" y="0" on="1"/>
        <pt x="276" y="-26" on="0"/>
        <pt x="215" y="-96" on="0"/>
        <pt x="215" y="-126" on="1"/>
        <pt x="215" y="-146" on="0"/>
        <pt x="245" y="-174" on="0"/>
        <pt x="266" y="-174" on="1"/>
        <pt x="285" y="-174" on="0"/>
        <pt x="335" y="-147" on="0"/>
        <pt x="361" y="-121" on="1"/>
        <pt x="390" y="-152" on="1"/>
        <pt x="359" y="-192" on="0"/>
        <pt x="278" y="-234" on="0"/>
        <pt x="233" y="-234" on="1"/>
        <pt x="187" y="-234" on="0"/>
        <pt x="136" y="-189" on="0"/>
        <pt x="136" y="-149" on="1"/>
        <pt x="136" y="-105" on="0"/>
        <pt x="201" y="-28" on="0"/>
        <pt x="261" y="0" on="1"/>
        <pt x="-26" y="0" on="1"/>
      </contour>
    </TTGlyph>
    <TTGlyph name="Eth" xMin="-26" yMin="0" xMax="800" yMax="770">
      <contour>
        <pt x="168" y="770" on="1"/>
        <pt x="439" y="770" on="1"/>
        <pt x="508" y="770" on="0"/>
        <pt x="638" y="737" on="0"/>
        <pt x="691" y="693" on="1"/>
        <pt x="748" y="646" on="0"/>
        <pt x="800" y="517" on="0"/>
        <pt x="800" y="447" on="1"/>
        <pt x="800" y="402" on="0"/>
        <pt x="779" y="311" on="0"/>
        <pt x="742" y="226" on="0"/>
        <pt x="691" y="151" on="0"/>
        <pt x="661" y="121" on="1"/>
        <pt x="591" y="52" on="0"/>
        <pt x="421" y="0" on="0"/>
        <pt x="324" y="0" on="1"/>
        <pt x="-26" y="0" on="1"/>
        <pt x="-15" y="40" on="1"/>
        <pt x="17" y="40" on="0"/>
        <pt x="60" y="48" on="0"/>
        <pt x="89" y="73" on="0"/>
        <pt x="110" y="119" on="0"/>
        <pt x="120" y="158" on="1"/>
        <pt x="174" y="366" on="1"/>
        <pt x="81" y="366" on="1"/>
        <pt x="94" y="416" on="1"/>
        <pt x="187" y="416" on="1"/>
        <pt x="235" y="600" on="1"/>
        <pt x="237" y="607" on="0"/>
        <pt x="244" y="629" on="0"/>
        <pt x="252" y="655" on="0"/>
        <pt x="257" y="679" on="0"/>
        <pt x="257" y="688" on="1"/>
        <pt x="257" y="703" on="0"/>
        <pt x="240" y="719" on="0"/>
        <pt x="215" y="728" on="0"/>
        <pt x="186" y="730" on="0"/>
        <pt x="174" y="730" on="1"/>
        <pt x="155" y="730" on="1"/>
      </contour>
      <contour>
        <pt x="290" y="416" on="1"/>
        <pt x="404" y="416" on="1"/>
        <pt x="391" y="366" on="1"/>
        <pt x="276" y="366" on="1"/>
        <pt x="240" y="231" on="1"/>
        <pt x="232" y="201" on="0"/>
        <pt x="222" y="162" on="0"/>
        <pt x="217" y="137" on="0"/>
        <pt x="215" y="123" on="0"/>
        <pt x="215" y="118" on="1"/>
        <pt x="215" y="91" on="0"/>
        <pt x="238" y="62" on="0"/>
        <pt x="270" y="47" on="0"/>
        <pt x="304" y="44" on="0"/>
        <pt x="315" y="44" on="1"/>
        <pt x="380" y="44" on="0"/>
        <pt x="486" y="80" on="0"/>
        <pt x="568" y="143" on="0"/>
        <pt x="627" y="225" on="0"/>
        <pt x="666" y="317" on="0"/>
        <pt x="684" y="412" on="0"/>
        <pt x="684" y="457" on="1"/>
        <pt x="684" y="583" on="0"/>
        <pt x="549" y="720" on="0"/>
        <pt x="431" y="720" on="1"/>
        <pt x="402" y="720" on="0"/>
        <pt x="367" y="703" on="0"/>
        <pt x="358" y="669" on="1"/>
      </contour>
    </TTGlyph>
    <TTGlyph name="Etilde" xMin="-26" yMin="0" xMax="706" yMax="960">
      <contour>
        <pt x="-15" y="40" on="1"/>
        <pt x="18" y="40" on="0"/>
        <pt x="61" y="50" on="0"/>
        <pt x="90" y="77" on="0"/>
        <pt x="110" y="122" on="0"/>
        <pt x="119" y="158" on="1"/>
        <pt x="235" y="599" on="1"/>
        <pt x="242" y="625" on="0"/>
        <pt x="249" y="663" on="0"/>
        <pt x="249" y="677" on="1"/>
        <pt x="249" y="710" on="0"/>
        <pt x="203" y="730" on="0"/>
        <pt x="149" y="730" on="1"/>
        <pt x="160" y="770" on="1"/>
        <pt x="706" y="770" on="1"/>
        <pt x="706" y="568" on="1"/>
        <pt x="668" y="568" on="1"/>
        <pt x="655" y="616" on="0"/>
        <pt x="623" y="677" on="0"/>
        <pt x="582" y="712" on="0"/>
        <pt x="531" y="726" on="0"/>
        <pt x="500" y="726" on="1"/>
        <pt x="370" y="726" on="1"/>
        <pt x="292" y="429" on="1"/>
        <pt x="355" y="429" on="1"/>
        <pt x="382" y="429" on="0"/>
        <pt x="420" y="439" on="0"/>
        <pt x="451" y="464" on="0"/>
        <pt x="478" y="508" on="0"/>
        <pt x="494" y="543" on="1"/>
        <pt x="531" y="543" on="1"/>
        <pt x="471" y="247" on="1"/>
        <pt x="431" y="247" on="1"/>
        <pt x="434" y="277" on="0"/>
        <pt x="434" y="299" on="1"/>
        <pt x="434" y="344" on="0"/>
        <pt x="400" y="385" on="0"/>
        <pt x="354" y="385" on="1"/>
        <pt x="279" y="385" on="1"/>
        <pt x="222" y="170" on="1"/>
        <pt x="213" y="137" on="0"/>
        <pt x="213" y="114" on="1"/>
        <pt x="213" y="78" on="0"/>
        <pt x="277" y="43" on="0"/>
        <pt x="355" y="43" on="1"/>
        <pt x="412" y="43" on="0"/>
        <pt x="497" y="61" on="0"/>
        <pt x="560" y="100" on="0"/>
        <pt x="607" y="164" on="0"/>
        <pt x="628" y="211" on="1"/>
        <pt x="675" y="211" on="1"/>
        <pt x="597" y="0" on="1"/>
        <pt x="-26" y="0" on="1"/>
      </contour>
      <contour>
        <pt x="324" y="846" on="1"/>
        <pt x="332" y="897" on="0"/>
        <pt x="391" y="960" on="0"/>
        <pt x="429" y="960" on="1"/>
        <pt x="451" y="960" on="0"/>
        <pt x="493" y="946" on="0"/>
        <pt x="533" y="928" on="0"/>
        <pt x="570" y="914" on="0"/>
        <pt x="588" y="914" on="1"/>
        <pt x="605" y="914" on="0"/>
        <pt x="625" y="933" on="0"/>
        <pt x="632" y="956" on="1"/>
        <pt x="665" y="956" on="1"/>
        <pt x="662" y="933" on="0"/>
        <pt x="646" y="891" on="0"/>
        <pt x="620" y="858" on="0"/>
        <pt x="586" y="838" on="0"/>
        <pt x="566" y="838" on="1"/>
        <pt x="544" y="838" on="0"/>
        <pt x="499" y="853" on="0"/>
        <pt x="456" y="871" on="0"/>
        <pt x="416" y="886" on="0"/>
        <pt x="400" y="886" on="1"/>
        <pt x="383" y="886" on="0"/>
        <pt x="365" y="868" on="0"/>
        <pt x="358" y="846" on="1"/>
      </contour>
    </TTGlyph>
    <TTGlyph name="Euro" xMin="43" yMin="-10" xMax="723" yMax="780">
      <contour>
        <pt x="368" y="43" on="1"/>
        <pt x="399" y="43" on="0"/>
        <pt x="457" y="62" on="0"/>
        <pt x="502" y="96" on="0"/>
        <pt x="528" y="141" on="0"/>
        <pt x="528" y="167" on="1"/>
        <pt x="528" y="188" on="0"/>
        <pt x="515" y="212" on="0"/>
        <pt x="502" y="220" on="1"/>
        <pt x="534" y="244" on="0"/>
        <pt x="562" y="244" on="1"/>
        <pt x="588" y="244" on="0"/>
        <pt x="616" y="208" on="0"/>
        <pt x="616" y="173" on="1"/>
        <pt x="616" y="136" on="0"/>
        <pt x="571" y="69" on="0"/>
        <pt x="496" y="19" on="0"/>
        <pt x="400" y="-10" on="0"/>
        <pt x="348" y="-10" on="1"/>
        <pt x="241" y="-10" on="0"/>
        <pt x="124" y="119" on="0"/>
        <pt x="124" y="237" on="1"/>
        <pt x="124" y="250" on="0"/>
        <pt x="125" y="274" on="0"/>
        <pt x="128" y="300" on="1"/>
        <pt x="43" y="300" on="1"/>
        <pt x="57" y="352" on="1"/>
        <pt x="137" y="352" on="1"/>
        <pt x="141" y="372" on="0"/>
        <pt x="155" y="419" on="0"/>
        <pt x="162" y="436" on="1"/>
        <pt x="79" y="436" on="1"/>
        <pt x="91" y="488" on="1"/>
        <pt x="181" y="488" on="1"/>
        <pt x="211" y="555" on="0"/>
        <pt x="293" y="663" on="0"/>
        <pt x="390" y="739" on="0"/>
        <pt x="499" y="780" on="0"/>
        <pt x="555" y="780" on="1"/>
        <pt x="631" y="780" on="0"/>
        <pt x="723" y="705" on="0"/>
        <pt x="723" y="643" on="1"/>
        <pt x="723" y="598" on="0"/>
        <pt x="671" y="544" on="0"/>
        <pt x="628" y="544" on="1"/>
        <pt x="611" y="544" on="0"/>
        <pt x="593" y="554" on="0"/>
        <pt x="587" y="565" on="1"/>
        <pt x="611" y="572" on="0"/>
        <pt x="642" y="620" on="0"/>
        <pt x="642" y="651" on="1"/>
        <pt x="642" y="689" on="0"/>
        <pt x="595" y="729" on="0"/>
        <pt x="551" y="729" on="1"/>
        <pt x="476" y="729" on="0"/>
        <pt x="352" y="607" on="0"/>
        <pt x="306" y="488" on="1"/>
        <pt x="537" y="488" on="1"/>
        <pt x="524" y="436" on="1"/>
        <pt x="290" y="436" on="1"/>
        <pt x="285" y="422" on="0"/>
        <pt x="271" y="374" on="0"/>
        <pt x="266" y="352" on="1"/>
        <pt x="501" y="352" on="1"/>
        <pt x="487" y="300" on="1"/>
        <pt x="254" y="300" on="1"/>
        <pt x="246" y="272" on="0"/>
        <pt x="238" y="218" on="0"/>
        <pt x="238" y="193" on="1"/>
        <pt x="238" y="121" on="0"/>
        <pt x="305" y="43" on="0"/>
      </contour>
    </TTGlyph>
    <TTGlyph name="F" xMin="-26" yMin="0" xMax="706" yMax="770">
      <contour>
        <pt x="-15" y="40" on="1"/>
        <pt x="18" y="40" on="0"/>
        <pt x="61" y="50" on="0"/>
        <pt x="90" y="77" on="0"/>
        <pt x="110" y="122" on="0"/>
        <pt x="119" y="158" on="1"/>
        <pt x="235" y="599" on="1"/>
        <pt x="242" y="625" on="0"/>
        <pt x="249" y="663" on="0"/>
        <pt x="249" y="677" on="1"/>
        <pt x="249" y="710" on="0"/>
        <pt x="203" y="730" on="0"/>
        <pt x="149" y="730" on="1"/>
        <pt x="160" y="770" on="1"/>
        <pt x="706" y="770" on="1"/>
        <pt x="706" y="568" on="1"/>
        <pt x="668" y="568" on="1"/>
        <pt x="655" y="616" on="0"/>
        <pt x="623" y="677" on="0"/>
        <pt x="582" y="712" on="0"/>
        <pt x="531" y="726" on="0"/>
        <pt x="500" y="726" on="1"/>
        <pt x="370" y="726" on="1"/>
        <pt x="292" y="429" on="1"/>
        <pt x="360" y="429" on="1"/>
        <pt x="387" y="429" on="0"/>
        <pt x="425" y="439" on="0"/>
        <pt x="456" y="464" on="0"/>
        <pt x="483" y="508" on="0"/>
        <pt x="499" y="543" on="1"/>
        <pt x="536" y="543" on="1"/>
        <pt x="466" y="227" on="1"/>
        <pt x="426" y="227" on="1"/>
        <pt x="429" y="263" on="0"/>
        <pt x="429" y="289" on="1"/>
        <pt x="429" y="339" on="0"/>
        <pt x="399" y="385" on="0"/>
        <pt x="359" y="385" on="1"/>
        <pt x="279" y="385" on="1"/>
        <pt x="222" y="170" on="1"/>
        <pt x="213" y="137" on="0"/>
        <pt x="213" y="114" on="1"/>
        <pt x="213" y="78" on="0"/>
        <pt x="267" y="43" on="0"/>
        <pt x="335" y="43" on="1"/>
        <pt x="324" y="0" on="1"/>
        <pt x="-26" y="0" on="1"/>
      </contour>
    </TTGlyph>
    <TTGlyph name="G" xMin="73" yMin="-10" xMax="792" yMax="780">
      <contour>
        <pt x="387" y="44" on="1"/>
        <pt x="429" y="44" on="0"/>
        <pt x="500" y="67" on="0"/>
        <pt x="553" y="112" on="0"/>
        <pt x="582" y="178" on="0"/>
        <pt x="582" y="222" on="1"/>
        <pt x="582" y="262" on="0"/>
        <pt x="547" y="300" on="0"/>
        <pt x="497" y="300" on="1"/>
        <pt x="506" y="339" on="1"/>
        <pt x="780" y="339" on="1"/>
        <pt x="770" y="300" on="1"/>
        <pt x="749" y="300" on="0"/>
        <pt x="720" y="294" on="0"/>
        <pt x="698" y="267" on="0"/>
        <pt x="678" y="213" on="0"/>
        <pt x="666" y="166" on="1"/>
        <pt x="658" y="137" on="0"/>
        <pt x="644" y="78" on="0"/>
        <pt x="643" y="49" on="1"/>
        <pt x="620" y="45" on="0"/>
        <pt x="569" y="26" on="0"/>
        <pt x="504" y="6" on="0"/>
        <pt x="420" y="-10" on="0"/>
        <pt x="365" y="-10" on="1"/>
        <pt x="297" y="-10" on="0"/>
        <pt x="189" y="33" on="0"/>
        <pt x="114" y="114" on="0"/>
        <pt x="73" y="229" on="0"/>
        <pt x="73" y="301" on="1"/>
        <pt x="73" y="396" on="0"/>
        <pt x="146" y="569" on="0"/>
        <pt x="269" y="701" on="0"/>
        <pt x="430" y="780" on="0"/>
        <pt x="518" y="780" on="1"/>
        <pt x="572" y="780" on="0"/>
        <pt x="669" y="751" on="0"/>
        <pt x="718" y="720" on="1"/>
        <pt x="755" y="770" on="1"/>
        <pt x="792" y="770" on="1"/>
        <pt x="756" y="550" on="1"/>
        <pt x="718" y="550" on="1"/>
        <pt x="708" y="642" on="0"/>
        <pt x="617" y="728" on="0"/>
        <pt x="526" y="728" on="1"/>
        <pt x="456" y="728" on="0"/>
        <pt x="335" y="662" on="0"/>
        <pt x="245" y="546" on="0"/>
        <pt x="194" y="390" on="0"/>
        <pt x="194" y="300" on="1"/>
        <pt x="194" y="44" on="0"/>
      </contour>
    </TTGlyph>
    <TTGlyph name="Gbreve" xMin="73" yMin="-10" xMax="792" yMax="960">
      <contour>
        <pt x="387" y="44" on="1"/>
        <pt x="429" y="44" on="0"/>
        <pt x="500" y="67" on="0"/>
        <pt x="553" y="112" on="0"/>
        <pt x="582" y="178" on="0"/>
        <pt x="582" y="222" on="1"/>
        <pt x="582" y="262" on="0"/>
        <pt x="547" y="300" on="0"/>
        <pt x="497" y="300" on="1"/>
        <pt x="506" y="339" on="1"/>
        <pt x="780" y="339" on="1"/>
        <pt x="770" y="300" on="1"/>
        <pt x="749" y="300" on="0"/>
        <pt x="720" y="294" on="0"/>
        <pt x="698" y="267" on="0"/>
        <pt x="678" y="213" on="0"/>
        <pt x="666" y="166" on="1"/>
        <pt x="658" y="137" on="0"/>
        <pt x="644" y="78" on="0"/>
        <pt x="643" y="49" on="1"/>
        <pt x="620" y="45" on="0"/>
        <pt x="569" y="26" on="0"/>
        <pt x="504" y="6" on="0"/>
        <pt x="420" y="-10" on="0"/>
        <pt x="365" y="-10" on="1"/>
        <pt x="297" y="-10" on="0"/>
        <pt x="189" y="33" on="0"/>
        <pt x="114" y="114" on="0"/>
        <pt x="73" y="229" on="0"/>
        <pt x="73" y="301" on="1"/>
        <pt x="73" y="396" on="0"/>
        <pt x="146" y="569" on="0"/>
        <pt x="269" y="701" on="0"/>
        <pt x="430" y="780" on="0"/>
        <pt x="518" y="780" on="1"/>
        <pt x="572" y="780" on="0"/>
        <pt x="669" y="751" on="0"/>
        <pt x="718" y="720" on="1"/>
        <pt x="755" y="770" on="1"/>
        <pt x="792" y="770" on="1"/>
        <pt x="756" y="550" on="1"/>
        <pt x="718" y="550" on="1"/>
        <pt x="708" y="642" on="0"/>
        <pt x="617" y="728" on="0"/>
        <pt x="526" y="728" on="1"/>
        <pt x="456" y="728" on="0"/>
        <pt x="335" y="662" on="0"/>
        <pt x="245" y="546" on="0"/>
        <pt x="194" y="390" on="0"/>
        <pt x="194" y="300" on="1"/>
        <pt x="194" y="44" on="0"/>
      </contour>
      <contour>
        <pt x="714" y="960" on="1"/>
        <pt x="705" y="935" on="0"/>
        <pt x="671" y="893" on="0"/>
        <pt x="626" y="862" on="0"/>
        <pt x="573" y="845" on="0"/>
        <pt x="545" y="845" on="1"/>
        <pt x="494" y="845" on="0"/>
        <pt x="435" y="895" on="0"/>
        <pt x="435" y="935" on="1"/>
        <pt x="435" y="946" on="0"/>
        <pt x="438" y="960" on="1"/>
        <pt x="474" y="960" on="1"/>
        <pt x="476" y="939" on="0"/>
        <pt x="525" y="914" on="0"/>
        <pt x="563" y="914" on="1"/>
        <pt x="601" y="914" on="0"/>
        <pt x="663" y="939" on="0"/>
        <pt x="677" y="960" on="1"/>
      </contour>
    </TTGlyph>
    <TTGlyph name="Gcircumflex" xMin="73" yMin="-10" xMax="792" yMax="960">
      <contour>
        <pt x="387" y="44" on="1"/>
        <pt x="429" y="44" on="0"/>
        <pt x="500" y="67" on="0"/>
        <pt x="553" y="112" on="0"/>
        <pt x="582" y="178" on="0"/>
        <pt x="582" y="222" on="1"/>
        <pt x="582" y="262" on="0"/>
        <pt x="547" y="300" on="0"/>
        <pt x="497" y="300" on="1"/>
        <pt x="506" y="339" on="1"/>
        <pt x="780" y="339" on="1"/>
        <pt x="770" y="300" on="1"/>
        <pt x="749" y="300" on="0"/>
        <pt x="720" y="294" on="0"/>
        <pt x="698" y="267" on="0"/>
        <pt x="678" y="213" on="0"/>
        <pt x="666" y="166" on="1"/>
        <pt x="658" y="137" on="0"/>
        <pt x="644" y="78" on="0"/>
        <pt x="643" y="49" on="1"/>
        <pt x="620" y="45" on="0"/>
        <pt x="569" y="26" on="0"/>
        <pt x="504" y="6" on="0"/>
        <pt x="420" y="-10" on="0"/>
        <pt x="365" y="-10" on="1"/>
        <pt x="297" y="-10" on="0"/>
        <pt x="189" y="33" on="0"/>
        <pt x="114" y="114" on="0"/>
        <pt x="73" y="229" on="0"/>
        <pt x="73" y="301" on="1"/>
        <pt x="73" y="396" on="0"/>
        <pt x="146" y="569" on="0"/>
        <pt x="269" y="701" on="0"/>
        <pt x="430" y="780" on="0"/>
        <pt x="518" y="780" on="1"/>
        <pt x="572" y="780" on="0"/>
        <pt x="669" y="751" on="0"/>
        <pt x="718" y="720" on="1"/>
        <pt x="755" y="770" on="1"/>
        <pt x="792" y="770" on="1"/>
        <pt x="756" y="550" on="1"/>
        <pt x="718" y="550" on="1"/>
        <pt x="708" y="642" on="0"/>
        <pt x="617" y="728" on="0"/>
        <pt x="526" y="728" on="1"/>
        <pt x="456" y="728" on="0"/>
        <pt x="335" y="662" on="0"/>
        <pt x="245" y="546" on="0"/>
        <pt x="194" y="390" on="0"/>
        <pt x="194" y="300" on="1"/>
        <pt x="194" y="44" on="0"/>
      </contour>
      <contour>
        <pt x="627" y="960" on="1"/>
        <pt x="707" y="851" on="1"/>
        <pt x="662" y="851" on="1"/>
        <pt x="557" y="905" on="1"/>
        <pt x="424" y="851" on="1"/>
        <pt x="379" y="851" on="1"/>
        <pt x="517" y="960" on="1"/>
      </contour>
    </TTGlyph>
    <TTGlyph name="Gcommaaccent" xMin="73" yMin="-250" xMax="792" yMax="780">
      <contour>
        <pt x="387" y="44" on="1"/>
        <pt x="429" y="44" on="0"/>
        <pt x="500" y="67" on="0"/>
        <pt x="553" y="112" on="0"/>
        <pt x="582" y="178" on="0"/>
        <pt x="582" y="222" on="1"/>
        <pt x="582" y="262" on="0"/>
        <pt x="547" y="300" on="0"/>
        <pt x="497" y="300" on="1"/>
        <pt x="506" y="339" on="1"/>
        <pt x="780" y="339" on="1"/>
        <pt x="770" y="300" on="1"/>
        <pt x="749" y="300" on="0"/>
        <pt x="720" y="294" on="0"/>
        <pt x="698" y="267" on="0"/>
        <pt x="678" y="213" on="0"/>
        <pt x="666" y="166" on="1"/>
        <pt x="658" y="137" on="0"/>
        <pt x="644" y="78" on="0"/>
        <pt x="643" y="49" on="1"/>
        <pt x="620" y="45" on="0"/>
        <pt x="569" y="26" on="0"/>
        <pt x="504" y="6" on="0"/>
        <pt x="420" y="-10" on="0"/>
        <pt x="365" y="-10" on="1"/>
        <pt x="297" y="-10" on="0"/>
        <pt x="189" y="33" on="0"/>
        <pt x="114" y="114" on="0"/>
        <pt x="73" y="229" on="0"/>
        <pt x="73" y="301" on="1"/>
        <pt x="73" y="396" on="0"/>
        <pt x="146" y="569" on="0"/>
        <pt x="269" y="701" on="0"/>
        <pt x="430" y="780" on="0"/>
        <pt x="518" y="780" on="1"/>
        <pt x="572" y="780" on="0"/>
        <pt x="669" y="751" on="0"/>
        <pt x="718" y="720" on="1"/>
        <pt x="755" y="770" on="1"/>
        <pt x="792" y="770" on="1"/>
        <pt x="756" y="550" on="1"/>
        <pt x="718" y="550" on="1"/>
        <pt x="708" y="642" on="0"/>
        <pt x="617" y="728" on="0"/>
        <pt x="526" y="728" on="1"/>
        <pt x="456" y="728" on="0"/>
        <pt x="335" y="662" on="0"/>
        <pt x="245" y="546" on="0"/>
        <pt x="194" y="390" on="0"/>
        <pt x="194" y="300" on="1"/>
        <pt x="194" y="44" on="0"/>
      </contour>
      <contour>
        <pt x="287" y="-224" on="1"/>
        <pt x="321" y="-205" on="0"/>
        <pt x="352" y="-168" on="0"/>
        <pt x="352" y="-146" on="1"/>
        <pt x="342" y="-154" on="0"/>
        <pt x="326" y="-154" on="1"/>
        <pt x="306" y="-154" on="0"/>
        <pt x="282" y="-128" on="0"/>
        <pt x="282" y="-107" on="1"/>
        <pt x="282" y="-84" on="0"/>
        <pt x="315" y="-54" on="0"/>
        <pt x="341" y="-54" on="1"/>
        <pt x="371" y="-54" on="0"/>
        <pt x="404" y="-95" on="0"/>
        <pt x="404" y="-133" on="1"/>
        <pt x="404" y="-165" on="0"/>
        <pt x="361" y="-222" on="0"/>
        <pt x="309" y="-250" on="1"/>
      </contour>
    </TTGlyph>
    <TTGlyph name="Gdotaccent" xMin="73" yMin="-10" xMax="792" yMax="959">
      <contour>
        <pt x="387" y="44" on="1"/>
        <pt x="429" y="44" on="0"/>
        <pt x="500" y="67" on="0"/>
        <pt x="553" y="112" on="0"/>
        <pt x="582" y="178" on="0"/>
        <pt x="582" y="222" on="1"/>
        <pt x="582" y="262" on="0"/>
        <pt x="547" y="300" on="0"/>
        <pt x="497" y="300" on="1"/>
        <pt x="506" y="339" on="1"/>
        <pt x="780" y="339" on="1"/>
        <pt x="770" y="300" on="1"/>
        <pt x="749" y="300" on="0"/>
        <pt x="720" y="294" on="0"/>
        <pt x="698" y="267" on="0"/>
        <pt x="678" y="213" on="0"/>
        <pt x="666" y="166" on="1"/>
        <pt x="658" y="137" on="0"/>
        <pt x="644" y="78" on="0"/>
        <pt x="643" y="49" on="1"/>
        <pt x="620" y="45" on="0"/>
        <pt x="569" y="26" on="0"/>
        <pt x="504" y="6" on="0"/>
        <pt x="420" y="-10" on="0"/>
        <pt x="365" y="-10" on="1"/>
        <pt x="297" y="-10" on="0"/>
        <pt x="189" y="33" on="0"/>
        <pt x="114" y="114" on="0"/>
        <pt x="73" y="229" on="0"/>
        <pt x="73" y="301" on="1"/>
        <pt x="73" y="396" on="0"/>
        <pt x="146" y="569" on="0"/>
        <pt x="269" y="701" on="0"/>
        <pt x="430" y="780" on="0"/>
        <pt x="518" y="780" on="1"/>
        <pt x="572" y="780" on="0"/>
        <pt x="669" y="751" on="0"/>
        <pt x="718" y="720" on="1"/>
        <pt x="755" y="770" on="1"/>
        <pt x="792" y="770" on="1"/>
        <pt x="756" y="550" on="1"/>
        <pt x="718" y="550" on="1"/>
        <pt x="708" y="642" on="0"/>
        <pt x="617" y="728" on="0"/>
        <pt x="526" y="728" on="1"/>
        <pt x="456" y="728" on="0"/>
        <pt x="335" y="662" on="0"/>
        <pt x="245" y="546" on="0"/>
        <pt x="194" y="390" on="0"/>
        <pt x="194" y="300" on="1"/>
        <pt x="194" y="44" on="0"/>
      </contour>
      <contour>
        <pt x="514" y="904" on="1"/>
        <pt x="514" y="927" on="0"/>
        <pt x="545" y="959" on="0"/>
        <pt x="566" y="959" on="1"/>
        <pt x="589" y="959" on="0"/>
        <pt x="621" y="927" on="0"/>
        <pt x="621" y="904" on="1"/>
        <pt x="621" y="883" on="0"/>
        <pt x="589" y="852" on="0"/>
        <pt x="566" y="852" on="1"/>
        <pt x="545" y="852" on="0"/>
        <pt x="514" y="883" on="0"/>
      </contour>
    </TTGlyph>
    <TTGlyph name="H" xMin="-28" yMin="0" xMax="978" yMax="770">
      <contour>
        <pt x="715" y="168" on="1"/>
        <pt x="703" y="124" on="0"/>
        <pt x="703" y="98" on="1"/>
        <pt x="703" y="64" on="0"/>
        <pt x="746" y="40" on="0"/>
        <pt x="794" y="40" on="1"/>
        <pt x="782" y="0" on="1"/>
        <pt x="463" y="0" on="1"/>
        <pt x="474" y="40" on="1"/>
        <pt x="504" y="40" on="0"/>
        <pt x="546" y="49" on="0"/>
        <pt x="577" y="75" on="0"/>
        <pt x="599" y="121" on="0"/>
        <pt x="609" y="158" on="1"/>
        <pt x="664" y="367" on="1"/>
        <pt x="276" y="367" on="1"/>
        <pt x="224" y="168" on="1"/>
        <pt x="212" y="124" on="0"/>
        <pt x="212" y="98" on="1"/>
        <pt x="212" y="64" on="0"/>
        <pt x="255" y="40" on="0"/>
        <pt x="304" y="40" on="1"/>
        <pt x="291" y="0" on="1"/>
        <pt x="-28" y="0" on="1"/>
        <pt x="-17" y="40" on="1"/>
        <pt x="13" y="40" on="0"/>
        <pt x="55" y="49" on="0"/>
        <pt x="86" y="75" on="0"/>
        <pt x="108" y="121" on="0"/>
        <pt x="118" y="158" on="1"/>
        <pt x="235" y="600" on="1"/>
        <pt x="250" y="655" on="0"/>
        <pt x="250" y="682" on="1"/>
        <pt x="250" y="713" on="0"/>
        <pt x="205" y="730" on="0"/>
        <pt x="151" y="730" on="1"/>
        <pt x="162" y="770" on="1"/>
        <pt x="487" y="770" on="1"/>
        <pt x="476" y="730" on="1"/>
        <pt x="443" y="730" on="0"/>
        <pt x="399" y="717" on="0"/>
        <pt x="367" y="681" on="0"/>
        <pt x="342" y="617" on="0"/>
        <pt x="329" y="566" on="1"/>
        <pt x="290" y="418" on="1"/>
        <pt x="678" y="418" on="1"/>
        <pt x="726" y="600" on="1"/>
        <pt x="741" y="655" on="0"/>
        <pt x="741" y="682" on="1"/>
        <pt x="741" y="713" on="0"/>
        <pt x="696" y="730" on="0"/>
        <pt x="642" y="730" on="1"/>
        <pt x="653" y="770" on="1"/>
        <pt x="978" y="770" on="1"/>
        <pt x="967" y="730" on="1"/>
        <pt x="934" y="730" on="0"/>
        <pt x="890" y="717" on="0"/>
        <pt x="858" y="681" on="0"/>
        <pt x="833" y="617" on="0"/>
        <pt x="820" y="566" on="1"/>
      </contour>
    </TTGlyph>
    <TTGlyph name="Hbar" xMin="-26" yMin="0" xMax="980" yMax="770">
      <contour>
        <pt x="815" y="541" on="1"/>
        <pt x="717" y="168" on="1"/>
        <pt x="705" y="124" on="0"/>
        <pt x="705" y="98" on="1"/>
        <pt x="705" y="64" on="0"/>
        <pt x="748" y="40" on="0"/>
        <pt x="796" y="40" on="1"/>
        <pt x="784" y="0" on="1"/>
        <pt x="465" y="0" on="1"/>
        <pt x="476" y="40" on="1"/>
        <pt x="506" y="40" on="0"/>
        <pt x="548" y="49" on="0"/>
        <pt x="579" y="75" on="0"/>
        <pt x="601" y="121" on="0"/>
        <pt x="611" y="158" on="1"/>
        <pt x="666" y="367" on="1"/>
        <pt x="278" y="367" on="1"/>
        <pt x="226" y="168" on="1"/>
        <pt x="214" y="124" on="0"/>
        <pt x="214" y="98" on="1"/>
        <pt x="214" y="64" on="0"/>
        <pt x="257" y="40" on="0"/>
        <pt x="305" y="40" on="1"/>
        <pt x="293" y="0" on="1"/>
        <pt x="-26" y="0" on="1"/>
        <pt x="-15" y="40" on="1"/>
        <pt x="15" y="40" on="0"/>
        <pt x="57" y="49" on="0"/>
        <pt x="88" y="75" on="0"/>
        <pt x="110" y="121" on="0"/>
        <pt x="120" y="158" on="1"/>
        <pt x="221" y="541" on="1"/>
        <pt x="115" y="541" on="1"/>
        <pt x="128" y="591" on="1"/>
        <pt x="234" y="591" on="1"/>
        <pt x="237" y="600" on="1"/>
        <pt x="252" y="655" on="0"/>
        <pt x="252" y="682" on="1"/>
        <pt x="252" y="713" on="0"/>
        <pt x="207" y="730" on="0"/>
        <pt x="153" y="730" on="1"/>
        <pt x="164" y="770" on="1"/>
        <pt x="489" y="770" on="1"/>
        <pt x="478" y="730" on="1"/>
        <pt x="447" y="730" on="0"/>
        <pt x="404" y="719" on="0"/>
        <pt x="373" y="688" on="0"/>
        <pt x="350" y="634" on="0"/>
        <pt x="338" y="591" on="1"/>
        <pt x="725" y="591" on="1"/>
        <pt x="728" y="600" on="1"/>
        <pt x="743" y="655" on="0"/>
        <pt x="743" y="682" on="1"/>
        <pt x="743" y="713" on="0"/>
        <pt x="698" y="730" on="0"/>
        <pt x="644" y="730" on="1"/>
        <pt x="655" y="770" on="1"/>
        <pt x="980" y="770" on="1"/>
        <pt x="969" y="730" on="1"/>
        <pt x="938" y="730" on="0"/>
        <pt x="895" y="719" on="0"/>
        <pt x="864" y="688" on="0"/>
        <pt x="841" y="634" on="0"/>
        <pt x="829" y="591" on="1"/>
        <pt x="942" y="591" on="1"/>
        <pt x="929" y="541" on="1"/>
      </contour>
      <contour>
        <pt x="680" y="418" on="1"/>
        <pt x="712" y="541" on="1"/>
        <pt x="324" y="541" on="1"/>
        <pt x="292" y="418" on="1"/>
      </contour>
    </TTGlyph>
    <TTGlyph name="Hcircumflex" xMin="-28" yMin="0" xMax="978" yMax="960">
      <contour>
        <pt x="715" y="168" on="1"/>
        <pt x="703" y="124" on="0"/>
        <pt x="703" y="98" on="1"/>
        <pt x="703" y="64" on="0"/>
        <pt x="746" y="40" on="0"/>
        <pt x="794" y="40" on="1"/>
        <pt x="782" y="0" on="1"/>
        <pt x="463" y="0" on="1"/>
        <pt x="474" y="40" on="1"/>
        <pt x="504" y="40" on="0"/>
        <pt x="546" y="49" on="0"/>
        <pt x="577" y="75" on="0"/>
        <pt x="599" y="121" on="0"/>
        <pt x="609" y="158" on="1"/>
        <pt x="664" y="367" on="1"/>
        <pt x="276" y="367" on="1"/>
        <pt x="224" y="168" on="1"/>
        <pt x="212" y="124" on="0"/>
        <pt x="212" y="98" on="1"/>
        <pt x="212" y="64" on="0"/>
        <pt x="255" y="40" on="0"/>
        <pt x="303" y="40" on="1"/>
        <pt x="291" y="0" on="1"/>
        <pt x="-28" y="0" on="1"/>
        <pt x="-17" y="40" on="1"/>
        <pt x="13" y="40" on="0"/>
        <pt x="55" y="49" on="0"/>
        <pt x="86" y="75" on="0"/>
        <pt x="108" y="121" on="0"/>
        <pt x="118" y="158" on="1"/>
        <pt x="235" y="600" on="1"/>
        <pt x="250" y="655" on="0"/>
        <pt x="250" y="682" on="1"/>
        <pt x="250" y="713" on="0"/>
        <pt x="205" y="730" on="0"/>
        <pt x="151" y="730" on="1"/>
        <pt x="162" y="770" on="1"/>
        <pt x="487" y="770" on="1"/>
        <pt x="476" y="730" on="1"/>
        <pt x="443" y="730" on="0"/>
        <pt x="399" y="717" on="0"/>
        <pt x="367" y="681" on="0"/>
        <pt x="342" y="617" on="0"/>
        <pt x="329" y="566" on="1"/>
        <pt x="290" y="418" on="1"/>
        <pt x="678" y="418" on="1"/>
        <pt x="726" y="600" on="1"/>
        <pt x="741" y="655" on="0"/>
        <pt x="741" y="682" on="1"/>
        <pt x="741" y="713" on="0"/>
        <pt x="696" y="730" on="0"/>
        <pt x="642" y="730" on="1"/>
        <pt x="653" y="770" on="1"/>
        <pt x="978" y="770" on="1"/>
        <pt x="967" y="730" on="1"/>
        <pt x="934" y="730" on="0"/>
        <pt x="890" y="717" on="0"/>
        <pt x="858" y="681" on="0"/>
        <pt x="833" y="617" on="0"/>
        <pt x="820" y="566" on="1"/>
      </contour>
      <contour>
        <pt x="681" y="960" on="1"/>
        <pt x="761" y="851" on="1"/>
        <pt x="716" y="851" on="1"/>
        <pt x="611" y="905" on="1"/>
        <pt x="478" y="851" on="1"/>
        <pt x="433" y="851" on="1"/>
        <pt x="571" y="960" on="1"/>
      </contour>
    </TTGlyph>
    <TTGlyph name="Hdotbelow" xMin="-28" yMin="-230" xMax="978" yMax="770">
      <contour>
        <pt x="715" y="168" on="1"/>
        <pt x="703" y="124" on="0"/>
        <pt x="703" y="98" on="1"/>
        <pt x="703" y="64" on="0"/>
        <pt x="746" y="40" on="0"/>
        <pt x="794" y="40" on="1"/>
        <pt x="782" y="0" on="1"/>
        <pt x="463" y="0" on="1"/>
        <pt x="474" y="40" on="1"/>
        <pt x="504" y="40" on="0"/>
        <pt x="546" y="49" on="0"/>
        <pt x="577" y="75" on="0"/>
        <pt x="599" y="121" on="0"/>
        <pt x="609" y="158" on="1"/>
        <pt x="664" y="367" on="1"/>
        <pt x="276" y="367" on="1"/>
        <pt x="224" y="168" on="1"/>
        <pt x="212" y="124" on="0"/>
        <pt x="212" y="98" on="1"/>
        <pt x="212" y="64" on="0"/>
        <pt x="255" y="40" on="0"/>
        <pt x="303" y="40" on="1"/>
        <pt x="291" y="0" on="1"/>
        <pt x="-28" y="0" on="1"/>
        <pt x="-17" y="40" on="1"/>
        <pt x="13" y="40" on="0"/>
        <pt x="55" y="49" on="0"/>
        <pt x="86" y="75" on="0"/>
        <pt x="108" y="121" on="0"/>
        <pt x="118" y="158" on="1"/>
        <pt x="235" y="600" on="1"/>
        <pt x="250" y="655" on="0"/>
        <pt x="250" y="682" on="1"/>
        <pt x="250" y="713" on="0"/>
        <pt x="205" y="730" on="0"/>
        <pt x="151" y="730" on="1"/>
        <pt x="162" y="770" on="1"/>
        <pt x="487" y="770" on="1"/>
        <pt x="476" y="730" on="1"/>
        <pt x="443" y="730" on="0"/>
        <pt x="399" y="717" on="0"/>
        <pt x="367" y="681" on="0"/>
        <pt x="342" y="617" on="0"/>
        <pt x="329" y="566" on="1"/>
        <pt x="290" y="418" on="1"/>
        <pt x="678" y="418" on="1"/>
        <pt x="726" y="600" on="1"/>
        <pt x="741" y="655" on="0"/>
        <pt x="741" y="682" on="1"/>
        <pt x="741" y="713" on="0"/>
        <pt x="696" y="730" on="0"/>
        <pt x="642" y="730" on="1"/>
        <pt x="653" y="770" on="1"/>
        <pt x="978" y="770" on="1"/>
        <pt x="967" y="730" on="1"/>
        <pt x="934" y="730" on="0"/>
        <pt x="890" y="717" on="0"/>
        <pt x="858" y="681" on="0"/>
        <pt x="833" y="617" on="0"/>
        <pt x="820" y="566" on="1"/>
      </contour>
      <contour>
        <pt x="315" y="-168" on="1"/>
        <pt x="315" y="-142" on="0"/>
        <pt x="351" y="-106" on="0"/>
        <pt x="377" y="-106" on="1"/>
        <pt x="403" y="-106" on="0"/>
        <pt x="439" y="-142" on="0"/>
        <pt x="439" y="-168" on="1"/>
        <pt x="439" y="-194" on="0"/>
        <pt x="403" y="-230" on="0"/>
        <pt x="377" y="-230" on="1"/>
        <pt x="351" y="-230" on="0"/>
        <pt x="315" y="-194" on="0"/>
      </contour>
    </TTGlyph>
    <TTGlyph name="I" xMin="-28" yMin="0" xMax="487" yMax="770">
      <contour>
        <pt x="224" y="168" on="1"/>
        <pt x="212" y="124" on="0"/>
        <pt x="212" y="98" on="1"/>
        <pt x="212" y="64" on="0"/>
        <pt x="255" y="40" on="0"/>
        <pt x="303" y="40" on="1"/>
        <pt x="291" y="0" on="1"/>
        <pt x="-28" y="0" on="1"/>
        <pt x="-17" y="40" on="1"/>
        <pt x="13" y="40" on="0"/>
        <pt x="55" y="49" on="0"/>
        <pt x="86" y="75" on="0"/>
        <pt x="108" y="121" on="0"/>
        <pt x="118" y="158" on="1"/>
        <pt x="235" y="600" on="1"/>
        <pt x="250" y="655" on="0"/>
        <pt x="250" y="682" on="1"/>
        <pt x="250" y="713" on="0"/>
        <pt x="205" y="730" on="0"/>
        <pt x="151" y="730" on="1"/>
        <pt x="162" y="770" on="1"/>
        <pt x="487" y="770" on="1"/>
        <pt x="476" y="730" on="1"/>
        <pt x="443" y="730" on="0"/>
        <pt x="399" y="717" on="0"/>
        <pt x="367" y="681" on="0"/>
        <pt x="342" y="617" on="0"/>
        <pt x="329" y="566" on="1"/>
      </contour>
    </TTGlyph>
    <TTGlyph name="IJ" xMin="-28" yMin="-10" xMax="1043" yMax="770">
      <contour>
        <pt x="224" y="168" on="1"/>
        <pt x="212" y="124" on="0"/>
        <pt x="212" y="98" on="1"/>
        <pt x="212" y="64" on="0"/>
        <pt x="255" y="40" on="0"/>
        <pt x="303" y="40" on="1"/>
        <pt x="291" y="0" on="1"/>
        <pt x="-28" y="0" on="1"/>
        <pt x="-17" y="40" on="1"/>
        <pt x="13" y="40" on="0"/>
        <pt x="55" y="49" on="0"/>
        <pt x="86" y="75" on="0"/>
        <pt x="108" y="121" on="0"/>
        <pt x="118" y="158" on="1"/>
        <pt x="235" y="600" on="1"/>
        <pt x="250" y="655" on="0"/>
        <pt x="250" y="682" on="1"/>
        <pt x="250" y="713" on="0"/>
        <pt x="205" y="730" on="0"/>
        <pt x="151" y="730" on="1"/>
        <pt x="162" y="770" on="1"/>
        <pt x="487" y="770" on="1"/>
        <pt x="476" y="730" on="1"/>
        <pt x="443" y="730" on="0"/>
        <pt x="399" y="717" on="0"/>
        <pt x="367" y="681" on="0"/>
        <pt x="342" y="617" on="0"/>
        <pt x="329" y="566" on="1"/>
      </contour>
      <contour>
        <pt x="554" y="43" on="1"/>
        <pt x="603" y="43" on="0"/>
        <pt x="679" y="137" on="0"/>
        <pt x="702" y="222" on="1"/>
        <pt x="801" y="600" on="1"/>
        <pt x="816" y="655" on="0"/>
        <pt x="816" y="682" on="1"/>
        <pt x="816" y="696" on="0"/>
        <pt x="806" y="715" on="0"/>
        <pt x="782" y="726" on="0"/>
        <pt x="740" y="730" on="0"/>
        <pt x="707" y="730" on="1"/>
        <pt x="718" y="770" on="1"/>
        <pt x="1043" y="770" on="1"/>
        <pt x="1032" y="730" on="1"/>
        <pt x="1002" y="730" on="0"/>
        <pt x="961" y="718" on="0"/>
        <pt x="932" y="682" on="0"/>
        <pt x="908" y="618" on="0"/>
        <pt x="895" y="566" on="1"/>
        <pt x="795" y="186" on="1"/>
        <pt x="770" y="91" on="0"/>
        <pt x="645" y="-10" on="0"/>
        <pt x="555" y="-10" on="1"/>
        <pt x="479" y="-10" on="0"/>
        <pt x="397" y="58" on="0"/>
        <pt x="397" y="121" on="1"/>
        <pt x="397" y="169" on="0"/>
        <pt x="447" y="231" on="0"/>
        <pt x="485" y="231" on="1"/>
        <pt x="512" y="231" on="0"/>
        <pt x="547" y="199" on="0"/>
        <pt x="547" y="173" on="1"/>
        <pt x="547" y="154" on="0"/>
        <pt x="531" y="133" on="0"/>
        <pt x="511" y="116" on="0"/>
        <pt x="495" y="100" on="0"/>
        <pt x="495" y="87" on="1"/>
        <pt x="495" y="67" on="0"/>
        <pt x="528" y="43" on="0"/>
      </contour>
    </TTGlyph>
    <TTGlyph name="Iacute" xMin="-28" yMin="0" xMax="512" yMax="960">
      <contour>
        <pt x="224" y="168" on="1"/>
        <pt x="212" y="124" on="0"/>
        <pt x="212" y="98" on="1"/>
        <pt x="212" y="64" on="0"/>
        <pt x="255" y="40" on="0"/>
        <pt x="303" y="40" on="1"/>
        <pt x="291" y="0" on="1"/>
        <pt x="-28" y="0" on="1"/>
        <pt x="-17" y="40" on="1"/>
        <pt x="13" y="40" on="0"/>
        <pt x="55" y="49" on="0"/>
        <pt x="86" y="75" on="0"/>
        <pt x="108" y="121" on="0"/>
        <pt x="118" y="158" on="1"/>
        <pt x="235" y="600" on="1"/>
        <pt x="250" y="655" on="0"/>
        <pt x="250" y="682" on="1"/>
        <pt x="250" y="713" on="0"/>
        <pt x="205" y="730" on="0"/>
        <pt x="151" y="730" on="1"/>
        <pt x="162" y="770" on="1"/>
        <pt x="487" y="770" on="1"/>
        <pt x="476" y="730" on="1"/>
        <pt x="443" y="730" on="0"/>
        <pt x="399" y="717" on="0"/>
        <pt x="367" y="681" on="0"/>
        <pt x="342" y="617" on="0"/>
        <pt x="329" y="566" on="1"/>
      </contour>
      <contour>
        <pt x="236" y="850" on="1"/>
        <pt x="386" y="927" on="1"/>
        <pt x="418" y="944" on="0"/>
        <pt x="462" y="960" on="0"/>
        <pt x="482" y="960" on="1"/>
        <pt x="512" y="960" on="0"/>
        <pt x="512" y="935" on="1"/>
        <pt x="512" y="915" on="0"/>
        <pt x="466" y="887" on="0"/>
        <pt x="423" y="878" on="1"/>
        <pt x="296" y="850" on="1"/>
      </contour>
    </TTGlyph>
    <TTGlyph name="Ibreve" xMin="-28" yMin="0" xMax="521" yMax="960">
      <contour>
        <pt x="224" y="168" on="1"/>
        <pt x="212" y="124" on="0"/>
        <pt x="212" y="98" on="1"/>
        <pt x="212" y="64" on="0"/>
        <pt x="255" y="40" on="0"/>
        <pt x="303" y="40" on="1"/>
        <pt x="291" y="0" on="1"/>
        <pt x="-28" y="0" on="1"/>
        <pt x="-17" y="40" on="1"/>
        <pt x="13" y="40" on="0"/>
        <pt x="55" y="49" on="0"/>
        <pt x="86" y="75" on="0"/>
        <pt x="108" y="121" on="0"/>
        <pt x="118" y="158" on="1"/>
        <pt x="235" y="600" on="1"/>
        <pt x="250" y="655" on="0"/>
        <pt x="250" y="682" on="1"/>
        <pt x="250" y="713" on="0"/>
        <pt x="205" y="730" on="0"/>
        <pt x="151" y="730" on="1"/>
        <pt x="162" y="770" on="1"/>
        <pt x="487" y="770" on="1"/>
        <pt x="476" y="730" on="1"/>
        <pt x="443" y="730" on="0"/>
        <pt x="399" y="717" on="0"/>
        <pt x="367" y="681" on="0"/>
        <pt x="342" y="617" on="0"/>
        <pt x="329" y="566" on="1"/>
      </contour>
      <contour>
        <pt x="521" y="960" on="1"/>
        <pt x="512" y="935" on="0"/>
        <pt x="478" y="893" on="0"/>
        <pt x="433" y="862" on="0"/>
        <pt x="380" y="845" on="0"/>
        <pt x="352" y="845" on="1"/>
        <pt x="301" y="845" on="0"/>
        <pt x="242" y="895" on="0"/>
        <pt x="242" y="935" on="1"/>
        <pt x="242" y="946" on="0"/>
        <pt x="245" y="960" on="1"/>
        <pt x="281" y="960" on="1"/>
        <pt x="283" y="939" on="0"/>
        <pt x="332" y="914" on="0"/>
        <pt x="370" y="914" on="1"/>
        <pt x="408" y="914" on="0"/>
        <pt x="470" y="939" on="0"/>
        <pt x="484" y="960" on="1"/>
      </contour>
    </TTGlyph>
    <TTGlyph name="Icircumflex" xMin="-28" yMin="0" xMax="508" yMax="960">
      <contour>
        <pt x="224" y="168" on="1"/>
        <pt x="212" y="124" on="0"/>
        <pt x="212" y="98" on="1"/>
        <pt x="212" y="64" on="0"/>
        <pt x="255" y="40" on="0"/>
        <pt x="303" y="40" on="1"/>
        <pt x="291" y="0" on="1"/>
        <pt x="-28" y="0" on="1"/>
        <pt x="-17" y="40" on="1"/>
        <pt x="13" y="40" on="0"/>
        <pt x="55" y="49" on="0"/>
        <pt x="86" y="75" on="0"/>
        <pt x="108" y="121" on="0"/>
        <pt x="118" y="158" on="1"/>
        <pt x="235" y="600" on="1"/>
        <pt x="250" y="655" on="0"/>
        <pt x="250" y="682" on="1"/>
        <pt x="250" y="713" on="0"/>
        <pt x="205" y="730" on="0"/>
        <pt x="151" y="730" on="1"/>
        <pt x="162" y="770" on="1"/>
        <pt x="487" y="770" on="1"/>
        <pt x="476" y="730" on="1"/>
        <pt x="443" y="730" on="0"/>
        <pt x="399" y="717" on="0"/>
        <pt x="367" y="681" on="0"/>
        <pt x="342" y="617" on="0"/>
        <pt x="329" y="566" on="1"/>
      </contour>
      <contour>
        <pt x="428" y="960" on="1"/>
        <pt x="508" y="851" on="1"/>
        <pt x="463" y="851" on="1"/>
        <pt x="358" y="905" on="1"/>
        <pt x="225" y="851" on="1"/>
        <pt x="180" y="851" on="1"/>
        <pt x="318" y="960" on="1"/>
      </contour>
    </TTGlyph>
    <TTGlyph name="Idieresis" xMin="-28" yMin="0" xMax="511" yMax="960">
      <contour>
        <pt x="224" y="168" on="1"/>
        <pt x="212" y="124" on="0"/>
        <pt x="212" y="98" on="1"/>
        <pt x="212" y="64" on="0"/>
        <pt x="255" y="40" on="0"/>
        <pt x="303" y="40" on="1"/>
        <pt x="291" y="0" on="1"/>
        <pt x="-28" y="0" on="1"/>
        <pt x="-17" y="40" on="1"/>
        <pt x="13" y="40" on="0"/>
        <pt x="55" y="49" on="0"/>
        <pt x="86" y="75" on="0"/>
        <pt x="108" y="121" on="0"/>
        <pt x="118" y="158" on="1"/>
        <pt x="235" y="600" on="1"/>
        <pt x="250" y="655" on="0"/>
        <pt x="250" y="682" on="1"/>
        <pt x="250" y="713" on="0"/>
        <pt x="205" y="730" on="0"/>
        <pt x="151" y="730" on="1"/>
        <pt x="162" y="770" on="1"/>
        <pt x="487" y="770" on="1"/>
        <pt x="476" y="730" on="1"/>
        <pt x="443" y="730" on="0"/>
        <pt x="399" y="717" on="0"/>
        <pt x="367" y="681" on="0"/>
        <pt x="342" y="617" on="0"/>
        <pt x="329" y="566" on="1"/>
      </contour>
      <contour>
        <pt x="226" y="910" on="1"/>
        <pt x="231" y="931" on="0"/>
        <pt x="268" y="960" on="0"/>
        <pt x="289" y="960" on="1"/>
        <pt x="307" y="960" on="0"/>
        <pt x="329" y="939" on="0"/>
        <pt x="329" y="923" on="1"/>
        <pt x="329" y="910" on="0"/>
        <pt x="317" y="887" on="0"/>
        <pt x="298" y="869" on="0"/>
        <pt x="274" y="859" on="0"/>
        <pt x="262" y="859" on="1"/>
        <pt x="245" y="859" on="0"/>
        <pt x="224" y="879" on="0"/>
        <pt x="224" y="895" on="1"/>
        <pt x="224" y="905" on="0"/>
      </contour>
      <contour>
        <pt x="408" y="910" on="1"/>
        <pt x="413" y="931" on="0"/>
        <pt x="450" y="960" on="0"/>
        <pt x="472" y="960" on="1"/>
        <pt x="489" y="960" on="0"/>
        <pt x="511" y="939" on="0"/>
        <pt x="511" y="923" on="1"/>
        <pt x="511" y="910" on="0"/>
        <pt x="499" y="887" on="0"/>
        <pt x="480" y="869" on="0"/>
        <pt x="457" y="859" on="0"/>
        <pt x="445" y="859" on="1"/>
        <pt x="427" y="859" on="0"/>
        <pt x="406" y="879" on="0"/>
        <pt x="406" y="895" on="1"/>
        <pt x="406" y="905" on="0"/>
      </contour>
    </TTGlyph>
    <TTGlyph name="Idotaccent" xMin="-28" yMin="0" xMax="487" yMax="959">
      <contour>
        <pt x="224" y="168" on="1"/>
        <pt x="212" y="124" on="0"/>
        <pt x="212" y="98" on="1"/>
        <pt x="212" y="64" on="0"/>
        <pt x="255" y="40" on="0"/>
        <pt x="303" y="40" on="1"/>
        <pt x="291" y="0" on="1"/>
        <pt x="-28" y="0" on="1"/>
        <pt x="-17" y="40" on="1"/>
        <pt x="13" y="40" on="0"/>
        <pt x="55" y="49" on="0"/>
        <pt x="86" y="75" on="0"/>
        <pt x="108" y="121" on="0"/>
        <pt x="118" y="158" on="1"/>
        <pt x="235" y="600" on="1"/>
        <pt x="250" y="655" on="0"/>
        <pt x="250" y="682" on="1"/>
        <pt x="250" y="713" on="0"/>
        <pt x="205" y="730" on="0"/>
        <pt x="151" y="730" on="1"/>
        <pt x="162" y="770" on="1"/>
        <pt x="487" y="770" on="1"/>
        <pt x="476" y="730" on="1"/>
        <pt x="443" y="730" on="0"/>
        <pt x="399" y="717" on="0"/>
        <pt x="367" y="681" on="0"/>
        <pt x="342" y="617" on="0"/>
        <pt x="329" y="566" on="1"/>
      </contour>
      <contour>
        <pt x="316" y="904" on="1"/>
        <pt x="316" y="927" on="0"/>
        <pt x="347" y="959" on="0"/>
        <pt x="368" y="959" on="1"/>
        <pt x="391" y="959" on="0"/>
        <pt x="423" y="927" on="0"/>
        <pt x="423" y="904" on="1"/>
        <pt x="423" y="883" on="0"/>
        <pt x="391" y="852" on="0"/>
        <pt x="368" y="852" on="1"/>
        <pt x="347" y="852" on="0"/>
        <pt x="316" y="883" on="0"/>
      </contour>
    </TTGlyph>
    <TTGlyph name="Idotbelow" xMin="-28" yMin="-230" xMax="487" yMax="770">
      <contour>
        <pt x="224" y="168" on="1"/>
        <pt x="212" y="124" on="0"/>
        <pt x="212" y="98" on="1"/>
        <pt x="212" y="64" on="0"/>
        <pt x="255" y="40" on="0"/>
        <pt x="303" y="40" on="1"/>
        <pt x="291" y="0" on="1"/>
        <pt x="-28" y="0" on="1"/>
        <pt x="-17" y="40" on="1"/>
        <pt x="13" y="40" on="0"/>
        <pt x="55" y="49" on="0"/>
        <pt x="86" y="75" on="0"/>
        <pt x="108" y="121" on="0"/>
        <pt x="118" y="158" on="1"/>
        <pt x="235" y="600" on="1"/>
        <pt x="250" y="655" on="0"/>
        <pt x="250" y="682" on="1"/>
        <pt x="250" y="713" on="0"/>
        <pt x="205" y="730" on="0"/>
        <pt x="151" y="730" on="1"/>
        <pt x="162" y="770" on="1"/>
        <pt x="487" y="770" on="1"/>
        <pt x="476" y="730" on="1"/>
        <pt x="443" y="730" on="0"/>
        <pt x="399" y="717" on="0"/>
        <pt x="367" y="681" on="0"/>
        <pt x="342" y="617" on="0"/>
        <pt x="329" y="566" on="1"/>
      </contour>
      <contour>
        <pt x="39" y="-168" on="1"/>
        <pt x="39" y="-142" on="0"/>
        <pt x="75" y="-106" on="0"/>
        <pt x="101" y="-106" on="1"/>
        <pt x="127" y="-106" on="0"/>
        <pt x="163" y="-142" on="0"/>
        <pt x="163" y="-168" on="1"/>
        <pt x="163" y="-194" on="0"/>
        <pt x="127" y="-230" on="0"/>
        <pt x="101" y="-230" on="1"/>
        <pt x="75" y="-230" on="0"/>
        <pt x="39" y="-194" on="0"/>
      </contour>
    </TTGlyph>
    <TTGlyph name="Igrave" xMin="-28" yMin="0" xMax="487" yMax="960">
      <contour>
        <pt x="224" y="168" on="1"/>
        <pt x="212" y="124" on="0"/>
        <pt x="212" y="98" on="1"/>
        <pt x="212" y="64" on="0"/>
        <pt x="255" y="40" on="0"/>
        <pt x="303" y="40" on="1"/>
        <pt x="291" y="0" on="1"/>
        <pt x="-28" y="0" on="1"/>
        <pt x="-17" y="40" on="1"/>
        <pt x="13" y="40" on="0"/>
        <pt x="55" y="49" on="0"/>
        <pt x="86" y="75" on="0"/>
        <pt x="108" y="121" on="0"/>
        <pt x="118" y="158" on="1"/>
        <pt x="235" y="600" on="1"/>
        <pt x="250" y="655" on="0"/>
        <pt x="250" y="682" on="1"/>
        <pt x="250" y="713" on="0"/>
        <pt x="205" y="730" on="0"/>
        <pt x="151" y="730" on="1"/>
        <pt x="162" y="770" on="1"/>
        <pt x="487" y="770" on="1"/>
        <pt x="476" y="730" on="1"/>
        <pt x="443" y="730" on="0"/>
        <pt x="399" y="717" on="0"/>
        <pt x="367" y="681" on="0"/>
        <pt x="342" y="617" on="0"/>
        <pt x="329" y="566" on="1"/>
      </contour>
      <contour>
        <pt x="382" y="850" on="1"/>
        <pt x="269" y="878" on="1"/>
        <pt x="240" y="885" on="0"/>
        <pt x="206" y="905" on="0"/>
        <pt x="206" y="919" on="1"/>
        <pt x="206" y="938" on="0"/>
        <pt x="237" y="960" on="0"/>
        <pt x="254" y="960" on="1"/>
        <pt x="274" y="960" on="0"/>
        <pt x="309" y="944" on="0"/>
        <pt x="332" y="927" on="1"/>
        <pt x="442" y="850" on="1"/>
      </contour>
    </TTGlyph>
    <TTGlyph name="Imacron" xMin="-28" yMin="0" xMax="501" yMax="930">
      <contour>
        <pt x="224" y="168" on="1"/>
        <pt x="212" y="124" on="0"/>
        <pt x="212" y="98" on="1"/>
        <pt x="212" y="64" on="0"/>
        <pt x="255" y="40" on="0"/>
        <pt x="303" y="40" on="1"/>
        <pt x="291" y="0" on="1"/>
        <pt x="-28" y="0" on="1"/>
        <pt x="-17" y="40" on="1"/>
        <pt x="13" y="40" on="0"/>
        <pt x="55" y="49" on="0"/>
        <pt x="86" y="75" on="0"/>
        <pt x="108" y="121" on="0"/>
        <pt x="118" y="158" on="1"/>
        <pt x="235" y="600" on="1"/>
        <pt x="250" y="655" on="0"/>
        <pt x="250" y="682" on="1"/>
        <pt x="250" y="713" on="0"/>
        <pt x="205" y="730" on="0"/>
        <pt x="151" y="730" on="1"/>
        <pt x="162" y="770" on="1"/>
        <pt x="487" y="770" on="1"/>
        <pt x="476" y="730" on="1"/>
        <pt x="443" y="730" on="0"/>
        <pt x="399" y="717" on="0"/>
        <pt x="367" y="681" on="0"/>
        <pt x="342" y="617" on="0"/>
        <pt x="329" y="566" on="1"/>
      </contour>
      <contour>
        <pt x="218" y="880" on="1"/>
        <pt x="231" y="930" on="1"/>
        <pt x="501" y="930" on="1"/>
        <pt x="488" y="880" on="1"/>
      </contour>
    </TTGlyph>
    <TTGlyph name="Iogonek" xMin="-42" yMin="-234" xMax="487" yMax="770">
      <contour>
        <pt x="212" y="-152" on="1"/>
        <pt x="181" y="-192" on="0"/>
        <pt x="100" y="-234" on="0"/>
        <pt x="55" y="-234" on="1"/>
        <pt x="9" y="-234" on="0"/>
        <pt x="-42" y="-189" on="0"/>
        <pt x="-42" y="-149" on="1"/>
        <pt x="-42" y="-105" on="0"/>
        <pt x="23" y="-28" on="0"/>
        <pt x="83" y="0" on="1"/>
        <pt x="-28" y="0" on="1"/>
        <pt x="-17" y="40" on="1"/>
        <pt x="13" y="40" on="0"/>
        <pt x="55" y="49" on="0"/>
        <pt x="86" y="75" on="0"/>
        <pt x="108" y="121" on="0"/>
        <pt x="118" y="158" on="1"/>
        <pt x="235" y="600" on="1"/>
        <pt x="250" y="655" on="0"/>
        <pt x="250" y="682" on="1"/>
        <pt x="250" y="713" on="0"/>
        <pt x="205" y="730" on="0"/>
        <pt x="151" y="730" on="1"/>
        <pt x="162" y="770" on="1"/>
        <pt x="487" y="770" on="1"/>
        <pt x="476" y="730" on="1"/>
        <pt x="443" y="730" on="0"/>
        <pt x="399" y="717" on="0"/>
        <pt x="367" y="681" on="0"/>
        <pt x="342" y="617" on="0"/>
        <pt x="329" y="566" on="1"/>
        <pt x="224" y="168" on="1"/>
        <pt x="212" y="124" on="0"/>
        <pt x="212" y="98" on="1"/>
        <pt x="212" y="64" on="0"/>
        <pt x="255" y="40" on="0"/>
        <pt x="303" y="40" on="1"/>
        <pt x="291" y="0" on="1"/>
        <pt x="148" y="0" on="1"/>
        <pt x="98" y="-26" on="0"/>
        <pt x="37" y="-96" on="0"/>
        <pt x="37" y="-126" on="1"/>
        <pt x="37" y="-146" on="0"/>
        <pt x="67" y="-174" on="0"/>
        <pt x="88" y="-174" on="1"/>
        <pt x="107" y="-174" on="0"/>
        <pt x="157" y="-147" on="0"/>
        <pt x="183" y="-121" on="1"/>
      </contour>
    </TTGlyph>
    <TTGlyph name="Itilde" xMin="-28" yMin="0" xMax="529" yMax="960">
      <contour>
        <pt x="224" y="168" on="1"/>
        <pt x="212" y="124" on="0"/>
        <pt x="212" y="98" on="1"/>
        <pt x="212" y="64" on="0"/>
        <pt x="255" y="40" on="0"/>
        <pt x="303" y="40" on="1"/>
        <pt x="291" y="0" on="1"/>
        <pt x="-28" y="0" on="1"/>
        <pt x="-17" y="40" on="1"/>
        <pt x="13" y="40" on="0"/>
        <pt x="55" y="49" on="0"/>
        <pt x="86" y="75" on="0"/>
        <pt x="108" y="121" on="0"/>
        <pt x="118" y="158" on="1"/>
        <pt x="235" y="600" on="1"/>
        <pt x="250" y="655" on="0"/>
        <pt x="250" y="682" on="1"/>
        <pt x="250" y="713" on="0"/>
        <pt x="205" y="730" on="0"/>
        <pt x="151" y="730" on="1"/>
        <pt x="162" y="770" on="1"/>
        <pt x="487" y="770" on="1"/>
        <pt x="476" y="730" on="1"/>
        <pt x="443" y="730" on="0"/>
        <pt x="399" y="717" on="0"/>
        <pt x="367" y="681" on="0"/>
        <pt x="342" y="617" on="0"/>
        <pt x="329" y="566" on="1"/>
      </contour>
      <contour>
        <pt x="188" y="846" on="1"/>
        <pt x="196" y="897" on="0"/>
        <pt x="255" y="960" on="0"/>
        <pt x="293" y="960" on="1"/>
        <pt x="315" y="960" on="0"/>
        <pt x="357" y="946" on="0"/>
        <pt x="397" y="928" on="0"/>
        <pt x="434" y="914" on="0"/>
        <pt x="452" y="914" on="1"/>
        <pt x="469" y="914" on="0"/>
        <pt x="489" y="933" on="0"/>
        <pt x="496" y="956" on="1"/>
        <pt x="529" y="956" on="1"/>
        <pt x="526" y="933" on="0"/>
        <pt x="510" y="891" on="0"/>
        <pt x="484" y="858" on="0"/>
        <pt x="450" y="838" on="0"/>
        <pt x="430" y="838" on="1"/>
        <pt x="408" y="838" on="0"/>
        <pt x="363" y="853" on="0"/>
        <pt x="320" y="871" on="0"/>
        <pt x="280" y="886" on="0"/>
        <pt x="264" y="886" on="1"/>
        <pt x="247" y="886" on="0"/>
        <pt x="229" y="868" on="0"/>
        <pt x="222" y="846" on="1"/>
      </contour>
    </TTGlyph>
    <TTGlyph name="J" xMin="-23" yMin="-10" xMax="623" yMax="770">
      <contour>
        <pt x="134" y="43" on="1"/>
        <pt x="183" y="43" on="0"/>
        <pt x="259" y="137" on="0"/>
        <pt x="282" y="222" on="1"/>
        <pt x="381" y="600" on="1"/>
        <pt x="396" y="655" on="0"/>
        <pt x="396" y="682" on="1"/>
        <pt x="396" y="696" on="0"/>
        <pt x="386" y="715" on="0"/>
        <pt x="362" y="726" on="0"/>
        <pt x="320" y="730" on="0"/>
        <pt x="287" y="730" on="1"/>
        <pt x="298" y="770" on="1"/>
        <pt x="623" y="770" on="1"/>
        <pt x="612" y="730" on="1"/>
        <pt x="582" y="730" on="0"/>
        <pt x="541" y="718" on="0"/>
        <pt x="512" y="682" on="0"/>
        <pt x="488" y="618" on="0"/>
        <pt x="475" y="566" on="1"/>
        <pt x="375" y="186" on="1"/>
        <pt x="350" y="91" on="0"/>
        <pt x="225" y="-10" on="0"/>
        <pt x="135" y="-10" on="1"/>
        <pt x="59" y="-10" on="0"/>
        <pt x="-23" y="58" on="0"/>
        <pt x="-23" y="121" on="1"/>
        <pt x="-23" y="169" on="0"/>
        <pt x="27" y="231" on="0"/>
        <pt x="65" y="231" on="1"/>
        <pt x="92" y="231" on="0"/>
        <pt x="127" y="199" on="0"/>
        <pt x="127" y="173" on="1"/>
        <pt x="127" y="154" on="0"/>
        <pt x="111" y="133" on="0"/>
        <pt x="91" y="116" on="0"/>
        <pt x="75" y="100" on="0"/>
        <pt x="75" y="87" on="1"/>
        <pt x="75" y="67" on="0"/>
        <pt x="108" y="43" on="0"/>
      </contour>
    </TTGlyph>
    <TTGlyph name="Jcircumflex" xMin="-23" yMin="-10" xMax="645" yMax="960">
      <contour>
        <pt x="134" y="43" on="1"/>
        <pt x="183" y="43" on="0"/>
        <pt x="259" y="137" on="0"/>
        <pt x="282" y="222" on="1"/>
        <pt x="381" y="600" on="1"/>
        <pt x="396" y="655" on="0"/>
        <pt x="396" y="682" on="1"/>
        <pt x="396" y="696" on="0"/>
        <pt x="386" y="715" on="0"/>
        <pt x="362" y="726" on="0"/>
        <pt x="320" y="730" on="0"/>
        <pt x="287" y="730" on="1"/>
        <pt x="298" y="770" on="1"/>
        <pt x="623" y="770" on="1"/>
        <pt x="612" y="730" on="1"/>
        <pt x="582" y="730" on="0"/>
        <pt x="541" y="718" on="0"/>
        <pt x="512" y="682" on="0"/>
        <pt x="488" y="618" on="0"/>
        <pt x="475" y="566" on="1"/>
        <pt x="375" y="186" on="1"/>
        <pt x="350" y="91" on="0"/>
        <pt x="225" y="-10" on="0"/>
        <pt x="135" y="-10" on="1"/>
        <pt x="59" y="-10" on="0"/>
        <pt x="-23" y="58" on="0"/>
        <pt x="-23" y="121" on="1"/>
        <pt x="-23" y="169" on="0"/>
        <pt x="27" y="231" on="0"/>
        <pt x="65" y="231" on="1"/>
        <pt x="92" y="231" on="0"/>
        <pt x="127" y="199" on="0"/>
        <pt x="127" y="173" on="1"/>
        <pt x="127" y="154" on="0"/>
        <pt x="111" y="133" on="0"/>
        <pt x="91" y="116" on="0"/>
        <pt x="75" y="100" on="0"/>
        <pt x="75" y="87" on="1"/>
        <pt x="75" y="67" on="0"/>
        <pt x="108" y="43" on="0"/>
      </contour>
      <contour>
        <pt x="565" y="960" on="1"/>
        <pt x="645" y="851" on="1"/>
        <pt x="600" y="851" on="1"/>
        <pt x="495" y="905" on="1"/>
        <pt x="362" y="851" on="1"/>
        <pt x="317" y="851" on="1"/>
        <pt x="455" y="960" on="1"/>
      </contour>
    </TTGlyph>
    <TTGlyph name="K" xMin="-19" yMin="0" xMax="846" yMax="770">
      <contour>
        <pt x="291" y="427" on="1"/>
        <pt x="498" y="575" on="1"/>
        <pt x="561" y="620" on="0"/>
        <pt x="619" y="683" on="0"/>
        <pt x="619" y="702" on="1"/>
        <pt x="619" y="730" on="0"/>
        <pt x="552" y="730" on="1"/>
        <pt x="562" y="770" on="1"/>
        <pt x="846" y="770" on="1"/>
        <pt x="836" y="730" on="1"/>
        <pt x="820" y="730" on="0"/>
        <pt x="786" y="716" on="0"/>
        <pt x="727" y="678" on="0"/>
        <pt x="631" y="608" on="0"/>
        <pt x="552" y="553" on="1"/>
        <pt x="398" y="445" on="1"/>
        <pt x="594" y="187" on="1"/>
        <pt x="634" y="134" on="0"/>
        <pt x="683" y="74" on="0"/>
        <pt x="718" y="46" on="0"/>
        <pt x="748" y="40" on="0"/>
        <pt x="768" y="40" on="1"/>
        <pt x="757" y="0" on="1"/>
        <pt x="443" y="0" on="1"/>
        <pt x="454" y="40" on="1"/>
        <pt x="489" y="40" on="0"/>
        <pt x="528" y="51" on="0"/>
        <pt x="528" y="68" on="1"/>
        <pt x="528" y="82" on="0"/>
        <pt x="500" y="133" on="0"/>
        <pt x="471" y="173" on="1"/>
        <pt x="313" y="385" on="1"/>
        <pt x="273" y="357" on="1"/>
        <pt x="223" y="168" on="1"/>
        <pt x="211" y="124" on="0"/>
        <pt x="211" y="98" on="1"/>
        <pt x="211" y="64" on="0"/>
        <pt x="258" y="40" on="0"/>
        <pt x="313" y="40" on="1"/>
        <pt x="300" y="0" on="1"/>
        <pt x="-19" y="0" on="1"/>
        <pt x="-8" y="40" on="1"/>
        <pt x="20" y="40" on="0"/>
        <pt x="58" y="49" on="0"/>
        <pt x="87" y="75" on="0"/>
        <pt x="107" y="121" on="0"/>
        <pt x="117" y="158" on="1"/>
        <pt x="234" y="600" on="1"/>
        <pt x="249" y="655" on="0"/>
        <pt x="249" y="682" on="1"/>
        <pt x="249" y="713" on="0"/>
        <pt x="204" y="730" on="0"/>
        <pt x="150" y="730" on="1"/>
        <pt x="161" y="770" on="1"/>
        <pt x="486" y="770" on="1"/>
        <pt x="475" y="730" on="1"/>
        <pt x="442" y="730" on="0"/>
        <pt x="398" y="717" on="0"/>
        <pt x="366" y="681" on="0"/>
        <pt x="341" y="617" on="0"/>
        <pt x="328" y="566" on="1"/>
      </contour>
    </TTGlyph>
    <TTGlyph name="Kcommaaccent" xMin="-19" yMin="-250" xMax="846" yMax="770">
      <contour>
        <pt x="291" y="427" on="1"/>
        <pt x="498" y="575" on="1"/>
        <pt x="561" y="620" on="0"/>
        <pt x="619" y="683" on="0"/>
        <pt x="619" y="702" on="1"/>
        <pt x="619" y="730" on="0"/>
        <pt x="552" y="730" on="1"/>
        <pt x="562" y="770" on="1"/>
        <pt x="846" y="770" on="1"/>
        <pt x="836" y="730" on="1"/>
        <pt x="820" y="730" on="0"/>
        <pt x="786" y="716" on="0"/>
        <pt x="727" y="678" on="0"/>
        <pt x="631" y="608" on="0"/>
        <pt x="552" y="553" on="1"/>
        <pt x="398" y="445" on="1"/>
        <pt x="594" y="187" on="1"/>
        <pt x="634" y="134" on="0"/>
        <pt x="683" y="74" on="0"/>
        <pt x="718" y="46" on="0"/>
        <pt x="748" y="40" on="0"/>
        <pt x="768" y="40" on="1"/>
        <pt x="757" y="0" on="1"/>
        <pt x="443" y="0" on="1"/>
        <pt x="454" y="40" on="1"/>
        <pt x="489" y="40" on="0"/>
        <pt x="528" y="51" on="0"/>
        <pt x="528" y="68" on="1"/>
        <pt x="528" y="82" on="0"/>
        <pt x="500" y="133" on="0"/>
        <pt x="471" y="173" on="1"/>
        <pt x="313" y="385" on="1"/>
        <pt x="273" y="357" on="1"/>
        <pt x="223" y="168" on="1"/>
        <pt x="211" y="124" on="0"/>
        <pt x="211" y="98" on="1"/>
        <pt x="211" y="64" on="0"/>
        <pt x="258" y="40" on="0"/>
        <pt x="312" y="40" on="1"/>
        <pt x="300" y="0" on="1"/>
        <pt x="-19" y="0" on="1"/>
        <pt x="-8" y="40" on="1"/>
        <pt x="20" y="40" on="0"/>
        <pt x="58" y="49" on="0"/>
        <pt x="87" y="75" on="0"/>
        <pt x="107" y="121" on="0"/>
        <pt x="117" y="158" on="1"/>
        <pt x="234" y="600" on="1"/>
        <pt x="249" y="655" on="0"/>
        <pt x="249" y="682" on="1"/>
        <pt x="249" y="713" on="0"/>
        <pt x="204" y="730" on="0"/>
        <pt x="150" y="730" on="1"/>
        <pt x="161" y="770" on="1"/>
        <pt x="486" y="770" on="1"/>
        <pt x="475" y="730" on="1"/>
        <pt x="442" y="730" on="0"/>
        <pt x="398" y="717" on="0"/>
        <pt x="366" y="681" on="0"/>
        <pt x="341" y="617" on="0"/>
        <pt x="328" y="566" on="1"/>
      </contour>
      <contour>
        <pt x="304" y="-224" on="1"/>
        <pt x="338" y="-205" on="0"/>
        <pt x="369" y="-168" on="0"/>
        <pt x="369" y="-146" on="1"/>
        <pt x="359" y="-154" on="0"/>
        <pt x="343" y="-154" on="1"/>
        <pt x="323" y="-154" on="0"/>
        <pt x="299" y="-128" on="0"/>
        <pt x="299" y="-107" on="1"/>
        <pt x="299" y="-84" on="0"/>
        <pt x="332" y="-54" on="0"/>
        <pt x="358" y="-54" on="1"/>
        <pt x="388" y="-54" on="0"/>
        <pt x="421" y="-95" on="0"/>
        <pt x="421" y="-133" on="1"/>
        <pt x="421" y="-165" on="0"/>
        <pt x="378" y="-222" on="0"/>
        <pt x="326" y="-250" on="1"/>
      </contour>
    </TTGlyph>
    <TTGlyph name="L" xMin="-25" yMin="0" xMax="656" yMax="770">
      <contour>
        <pt x="-14" y="40" on="1"/>
        <pt x="19" y="40" on="0"/>
        <pt x="62" y="50" on="0"/>
        <pt x="91" y="77" on="0"/>
        <pt x="111" y="122" on="0"/>
        <pt x="120" y="158" on="1"/>
        <pt x="233" y="600" on="1"/>
        <pt x="240" y="628" on="0"/>
        <pt x="248" y="668" on="0"/>
        <pt x="248" y="682" on="1"/>
        <pt x="248" y="709" on="0"/>
        <pt x="213" y="730" on="0"/>
        <pt x="171" y="730" on="1"/>
        <pt x="149" y="730" on="1"/>
        <pt x="160" y="770" on="1"/>
        <pt x="485" y="770" on="1"/>
        <pt x="474" y="730" on="1"/>
        <pt x="441" y="730" on="0"/>
        <pt x="397" y="717" on="0"/>
        <pt x="365" y="681" on="0"/>
        <pt x="340" y="617" on="0"/>
        <pt x="327" y="566" on="1"/>
        <pt x="223" y="170" on="1"/>
        <pt x="214" y="137" on="0"/>
        <pt x="214" y="114" on="1"/>
        <pt x="214" y="78" on="0"/>
        <pt x="263" y="43" on="0"/>
        <pt x="326" y="43" on="1"/>
        <pt x="386" y="43" on="0"/>
        <pt x="473" y="63" on="0"/>
        <pt x="539" y="108" on="0"/>
        <pt x="588" y="179" on="0"/>
        <pt x="609" y="231" on="1"/>
        <pt x="656" y="231" on="1"/>
        <pt x="568" y="0" on="1"/>
        <pt x="-25" y="0" on="1"/>
      </contour>
    </TTGlyph>
    <TTGlyph name="Lacute" xMin="-25" yMin="0" xMax="656" yMax="960">
      <contour>
        <pt x="-14" y="40" on="1"/>
        <pt x="19" y="40" on="0"/>
        <pt x="62" y="50" on="0"/>
        <pt x="91" y="77" on="0"/>
        <pt x="111" y="122" on="0"/>
        <pt x="120" y="158" on="1"/>
        <pt x="233" y="600" on="1"/>
        <pt x="240" y="628" on="0"/>
        <pt x="248" y="668" on="0"/>
        <pt x="248" y="682" on="1"/>
        <pt x="248" y="713" on="0"/>
        <pt x="203" y="730" on="0"/>
        <pt x="149" y="730" on="1"/>
        <pt x="160" y="770" on="1"/>
        <pt x="485" y="770" on="1"/>
        <pt x="474" y="730" on="1"/>
        <pt x="441" y="730" on="0"/>
        <pt x="397" y="717" on="0"/>
        <pt x="365" y="681" on="0"/>
        <pt x="340" y="617" on="0"/>
        <pt x="327" y="566" on="1"/>
        <pt x="223" y="170" on="1"/>
        <pt x="214" y="137" on="0"/>
        <pt x="214" y="114" on="1"/>
        <pt x="214" y="78" on="0"/>
        <pt x="263" y="43" on="0"/>
        <pt x="326" y="43" on="1"/>
        <pt x="386" y="43" on="0"/>
        <pt x="473" y="63" on="0"/>
        <pt x="539" y="108" on="0"/>
        <pt x="588" y="179" on="0"/>
        <pt x="609" y="231" on="1"/>
        <pt x="656" y="231" on="1"/>
        <pt x="568" y="0" on="1"/>
        <pt x="-25" y="0" on="1"/>
      </contour>
      <contour>
        <pt x="224" y="850" on="1"/>
        <pt x="374" y="927" on="1"/>
        <pt x="406" y="944" on="0"/>
        <pt x="450" y="960" on="0"/>
        <pt x="470" y="960" on="1"/>
        <pt x="500" y="960" on="0"/>
        <pt x="500" y="935" on="1"/>
        <pt x="500" y="915" on="0"/>
        <pt x="454" y="887" on="0"/>
        <pt x="411" y="878" on="1"/>
        <pt x="284" y="850" on="1"/>
      </contour>
    </TTGlyph>
    <TTGlyph name="Lcaron" xMin="-25" yMin="0" xMax="656" yMax="960">
      <contour>
        <pt x="-14" y="40" on="1"/>
        <pt x="19" y="40" on="0"/>
        <pt x="62" y="50" on="0"/>
        <pt x="91" y="77" on="0"/>
        <pt x="111" y="122" on="0"/>
        <pt x="120" y="158" on="1"/>
        <pt x="233" y="600" on="1"/>
        <pt x="240" y="628" on="0"/>
        <pt x="248" y="668" on="0"/>
        <pt x="248" y="682" on="1"/>
        <pt x="248" y="713" on="0"/>
        <pt x="203" y="730" on="0"/>
        <pt x="149" y="730" on="1"/>
        <pt x="160" y="770" on="1"/>
        <pt x="485" y="770" on="1"/>
        <pt x="474" y="730" on="1"/>
        <pt x="441" y="730" on="0"/>
        <pt x="397" y="717" on="0"/>
        <pt x="365" y="681" on="0"/>
        <pt x="340" y="617" on="0"/>
        <pt x="327" y="566" on="1"/>
        <pt x="223" y="170" on="1"/>
        <pt x="214" y="137" on="0"/>
        <pt x="214" y="114" on="1"/>
        <pt x="214" y="78" on="0"/>
        <pt x="263" y="43" on="0"/>
        <pt x="326" y="43" on="1"/>
        <pt x="386" y="43" on="0"/>
        <pt x="473" y="63" on="0"/>
        <pt x="539" y="108" on="0"/>
        <pt x="588" y="179" on="0"/>
        <pt x="609" y="231" on="1"/>
        <pt x="656" y="231" on="1"/>
        <pt x="568" y="0" on="1"/>
        <pt x="-25" y="0" on="1"/>
      </contour>
      <contour>
        <pt x="269" y="851" on="1"/>
        <pt x="189" y="960" on="1"/>
        <pt x="234" y="960" on="1"/>
        <pt x="339" y="906" on="1"/>
        <pt x="472" y="960" on="1"/>
        <pt x="517" y="960" on="1"/>
        <pt x="379" y="851" on="1"/>
      </contour>
    </TTGlyph>
    <TTGlyph name="Lcommaaccent" xMin="-25" yMin="-250" xMax="656" yMax="770">
      <contour>
        <pt x="-14" y="40" on="1"/>
        <pt x="19" y="40" on="0"/>
        <pt x="62" y="50" on="0"/>
        <pt x="91" y="77" on="0"/>
        <pt x="111" y="122" on="0"/>
        <pt x="120" y="158" on="1"/>
        <pt x="233" y="600" on="1"/>
        <pt x="240" y="628" on="0"/>
        <pt x="248" y="668" on="0"/>
        <pt x="248" y="682" on="1"/>
        <pt x="248" y="713" on="0"/>
        <pt x="203" y="730" on="0"/>
        <pt x="149" y="730" on="1"/>
        <pt x="160" y="770" on="1"/>
        <pt x="485" y="770" on="1"/>
        <pt x="474" y="730" on="1"/>
        <pt x="441" y="730" on="0"/>
        <pt x="397" y="717" on="0"/>
        <pt x="365" y="681" on="0"/>
        <pt x="340" y="617" on="0"/>
        <pt x="327" y="566" on="1"/>
        <pt x="223" y="170" on="1"/>
        <pt x="214" y="137" on="0"/>
        <pt x="214" y="114" on="1"/>
        <pt x="214" y="78" on="0"/>
        <pt x="263" y="43" on="0"/>
        <pt x="326" y="43" on="1"/>
        <pt x="386" y="43" on="0"/>
        <pt x="473" y="63" on="0"/>
        <pt x="539" y="108" on="0"/>
        <pt x="588" y="179" on="0"/>
        <pt x="609" y="231" on="1"/>
        <pt x="656" y="231" on="1"/>
        <pt x="568" y="0" on="1"/>
        <pt x="-25" y="0" on="1"/>
      </contour>
      <contour>
        <pt x="224" y="-224" on="1"/>
        <pt x="258" y="-205" on="0"/>
        <pt x="289" y="-168" on="0"/>
        <pt x="289" y="-146" on="1"/>
        <pt x="279" y="-154" on="0"/>
        <pt x="263" y="-154" on="1"/>
        <pt x="243" y="-154" on="0"/>
        <pt x="219" y="-128" on="0"/>
        <pt x="219" y="-107" on="1"/>
        <pt x="219" y="-84" on="0"/>
        <pt x="252" y="-54" on="0"/>
        <pt x="278" y="-54" on="1"/>
        <pt x="308" y="-54" on="0"/>
        <pt x="341" y="-95" on="0"/>
        <pt x="341" y="-133" on="1"/>
        <pt x="341" y="-165" on="0"/>
        <pt x="298" y="-222" on="0"/>
        <pt x="246" y="-250" on="1"/>
      </contour>
    </TTGlyph>
    <TTGlyph name="Ldot" xMin="-25" yMin="0" xMax="656" yMax="770">
      <contour>
        <pt x="-14" y="40" on="1"/>
        <pt x="19" y="40" on="0"/>
        <pt x="62" y="50" on="0"/>
        <pt x="91" y="77" on="0"/>
        <pt x="111" y="122" on="0"/>
        <pt x="120" y="158" on="1"/>
        <pt x="233" y="600" on="1"/>
        <pt x="240" y="628" on="0"/>
        <pt x="248" y="668" on="0"/>
        <pt x="248" y="682" on="1"/>
        <pt x="248" y="713" on="0"/>
        <pt x="203" y="730" on="0"/>
        <pt x="149" y="730" on="1"/>
        <pt x="160" y="770" on="1"/>
        <pt x="485" y="770" on="1"/>
        <pt x="474" y="730" on="1"/>
        <pt x="441" y="730" on="0"/>
        <pt x="397" y="717" on="0"/>
        <pt x="365" y="681" on="0"/>
        <pt x="340" y="617" on="0"/>
        <pt x="327" y="566" on="1"/>
        <pt x="223" y="170" on="1"/>
        <pt x="214" y="137" on="0"/>
        <pt x="214" y="114" on="1"/>
        <pt x="214" y="78" on="0"/>
        <pt x="263" y="43" on="0"/>
        <pt x="326" y="43" on="1"/>
        <pt x="386" y="43" on="0"/>
        <pt x="473" y="63" on="0"/>
        <pt x="539" y="108" on="0"/>
        <pt x="588" y="179" on="0"/>
        <pt x="609" y="231" on="1"/>
        <pt x="656" y="231" on="1"/>
        <pt x="568" y="0" on="1"/>
        <pt x="-25" y="0" on="1"/>
      </contour>
      <contour>
        <pt x="416" y="400" on="1"/>
        <pt x="416" y="426" on="0"/>
        <pt x="452" y="462" on="0"/>
        <pt x="478" y="462" on="1"/>
        <pt x="504" y="462" on="0"/>
        <pt x="540" y="426" on="0"/>
        <pt x="540" y="400" on="1"/>
        <pt x="540" y="374" on="0"/>
        <pt x="504" y="338" on="0"/>
        <pt x="478" y="338" on="1"/>
        <pt x="452" y="338" on="0"/>
        <pt x="416" y="374" on="0"/>
      </contour>
    </TTGlyph>
    <TTGlyph name="Lslash" xMin="-23" yMin="0" xMax="658" yMax="770">
      <contour>
        <pt x="-12" y="40" on="1"/>
        <pt x="21" y="40" on="0"/>
        <pt x="64" y="50" on="0"/>
        <pt x="93" y="77" on="0"/>
        <pt x="113" y="122" on="0"/>
        <pt x="122" y="158" on="1"/>
        <pt x="169" y="344" on="1"/>
        <pt x="83" y="298" on="1"/>
        <pt x="100" y="363" on="1"/>
        <pt x="186" y="408" on="1"/>
        <pt x="235" y="600" on="1"/>
        <pt x="242" y="628" on="0"/>
        <pt x="250" y="668" on="0"/>
        <pt x="250" y="682" on="1"/>
        <pt x="250" y="713" on="0"/>
        <pt x="205" y="730" on="0"/>
        <pt x="151" y="730" on="1"/>
        <pt x="162" y="770" on="1"/>
        <pt x="487" y="770" on="1"/>
        <pt x="476" y="730" on="1"/>
        <pt x="443" y="730" on="0"/>
        <pt x="399" y="717" on="0"/>
        <pt x="367" y="681" on="0"/>
        <pt x="342" y="617" on="0"/>
        <pt x="329" y="566" on="1"/>
        <pt x="304" y="471" on="1"/>
        <pt x="411" y="528" on="1"/>
        <pt x="394" y="463" on="1"/>
        <pt x="287" y="406" on="1"/>
        <pt x="225" y="170" on="1"/>
        <pt x="216" y="137" on="0"/>
        <pt x="216" y="114" on="1"/>
        <pt x="216" y="78" on="0"/>
        <pt x="265" y="43" on="0"/>
        <pt x="328" y="43" on="1"/>
        <pt x="388" y="43" on="0"/>
        <pt x="475" y="63" on="0"/>
        <pt x="541" y="108" on="0"/>
        <pt x="590" y="179" on="0"/>
        <pt x="611" y="231" on="1"/>
        <pt x="658" y="231" on="1"/>
        <pt x="570" y="0" on="1"/>
        <pt x="-23" y="0" on="1"/>
      </contour>
    </TTGlyph>
    <TTGlyph name="M" xMin="-27" yMin="0" xMax="1066" yMax="770">
      <contour>
        <pt x="845" y="655" on="1"/>
        <pt x="435" y="0" on="1"/>
        <pt x="392" y="0" on="1"/>
        <pt x="314" y="655" on="1"/>
        <pt x="310" y="655" on="1"/>
        <pt x="182" y="168" on="1"/>
        <pt x="179" y="156" on="0"/>
        <pt x="175" y="134" on="0"/>
        <pt x="175" y="124" on="1"/>
        <pt x="175" y="82" on="0"/>
        <pt x="222" y="41" on="0"/>
        <pt x="261" y="40" on="1"/>
        <pt x="249" y="0" on="1"/>
        <pt x="-27" y="0" on="1"/>
        <pt x="-16" y="40" on="1"/>
        <pt x="31" y="40" on="0"/>
        <pt x="105" y="107" on="0"/>
        <pt x="119" y="158" on="1"/>
        <pt x="236" y="600" on="1"/>
        <pt x="251" y="655" on="0"/>
        <pt x="251" y="682" on="1"/>
        <pt x="251" y="713" on="0"/>
        <pt x="206" y="730" on="0"/>
        <pt x="152" y="730" on="1"/>
        <pt x="163" y="770" on="1"/>
        <pt x="403" y="770" on="1"/>
        <pt x="474" y="174" on="1"/>
        <pt x="478" y="174" on="1"/>
        <pt x="855" y="770" on="1"/>
        <pt x="1066" y="770" on="1"/>
        <pt x="1055" y="730" on="1"/>
        <pt x="1026" y="730" on="0"/>
        <pt x="990" y="717" on="0"/>
        <pt x="963" y="681" on="0"/>
        <pt x="941" y="617" on="0"/>
        <pt x="928" y="566" on="1"/>
        <pt x="823" y="168" on="1"/>
        <pt x="811" y="124" on="0"/>
        <pt x="811" y="98" on="1"/>
        <pt x="811" y="64" on="0"/>
        <pt x="858" y="40" on="0"/>
        <pt x="912" y="40" on="1"/>
        <pt x="900" y="0" on="1"/>
        <pt x="581" y="0" on="1"/>
        <pt x="592" y="40" on="1"/>
        <pt x="619" y="40" on="0"/>
        <pt x="657" y="49" on="0"/>
        <pt x="686" y="75" on="0"/>
        <pt x="707" y="121" on="0"/>
        <pt x="717" y="158" on="1"/>
        <pt x="849" y="655" on="1"/>
      </contour>
    </TTGlyph>
    <TTGlyph name="N" xMin="-9" yMin="0" xMax="908" yMax="770">
      <contour>
        <pt x="580" y="0" on="1"/>
        <pt x="318" y="602" on="1"/>
        <pt x="314" y="602" on="1"/>
        <pt x="200" y="168" on="1"/>
        <pt x="194" y="144" on="0"/>
        <pt x="194" y="125" on="1"/>
        <pt x="194" y="83" on="0"/>
        <pt x="244" y="41" on="0"/>
        <pt x="289" y="40" on="1"/>
        <pt x="277" y="0" on="1"/>
        <pt x="-9" y="0" on="1"/>
        <pt x="2" y="40" on="1"/>
        <pt x="49" y="40" on="0"/>
        <pt x="123" y="107" on="0"/>
        <pt x="137" y="158" on="1"/>
        <pt x="255" y="602" on="1"/>
        <pt x="259" y="617" on="0"/>
        <pt x="259" y="633" on="1"/>
        <pt x="259" y="681" on="0"/>
        <pt x="178" y="729" on="0"/>
        <pt x="112" y="730" on="1"/>
        <pt x="124" y="770" on="1"/>
        <pt x="359" y="770" on="1"/>
        <pt x="609" y="197" on="1"/>
        <pt x="613" y="197" on="1"/>
        <pt x="719" y="602" on="1"/>
        <pt x="724" y="624" on="0"/>
        <pt x="724" y="639" on="1"/>
        <pt x="724" y="682" on="0"/>
        <pt x="675" y="729" on="0"/>
        <pt x="640" y="730" on="1"/>
        <pt x="652" y="770" on="1"/>
        <pt x="908" y="770" on="1"/>
        <pt x="897" y="730" on="1"/>
        <pt x="878" y="730" on="0"/>
        <pt x="842" y="712" on="0"/>
        <pt x="812" y="681" on="0"/>
        <pt x="789" y="637" on="0"/>
        <pt x="782" y="612" on="1"/>
        <pt x="620" y="0" on="1"/>
      </contour>
    </TTGlyph>
    <TTGlyph name="Nacute" xMin="-9" yMin="0" xMax="908" yMax="960">
      <contour>
        <pt x="580" y="0" on="1"/>
        <pt x="318" y="602" on="1"/>
        <pt x="314" y="602" on="1"/>
        <pt x="200" y="168" on="1"/>
        <pt x="194" y="144" on="0"/>
        <pt x="194" y="125" on="1"/>
        <pt x="194" y="83" on="0"/>
        <pt x="244" y="41" on="0"/>
        <pt x="289" y="40" on="1"/>
        <pt x="277" y="0" on="1"/>
        <pt x="-9" y="0" on="1"/>
        <pt x="2" y="40" on="1"/>
        <pt x="49" y="40" on="0"/>
        <pt x="123" y="107" on="0"/>
        <pt x="137" y="158" on="1"/>
        <pt x="255" y="602" on="1"/>
        <pt x="259" y="617" on="0"/>
        <pt x="259" y="633" on="1"/>
        <pt x="259" y="681" on="0"/>
        <pt x="178" y="729" on="0"/>
        <pt x="112" y="730" on="1"/>
        <pt x="124" y="770" on="1"/>
        <pt x="359" y="770" on="1"/>
        <pt x="609" y="197" on="1"/>
        <pt x="613" y="197" on="1"/>
        <pt x="719" y="602" on="1"/>
        <pt x="724" y="624" on="0"/>
        <pt x="724" y="639" on="1"/>
        <pt x="724" y="682" on="0"/>
        <pt x="675" y="729" on="0"/>
        <pt x="640" y="730" on="1"/>
        <pt x="652" y="770" on="1"/>
        <pt x="908" y="770" on="1"/>
        <pt x="897" y="730" on="1"/>
        <pt x="878" y="730" on="0"/>
        <pt x="842" y="712" on="0"/>
        <pt x="812" y="681" on="0"/>
        <pt x="789" y="637" on="0"/>
        <pt x="782" y="612" on="1"/>
        <pt x="620" y="0" on="1"/>
      </contour>
      <contour>
        <pt x="442" y="850" on="1"/>
        <pt x="592" y="927" on="1"/>
        <pt x="624" y="944" on="0"/>
        <pt x="668" y="960" on="0"/>
        <pt x="688" y="960" on="1"/>
        <pt x="718" y="960" on="0"/>
        <pt x="718" y="935" on="1"/>
        <pt x="718" y="915" on="0"/>
        <pt x="672" y="887" on="0"/>
        <pt x="629" y="878" on="1"/>
        <pt x="502" y="850" on="1"/>
      </contour>
    </TTGlyph>
    <TTGlyph name="Ncaron" xMin="-9" yMin="0" xMax="908" yMax="960">
      <contour>
        <pt x="580" y="0" on="1"/>
        <pt x="318" y="602" on="1"/>
        <pt x="314" y="602" on="1"/>
        <pt x="200" y="168" on="1"/>
        <pt x="194" y="144" on="0"/>
        <pt x="194" y="125" on="1"/>
        <pt x="194" y="83" on="0"/>
        <pt x="244" y="41" on="0"/>
        <pt x="289" y="40" on="1"/>
        <pt x="277" y="0" on="1"/>
        <pt x="-9" y="0" on="1"/>
        <pt x="2" y="40" on="1"/>
        <pt x="49" y="40" on="0"/>
        <pt x="123" y="107" on="0"/>
        <pt x="137" y="158" on="1"/>
        <pt x="255" y="602" on="1"/>
        <pt x="259" y="617" on="0"/>
        <pt x="259" y="633" on="1"/>
        <pt x="259" y="681" on="0"/>
        <pt x="178" y="729" on="0"/>
        <pt x="112" y="730" on="1"/>
        <pt x="124" y="770" on="1"/>
        <pt x="359" y="770" on="1"/>
        <pt x="609" y="197" on="1"/>
        <pt x="613" y="197" on="1"/>
        <pt x="719" y="602" on="1"/>
        <pt x="724" y="624" on="0"/>
        <pt x="724" y="639" on="1"/>
        <pt x="724" y="682" on="0"/>
        <pt x="675" y="729" on="0"/>
        <pt x="640" y="730" on="1"/>
        <pt x="652" y="770" on="1"/>
        <pt x="908" y="770" on="1"/>
        <pt x="897" y="730" on="1"/>
        <pt x="878" y="730" on="0"/>
        <pt x="842" y="712" on="0"/>
        <pt x="812" y="681" on="0"/>
        <pt x="789" y="637" on="0"/>
        <pt x="782" y="612" on="1"/>
        <pt x="620" y="0" on="1"/>
      </contour>
      <contour>
        <pt x="487" y="851" on="1"/>
        <pt x="407" y="960" on="1"/>
        <pt x="452" y="960" on="1"/>
        <pt x="557" y="906" on="1"/>
        <pt x="690" y="960" on="1"/>
        <pt x="735" y="960" on="1"/>
        <pt x="597" y="851" on="1"/>
      </contour>
    </TTGlyph>
    <TTGlyph name="Ncommaaccent" xMin="-9" yMin="-250" xMax="908" yMax="770">
      <contour>
        <pt x="580" y="0" on="1"/>
        <pt x="318" y="602" on="1"/>
        <pt x="314" y="602" on="1"/>
        <pt x="200" y="168" on="1"/>
        <pt x="194" y="144" on="0"/>
        <pt x="194" y="125" on="1"/>
        <pt x="194" y="83" on="0"/>
        <pt x="244" y="41" on="0"/>
        <pt x="289" y="40" on="1"/>
        <pt x="277" y="0" on="1"/>
        <pt x="-9" y="0" on="1"/>
        <pt x="2" y="40" on="1"/>
        <pt x="49" y="40" on="0"/>
        <pt x="123" y="107" on="0"/>
        <pt x="137" y="158" on="1"/>
        <pt x="255" y="602" on="1"/>
        <pt x="259" y="617" on="0"/>
        <pt x="259" y="633" on="1"/>
        <pt x="259" y="681" on="0"/>
        <pt x="178" y="729" on="0"/>
        <pt x="112" y="730" on="1"/>
        <pt x="124" y="770" on="1"/>
        <pt x="359" y="770" on="1"/>
        <pt x="609" y="197" on="1"/>
        <pt x="613" y="197" on="1"/>
        <pt x="719" y="602" on="1"/>
        <pt x="724" y="624" on="0"/>
        <pt x="724" y="639" on="1"/>
        <pt x="724" y="682" on="0"/>
        <pt x="675" y="729" on="0"/>
        <pt x="640" y="730" on="1"/>
        <pt x="652" y="770" on="1"/>
        <pt x="908" y="770" on="1"/>
        <pt x="897" y="730" on="1"/>
        <pt x="878" y="730" on="0"/>
        <pt x="842" y="712" on="0"/>
        <pt x="812" y="681" on="0"/>
        <pt x="789" y="637" on="0"/>
        <pt x="782" y="612" on="1"/>
        <pt x="620" y="0" on="1"/>
      </contour>
      <contour>
        <pt x="330" y="-224" on="1"/>
        <pt x="364" y="-205" on="0"/>
        <pt x="395" y="-168" on="0"/>
        <pt x="395" y="-146" on="1"/>
        <pt x="385" y="-154" on="0"/>
        <pt x="369" y="-154" on="1"/>
        <pt x="349" y="-154" on="0"/>
        <pt x="325" y="-128" on="0"/>
        <pt x="325" y="-107" on="1"/>
        <pt x="325" y="-84" on="0"/>
        <pt x="358" y="-54" on="0"/>
        <pt x="384" y="-54" on="1"/>
        <pt x="414" y="-54" on="0"/>
        <pt x="447" y="-95" on="0"/>
        <pt x="447" y="-133" on="1"/>
        <pt x="447" y="-165" on="0"/>
        <pt x="404" y="-222" on="0"/>
        <pt x="352" y="-250" on="1"/>
      </contour>
    </TTGlyph>
    <TTGlyph name="Ndotaccent" xMin="-9" yMin="0" xMax="908" yMax="959">
      <contour>
        <pt x="580" y="0" on="1"/>
        <pt x="318" y="602" on="1"/>
        <pt x="314" y="602" on="1"/>
        <pt x="200" y="168" on="1"/>
        <pt x="194" y="144" on="0"/>
        <pt x="194" y="125" on="1"/>
        <pt x="194" y="83" on="0"/>
        <pt x="244" y="41" on="0"/>
        <pt x="289" y="40" on="1"/>
        <pt x="277" y="0" on="1"/>
        <pt x="-9" y="0" on="1"/>
        <pt x="2" y="40" on="1"/>
        <pt x="49" y="40" on="0"/>
        <pt x="123" y="107" on="0"/>
        <pt x="137" y="158" on="1"/>
        <pt x="255" y="602" on="1"/>
        <pt x="259" y="617" on="0"/>
        <pt x="259" y="633" on="1"/>
        <pt x="259" y="681" on="0"/>
        <pt x="178" y="729" on="0"/>
        <pt x="112" y="730" on="1"/>
        <pt x="124" y="770" on="1"/>
        <pt x="359" y="770" on="1"/>
        <pt x="609" y="197" on="1"/>
        <pt x="613" y="197" on="1"/>
        <pt x="719" y="602" on="1"/>
        <pt x="724" y="624" on="0"/>
        <pt x="724" y="639" on="1"/>
        <pt x="724" y="682" on="0"/>
        <pt x="675" y="729" on="0"/>
        <pt x="640" y="730" on="1"/>
        <pt x="652" y="770" on="1"/>
        <pt x="908" y="770" on="1"/>
        <pt x="897" y="730" on="1"/>
        <pt x="878" y="730" on="0"/>
        <pt x="842" y="712" on="0"/>
        <pt x="812" y="681" on="0"/>
        <pt x="789" y="637" on="0"/>
        <pt x="782" y="612" on="1"/>
        <pt x="620" y="0" on="1"/>
      </contour>
      <contour>
        <pt x="505" y="904" on="1"/>
        <pt x="505" y="927" on="0"/>
        <pt x="536" y="959" on="0"/>
        <pt x="557" y="959" on="1"/>
        <pt x="580" y="959" on="0"/>
        <pt x="612" y="927" on="0"/>
        <pt x="612" y="904" on="1"/>
        <pt x="612" y="883" on="0"/>
        <pt x="580" y="852" on="0"/>
        <pt x="557" y="852" on="1"/>
        <pt x="536" y="852" on="0"/>
        <pt x="505" y="883" on="0"/>
      </contour>
    </TTGlyph>
    <TTGlyph name="Ntilde" xMin="-9" yMin="0" xMax="908" yMax="960">
      <contour>
        <pt x="580" y="0" on="1"/>
        <pt x="318" y="602" on="1"/>
        <pt x="314" y="602" on="1"/>
        <pt x="200" y="168" on="1"/>
        <pt x="194" y="144" on="0"/>
        <pt x="194" y="125" on="1"/>
        <pt x="194" y="83" on="0"/>
        <pt x="244" y="41" on="0"/>
        <pt x="289" y="40" on="1"/>
        <pt x="277" y="0" on="1"/>
        <pt x="-9" y="0" on="1"/>
        <pt x="2" y="40" on="1"/>
        <pt x="49" y="40" on="0"/>
        <pt x="123" y="107" on="0"/>
        <pt x="137" y="158" on="1"/>
        <pt x="255" y="602" on="1"/>
        <pt x="259" y="617" on="0"/>
        <pt x="259" y="633" on="1"/>
        <pt x="259" y="681" on="0"/>
        <pt x="178" y="729" on="0"/>
        <pt x="112" y="730" on="1"/>
        <pt x="124" y="770" on="1"/>
        <pt x="359" y="770" on="1"/>
        <pt x="609" y="197" on="1"/>
        <pt x="613" y="197" on="1"/>
        <pt x="719" y="602" on="1"/>
        <pt x="724" y="624" on="0"/>
        <pt x="724" y="639" on="1"/>
        <pt x="724" y="682" on="0"/>
        <pt x="675" y="729" on="0"/>
        <pt x="640" y="730" on="1"/>
        <pt x="652" y="770" on="1"/>
        <pt x="908" y="770" on="1"/>
        <pt x="897" y="730" on="1"/>
        <pt x="878" y="730" on="0"/>
        <pt x="842" y="712" on="0"/>
        <pt x="812" y="681" on="0"/>
        <pt x="789" y="637" on="0"/>
        <pt x="782" y="612" on="1"/>
        <pt x="620" y="0" on="1"/>
      </contour>
      <contour>
        <pt x="386" y="846" on="1"/>
        <pt x="394" y="897" on="0"/>
        <pt x="453" y="960" on="0"/>
        <pt x="491" y="960" on="1"/>
        <pt x="513" y="960" on="0"/>
        <pt x="555" y="946" on="0"/>
        <pt x="595" y="928" on="0"/>
        <pt x="632" y="914" on="0"/>
        <pt x="650" y="914" on="1"/>
        <pt x="667" y="914" on="0"/>
        <pt x="687" y="933" on="0"/>
        <pt x="694" y="956" on="1"/>
        <pt x="727" y="956" on="1"/>
        <pt x="724" y="933" on="0"/>
        <pt x="708" y="891" on="0"/>
        <pt x="682" y="858" on="0"/>
        <pt x="648" y="838" on="0"/>
        <pt x="628" y="838" on="1"/>
        <pt x="606" y="838" on="0"/>
        <pt x="561" y="853" on="0"/>
        <pt x="518" y="871" on="0"/>
        <pt x="478" y="886" on="0"/>
        <pt x="462" y="886" on="1"/>
        <pt x="445" y="886" on="0"/>
        <pt x="427" y="868" on="0"/>
        <pt x="420" y="846" on="1"/>
      </contour>
    </TTGlyph>
    <TTGlyph name="O" xMin="74" yMin="-10" xMax="784" yMax="780">
      <contour>
        <pt x="505" y="780" on="1"/>
        <pt x="569" y="780" on="0"/>
        <pt x="672" y="736" on="0"/>
        <pt x="745" y="655" on="0"/>
        <pt x="784" y="540" on="0"/>
        <pt x="784" y="469" on="1"/>
        <pt x="784" y="373" on="0"/>
        <pt x="715" y="199" on="0"/>
        <pt x="597" y="67" on="0"/>
        <pt x="442" y="-10" on="0"/>
        <pt x="356" y="-10" on="1"/>
        <pt x="292" y="-10" on="0"/>
        <pt x="188" y="35" on="0"/>
        <pt x="114" y="117" on="0"/>
        <pt x="74" y="232" on="0"/>
        <pt x="74" y="303" on="1"/>
        <pt x="74" y="399" on="0"/>
        <pt x="144" y="572" on="0"/>
        <pt x="262" y="703" on="0"/>
        <pt x="419" y="780" on="0"/>
      </contour>
      <contour>
        <pt x="505" y="728" on="1"/>
        <pt x="440" y="728" on="0"/>
        <pt x="327" y="662" on="0"/>
        <pt x="243" y="546" on="0"/>
        <pt x="195" y="390" on="0"/>
        <pt x="195" y="300" on="1"/>
        <pt x="195" y="172" on="0"/>
        <pt x="284" y="44" on="0"/>
        <pt x="370" y="44" on="1"/>
        <pt x="433" y="44" on="0"/>
        <pt x="540" y="112" on="0"/>
        <pt x="619" y="232" on="0"/>
        <pt x="663" y="398" on="0"/>
        <pt x="663" y="496" on="1"/>
        <pt x="663" y="616" on="0"/>
        <pt x="586" y="728" on="0"/>
      </contour>
    </TTGlyph>
    <TTGlyph name="OE" xMin="68" yMin="0" xMax="1124" yMax="770">
      <contour>
        <pt x="1124" y="770" on="1"/>
        <pt x="1124" y="568" on="1"/>
        <pt x="1086" y="568" on="1"/>
        <pt x="1072" y="617" on="0"/>
        <pt x="1041" y="680" on="0"/>
        <pt x="995" y="714" on="0"/>
        <pt x="930" y="727" on="0"/>
        <pt x="884" y="727" on="1"/>
        <pt x="803" y="727" on="1"/>
        <pt x="784" y="727" on="0"/>
        <pt x="784" y="710" on="1"/>
        <pt x="716" y="427" on="1"/>
        <pt x="762" y="427" on="0"/>
        <pt x="824" y="435" on="0"/>
        <pt x="867" y="459" on="0"/>
        <pt x="897" y="504" on="0"/>
        <pt x="911" y="542" on="1"/>
        <pt x="949" y="542" on="1"/>
        <pt x="889" y="247" on="1"/>
        <pt x="849" y="247" on="1"/>
        <pt x="850" y="263" on="0"/>
        <pt x="851" y="290" on="0"/>
        <pt x="851" y="302" on="1"/>
        <pt x="851" y="328" on="0"/>
        <pt x="840" y="361" on="0"/>
        <pt x="809" y="379" on="0"/>
        <pt x="752" y="387" on="0"/>
        <pt x="707" y="387" on="1"/>
        <pt x="652" y="157" on="1"/>
        <pt x="649" y="144" on="0"/>
        <pt x="647" y="122" on="0"/>
        <pt x="647" y="113" on="1"/>
        <pt x="648" y="73" on="0"/>
        <pt x="716" y="43" on="0"/>
        <pt x="793" y="43" on="1"/>
        <pt x="846" y="43" on="0"/>
        <pt x="923" y="62" on="0"/>
        <pt x="982" y="103" on="0"/>
        <pt x="1026" y="167" on="0"/>
        <pt x="1046" y="211" on="1"/>
        <pt x="1093" y="211" on="1"/>
        <pt x="1015" y="0" on="1"/>
        <pt x="401" y="0" on="1"/>
        <pt x="325" y="0" on="0"/>
        <pt x="202" y="45" on="0"/>
        <pt x="115" y="125" on="0"/>
        <pt x="68" y="234" on="0"/>
        <pt x="68" y="299" on="1"/>
        <pt x="68" y="363" on="0"/>
        <pt x="109" y="483" on="0"/>
        <pt x="181" y="587" on="0"/>
        <pt x="280" y="674" on="0"/>
        <pt x="395" y="736" on="0"/>
        <pt x="521" y="770" on="0"/>
        <pt x="585" y="770" on="1"/>
      </contour>
      <contour>
        <pt x="575" y="730" on="1"/>
        <pt x="509" y="730" on="0"/>
        <pt x="391" y="681" on="0"/>
        <pt x="296" y="589" on="0"/>
        <pt x="226" y="458" on="0"/>
        <pt x="207" y="376" on="1"/>
        <pt x="192" y="313" on="0"/>
        <pt x="192" y="263" on="1"/>
        <pt x="192" y="159" on="0"/>
        <pt x="309" y="42" on="0"/>
        <pt x="415" y="42" on="1"/>
        <pt x="450" y="42" on="0"/>
        <pt x="494" y="50" on="0"/>
        <pt x="521" y="74" on="0"/>
        <pt x="538" y="117" on="0"/>
        <pt x="546" y="152" on="1"/>
        <pt x="657" y="618" on="1"/>
        <pt x="660" y="635" on="0"/>
        <pt x="665" y="663" on="0"/>
        <pt x="665" y="674" on="1"/>
        <pt x="665" y="708" on="0"/>
        <pt x="623" y="730" on="0"/>
      </contour>
    </TTGlyph>
    <TTGlyph name="Oacute" xMin="74" yMin="-10" xMax="784" yMax="960">
      <contour>
        <pt x="505" y="780" on="1"/>
        <pt x="569" y="780" on="0"/>
        <pt x="672" y="736" on="0"/>
        <pt x="745" y="655" on="0"/>
        <pt x="784" y="540" on="0"/>
        <pt x="784" y="469" on="1"/>
        <pt x="784" y="373" on="0"/>
        <pt x="715" y="199" on="0"/>
        <pt x="597" y="67" on="0"/>
        <pt x="442" y="-10" on="0"/>
        <pt x="356" y="-10" on="1"/>
        <pt x="292" y="-10" on="0"/>
        <pt x="188" y="35" on="0"/>
        <pt x="114" y="117" on="0"/>
        <pt x="74" y="232" on="0"/>
        <pt x="74" y="303" on="1"/>
        <pt x="74" y="399" on="0"/>
        <pt x="144" y="572" on="0"/>
        <pt x="262" y="703" on="0"/>
        <pt x="419" y="780" on="0"/>
      </contour>
      <contour>
        <pt x="505" y="728" on="1"/>
        <pt x="440" y="728" on="0"/>
        <pt x="327" y="662" on="0"/>
        <pt x="243" y="546" on="0"/>
        <pt x="195" y="390" on="0"/>
        <pt x="195" y="300" on="1"/>
        <pt x="195" y="172" on="0"/>
        <pt x="284" y="44" on="0"/>
        <pt x="370" y="44" on="1"/>
        <pt x="433" y="44" on="0"/>
        <pt x="540" y="112" on="0"/>
        <pt x="619" y="232" on="0"/>
        <pt x="663" y="398" on="0"/>
        <pt x="663" y="496" on="1"/>
        <pt x="663" y="616" on="0"/>
        <pt x="586" y="728" on="0"/>
      </contour>
      <contour>
        <pt x="419" y="850" on="1"/>
        <pt x="569" y="927" on="1"/>
        <pt x="601" y="944" on="0"/>
        <pt x="645" y="960" on="0"/>
        <pt x="665" y="960" on="1"/>
        <pt x="695" y="960" on="0"/>
        <pt x="695" y="935" on="1"/>
        <pt x="695" y="915" on="0"/>
        <pt x="649" y="887" on="0"/>
        <pt x="606" y="878" on="1"/>
        <pt x="479" y="850" on="1"/>
      </contour>
    </TTGlyph>
    <TTGlyph name="Obreve" xMin="74" yMin="-10" xMax="784" yMax="960">
      <contour>
        <pt x="505" y="780" on="1"/>
        <pt x="569" y="780" on="0"/>
        <pt x="672" y="736" on="0"/>
        <pt x="745" y="655" on="0"/>
        <pt x="784" y="540" on="0"/>
        <pt x="784" y="469" on="1"/>
        <pt x="784" y="373" on="0"/>
        <pt x="715" y="199" on="0"/>
        <pt x="597" y="67" on="0"/>
        <pt x="442" y="-10" on="0"/>
        <pt x="356" y="-10" on="1"/>
        <pt x="292" y="-10" on="0"/>
        <pt x="188" y="35" on="0"/>
        <pt x="114" y="117" on="0"/>
        <pt x="74" y="232" on="0"/>
        <pt x="74" y="303" on="1"/>
        <pt x="74" y="399" on="0"/>
        <pt x="144" y="572" on="0"/>
        <pt x="262" y="703" on="0"/>
        <pt x="419" y="780" on="0"/>
      </contour>
      <contour>
        <pt x="505" y="728" on="1"/>
        <pt x="440" y="728" on="0"/>
        <pt x="327" y="662" on="0"/>
        <pt x="243" y="546" on="0"/>
        <pt x="195" y="390" on="0"/>
        <pt x="195" y="300" on="1"/>
        <pt x="195" y="172" on="0"/>
        <pt x="284" y="44" on="0"/>
        <pt x="370" y="44" on="1"/>
        <pt x="433" y="44" on="0"/>
        <pt x="540" y="112" on="0"/>
        <pt x="619" y="232" on="0"/>
        <pt x="663" y="398" on="0"/>
        <pt x="663" y="496" on="1"/>
        <pt x="663" y="616" on="0"/>
        <pt x="586" y="728" on="0"/>
      </contour>
      <contour>
        <pt x="724" y="960" on="1"/>
        <pt x="715" y="935" on="0"/>
        <pt x="681" y="893" on="0"/>
        <pt x="636" y="862" on="0"/>
        <pt x="583" y="845" on="0"/>
        <pt x="555" y="845" on="1"/>
        <pt x="504" y="845" on="0"/>
        <pt x="445" y="895" on="0"/>
        <pt x="445" y="935" on="1"/>
        <pt x="445" y="946" on="0"/>
        <pt x="448" y="960" on="1"/>
        <pt x="484" y="960" on="1"/>
        <pt x="486" y="939" on="0"/>
        <pt x="535" y="914" on="0"/>
        <pt x="573" y="914" on="1"/>
        <pt x="611" y="914" on="0"/>
        <pt x="673" y="939" on="0"/>
        <pt x="687" y="960" on="1"/>
      </contour>
    </TTGlyph>
    <TTGlyph name="Ocircumflex" xMin="74" yMin="-10" xMax="784" yMax="960">
      <contour>
        <pt x="505" y="780" on="1"/>
        <pt x="569" y="780" on="0"/>
        <pt x="672" y="736" on="0"/>
        <pt x="745" y="655" on="0"/>
        <pt x="784" y="540" on="0"/>
        <pt x="784" y="469" on="1"/>
        <pt x="784" y="373" on="0"/>
        <pt x="715" y="199" on="0"/>
        <pt x="597" y="67" on="0"/>
        <pt x="442" y="-10" on="0"/>
        <pt x="356" y="-10" on="1"/>
        <pt x="292" y="-10" on="0"/>
        <pt x="188" y="35" on="0"/>
        <pt x="114" y="117" on="0"/>
        <pt x="74" y="232" on="0"/>
        <pt x="74" y="303" on="1"/>
        <pt x="74" y="399" on="0"/>
        <pt x="144" y="572" on="0"/>
        <pt x="262" y="703" on="0"/>
        <pt x="419" y="780" on="0"/>
      </contour>
      <contour>
        <pt x="505" y="728" on="1"/>
        <pt x="440" y="728" on="0"/>
        <pt x="327" y="662" on="0"/>
        <pt x="243" y="546" on="0"/>
        <pt x="195" y="390" on="0"/>
        <pt x="195" y="300" on="1"/>
        <pt x="195" y="172" on="0"/>
        <pt x="284" y="44" on="0"/>
        <pt x="370" y="44" on="1"/>
        <pt x="433" y="44" on="0"/>
        <pt x="540" y="112" on="0"/>
        <pt x="619" y="232" on="0"/>
        <pt x="663" y="398" on="0"/>
        <pt x="663" y="496" on="1"/>
        <pt x="663" y="616" on="0"/>
        <pt x="586" y="728" on="0"/>
      </contour>
      <contour>
        <pt x="619" y="960" on="1"/>
        <pt x="699" y="851" on="1"/>
        <pt x="654" y="851" on="1"/>
        <pt x="549" y="905" on="1"/>
        <pt x="416" y="851" on="1"/>
        <pt x="371" y="851" on="1"/>
        <pt x="509" y="960" on="1"/>
      </contour>
    </TTGlyph>
    <TTGlyph name="Odieresis" xMin="74" yMin="-10" xMax="784" yMax="960">
      <contour>
        <pt x="505" y="780" on="1"/>
        <pt x="569" y="780" on="0"/>
        <pt x="672" y="736" on="0"/>
        <pt x="745" y="655" on="0"/>
        <pt x="784" y="540" on="0"/>
        <pt x="784" y="469" on="1"/>
        <pt x="784" y="373" on="0"/>
        <pt x="715" y="199" on="0"/>
        <pt x="597" y="67" on="0"/>
        <pt x="442" y="-10" on="0"/>
        <pt x="356" y="-10" on="1"/>
        <pt x="292" y="-10" on="0"/>
        <pt x="188" y="35" on="0"/>
        <pt x="114" y="117" on="0"/>
        <pt x="74" y="232" on="0"/>
        <pt x="74" y="303" on="1"/>
        <pt x="74" y="399" on="0"/>
        <pt x="144" y="572" on="0"/>
        <pt x="262" y="703" on="0"/>
        <pt x="419" y="780" on="0"/>
      </contour>
      <contour>
        <pt x="505" y="728" on="1"/>
        <pt x="440" y="728" on="0"/>
        <pt x="327" y="662" on="0"/>
        <pt x="243" y="546" on="0"/>
        <pt x="195" y="390" on="0"/>
        <pt x="195" y="300" on="1"/>
        <pt x="195" y="172" on="0"/>
        <pt x="284" y="44" on="0"/>
        <pt x="370" y="44" on="1"/>
        <pt x="433" y="44" on="0"/>
        <pt x="540" y="112" on="0"/>
        <pt x="619" y="232" on="0"/>
        <pt x="663" y="398" on="0"/>
        <pt x="663" y="496" on="1"/>
        <pt x="663" y="616" on="0"/>
        <pt x="586" y="728" on="0"/>
      </contour>
      <contour>
        <pt x="418" y="910" on="1"/>
        <pt x="423" y="931" on="0"/>
        <pt x="460" y="960" on="0"/>
        <pt x="481" y="960" on="1"/>
        <pt x="499" y="960" on="0"/>
        <pt x="521" y="939" on="0"/>
        <pt x="521" y="923" on="1"/>
        <pt x="521" y="910" on="0"/>
        <pt x="509" y="887" on="0"/>
        <pt x="490" y="869" on="0"/>
        <pt x="466" y="859" on="0"/>
        <pt x="454" y="859" on="1"/>
        <pt x="437" y="859" on="0"/>
        <pt x="416" y="879" on="0"/>
        <pt x="416" y="895" on="1"/>
        <pt x="416" y="905" on="0"/>
      </contour>
      <contour>
        <pt x="600" y="910" on="1"/>
        <pt x="605" y="931" on="0"/>
        <pt x="642" y="960" on="0"/>
        <pt x="664" y="960" on="1"/>
        <pt x="681" y="960" on="0"/>
        <pt x="703" y="939" on="0"/>
        <pt x="703" y="923" on="1"/>
        <pt x="703" y="910" on="0"/>
        <pt x="691" y="887" on="0"/>
        <pt x="672" y="869" on="0"/>
        <pt x="649" y="859" on="0"/>
        <pt x="637" y="859" on="1"/>
        <pt x="619" y="859" on="0"/>
        <pt x="598" y="879" on="0"/>
        <pt x="598" y="895" on="1"/>
        <pt x="598" y="905" on="0"/>
      </contour>
    </TTGlyph>
    <TTGlyph name="Odotbelow" xMin="74" yMin="-230" xMax="784" yMax="780">
      <contour>
        <pt x="505" y="780" on="1"/>
        <pt x="569" y="780" on="0"/>
        <pt x="672" y="736" on="0"/>
        <pt x="745" y="655" on="0"/>
        <pt x="784" y="540" on="0"/>
        <pt x="784" y="469" on="1"/>
        <pt x="784" y="373" on="0"/>
        <pt x="715" y="199" on="0"/>
        <pt x="597" y="67" on="0"/>
        <pt x="442" y="-10" on="0"/>
        <pt x="356" y="-10" on="1"/>
        <pt x="292" y="-10" on="0"/>
        <pt x="188" y="35" on="0"/>
        <pt x="114" y="117" on="0"/>
        <pt x="74" y="232" on="0"/>
        <pt x="74" y="303" on="1"/>
        <pt x="74" y="399" on="0"/>
        <pt x="144" y="572" on="0"/>
        <pt x="262" y="703" on="0"/>
        <pt x="419" y="780" on="0"/>
      </contour>
      <contour>
        <pt x="505" y="728" on="1"/>
        <pt x="440" y="728" on="0"/>
        <pt x="327" y="662" on="0"/>
        <pt x="243" y="546" on="0"/>
        <pt x="195" y="390" on="0"/>
        <pt x="195" y="300" on="1"/>
        <pt x="195" y="172" on="0"/>
        <pt x="284" y="44" on="0"/>
        <pt x="370" y="44" on="1"/>
        <pt x="433" y="44" on="0"/>
        <pt x="540" y="112" on="0"/>
        <pt x="619" y="232" on="0"/>
        <pt x="663" y="398" on="0"/>
        <pt x="663" y="496" on="1"/>
        <pt x="663" y="616" on="0"/>
        <pt x="586" y="728" on="0"/>
      </contour>
      <contour>
        <pt x="262" y="-168" on="1"/>
        <pt x="262" y="-142" on="0"/>
        <pt x="298" y="-106" on="0"/>
        <pt x="324" y="-106" on="1"/>
        <pt x="350" y="-106" on="0"/>
        <pt x="386" y="-142" on="0"/>
        <pt x="386" y="-168" on="1"/>
        <pt x="386" y="-194" on="0"/>
        <pt x="350" y="-230" on="0"/>
        <pt x="324" y="-230" on="1"/>
        <pt x="298" y="-230" on="0"/>
        <pt x="262" y="-194" on="0"/>
      </contour>
    </TTGlyph>
    <TTGlyph name="Ograve" xMin="74" yMin="-10" xMax="784" yMax="960">
      <contour>
        <pt x="505" y="780" on="1"/>
        <pt x="569" y="780" on="0"/>
        <pt x="672" y="736" on="0"/>
        <pt x="745" y="655" on="0"/>
        <pt x="784" y="540" on="0"/>
        <pt x="784" y="469" on="1"/>
        <pt x="784" y="373" on="0"/>
        <pt x="715" y="199" on="0"/>
        <pt x="597" y="67" on="0"/>
        <pt x="442" y="-10" on="0"/>
        <pt x="356" y="-10" on="1"/>
        <pt x="292" y="-10" on="0"/>
        <pt x="188" y="35" on="0"/>
        <pt x="114" y="117" on="0"/>
        <pt x="74" y="232" on="0"/>
        <pt x="74" y="303" on="1"/>
        <pt x="74" y="399" on="0"/>
        <pt x="144" y="572" on="0"/>
        <pt x="262" y="703" on="0"/>
        <pt x="419" y="780" on="0"/>
      </contour>
      <contour>
        <pt x="505" y="728" on="1"/>
        <pt x="440" y="728" on="0"/>
        <pt x="327" y="662" on="0"/>
        <pt x="243" y="546" on="0"/>
        <pt x="195" y="390" on="0"/>
        <pt x="195" y="300" on="1"/>
        <pt x="195" y="172" on="0"/>
        <pt x="284" y="44" on="0"/>
        <pt x="370" y="44" on="1"/>
        <pt x="433" y="44" on="0"/>
        <pt x="540" y="112" on="0"/>
        <pt x="619" y="232" on="0"/>
        <pt x="663" y="398" on="0"/>
        <pt x="663" y="496" on="1"/>
        <pt x="663" y="616" on="0"/>
        <pt x="586" y="728" on="0"/>
      </contour>
      <contour>
        <pt x="565" y="850" on="1"/>
        <pt x="452" y="878" on="1"/>
        <pt x="423" y="885" on="0"/>
        <pt x="389" y="905" on="0"/>
        <pt x="389" y="919" on="1"/>
        <pt x="389" y="938" on="0"/>
        <pt x="420" y="960" on="0"/>
        <pt x="437" y="960" on="1"/>
        <pt x="457" y="960" on="0"/>
        <pt x="492" y="944" on="0"/>
        <pt x="515" y="927" on="1"/>
        <pt x="625" y="850" on="1"/>
      </contour>
    </TTGlyph>
    <TTGlyph name="Ohungarumlaut" xMin="74" yMin="-10" xMax="793" yMax="960">
      <contour>
        <pt x="505" y="780" on="1"/>
        <pt x="569" y="780" on="0"/>
        <pt x="672" y="736" on="0"/>
        <pt x="745" y="655" on="0"/>
        <pt x="784" y="540" on="0"/>
        <pt x="784" y="469" on="1"/>
        <pt x="784" y="373" on="0"/>
        <pt x="715" y="199" on="0"/>
        <pt x="597" y="67" on="0"/>
        <pt x="442" y="-10" on="0"/>
        <pt x="356" y="-10" on="1"/>
        <pt x="292" y="-10" on="0"/>
        <pt x="188" y="35" on="0"/>
        <pt x="114" y="117" on="0"/>
        <pt x="74" y="232" on="0"/>
        <pt x="74" y="303" on="1"/>
        <pt x="74" y="399" on="0"/>
        <pt x="144" y="572" on="0"/>
        <pt x="262" y="703" on="0"/>
        <pt x="419" y="780" on="0"/>
      </contour>
      <contour>
        <pt x="505" y="728" on="1"/>
        <pt x="440" y="728" on="0"/>
        <pt x="327" y="662" on="0"/>
        <pt x="243" y="546" on="0"/>
        <pt x="195" y="390" on="0"/>
        <pt x="195" y="300" on="1"/>
        <pt x="195" y="172" on="0"/>
        <pt x="284" y="44" on="0"/>
        <pt x="370" y="44" on="1"/>
        <pt x="433" y="44" on="0"/>
        <pt x="540" y="112" on="0"/>
        <pt x="619" y="232" on="0"/>
        <pt x="663" y="398" on="0"/>
        <pt x="663" y="496" on="1"/>
        <pt x="663" y="616" on="0"/>
        <pt x="586" y="728" on="0"/>
      </contour>
      <contour>
        <pt x="361" y="850" on="1"/>
        <pt x="481" y="927" on="1"/>
        <pt x="508" y="944" on="0"/>
        <pt x="548" y="960" on="0"/>
        <pt x="568" y="960" on="1"/>
        <pt x="585" y="960" on="0"/>
        <pt x="606" y="942" on="0"/>
        <pt x="606" y="925" on="1"/>
        <pt x="606" y="909" on="0"/>
        <pt x="565" y="886" on="0"/>
        <pt x="531" y="878" on="1"/>
        <pt x="421" y="850" on="1"/>
      </contour>
      <contour>
        <pt x="548" y="850" on="1"/>
        <pt x="668" y="927" on="1"/>
        <pt x="695" y="944" on="0"/>
        <pt x="735" y="960" on="0"/>
        <pt x="755" y="960" on="1"/>
        <pt x="772" y="960" on="0"/>
        <pt x="793" y="942" on="0"/>
        <pt x="793" y="925" on="1"/>
        <pt x="793" y="909" on="0"/>
        <pt x="752" y="886" on="0"/>
        <pt x="718" y="878" on="1"/>
        <pt x="608" y="850" on="1"/>
      </contour>
    </TTGlyph>
    <TTGlyph name="Omacron" xMin="74" yMin="-10" xMax="784" yMax="930">
      <contour>
        <pt x="505" y="780" on="1"/>
        <pt x="569" y="780" on="0"/>
        <pt x="672" y="736" on="0"/>
        <pt x="745" y="655" on="0"/>
        <pt x="784" y="540" on="0"/>
        <pt x="784" y="469" on="1"/>
        <pt x="784" y="373" on="0"/>
        <pt x="715" y="199" on="0"/>
        <pt x="597" y="67" on="0"/>
        <pt x="442" y="-10" on="0"/>
        <pt x="356" y="-10" on="1"/>
        <pt x="292" y="-10" on="0"/>
        <pt x="188" y="35" on="0"/>
        <pt x="114" y="117" on="0"/>
        <pt x="74" y="232" on="0"/>
        <pt x="74" y="303" on="1"/>
        <pt x="74" y="399" on="0"/>
        <pt x="144" y="572" on="0"/>
        <pt x="262" y="703" on="0"/>
        <pt x="419" y="780" on="0"/>
      </contour>
      <contour>
        <pt x="505" y="728" on="1"/>
        <pt x="440" y="728" on="0"/>
        <pt x="327" y="662" on="0"/>
        <pt x="243" y="546" on="0"/>
        <pt x="195" y="390" on="0"/>
        <pt x="195" y="300" on="1"/>
        <pt x="195" y="172" on="0"/>
        <pt x="284" y="44" on="0"/>
        <pt x="370" y="44" on="1"/>
        <pt x="433" y="44" on="0"/>
        <pt x="540" y="112" on="0"/>
        <pt x="619" y="232" on="0"/>
        <pt x="663" y="398" on="0"/>
        <pt x="663" y="496" on="1"/>
        <pt x="663" y="616" on="0"/>
        <pt x="586" y="728" on="0"/>
      </contour>
      <contour>
        <pt x="407" y="880" on="1"/>
        <pt x="420" y="930" on="1"/>
        <pt x="690" y="930" on="1"/>
        <pt x="677" y="880" on="1"/>
      </contour>
    </TTGlyph>
    <TTGlyph name="Oogonek" xMin="74" yMin="-234" xMax="784" yMax="780">
      <contour>
        <pt x="412" y="-152" on="1"/>
        <pt x="381" y="-192" on="0"/>
        <pt x="300" y="-234" on="0"/>
        <pt x="255" y="-234" on="1"/>
        <pt x="209" y="-234" on="0"/>
        <pt x="158" y="-189" on="0"/>
        <pt x="158" y="-149" on="1"/>
        <pt x="158" y="-106" on="0"/>
        <pt x="221" y="-29" on="0"/>
        <pt x="280" y="-1" on="1"/>
        <pt x="232" y="11" on="0"/>
        <pt x="156" y="64" on="0"/>
        <pt x="103" y="142" on="0"/>
        <pt x="74" y="243" on="0"/>
        <pt x="74" y="303" on="1"/>
        <pt x="74" y="399" on="0"/>
        <pt x="144" y="572" on="0"/>
        <pt x="262" y="703" on="0"/>
        <pt x="419" y="780" on="0"/>
        <pt x="505" y="780" on="1"/>
        <pt x="569" y="780" on="0"/>
        <pt x="672" y="736" on="0"/>
        <pt x="745" y="655" on="0"/>
        <pt x="784" y="540" on="0"/>
        <pt x="784" y="469" on="1"/>
        <pt x="784" y="373" on="0"/>
        <pt x="715" y="199" on="0"/>
        <pt x="597" y="67" on="0"/>
        <pt x="442" y="-10" on="0"/>
        <pt x="356" y="-10" on="1"/>
        <pt x="350" y="-10" on="0"/>
        <pt x="338" y="-9" on="0"/>
        <pt x="332" y="-9" on="1"/>
        <pt x="289" y="-35" on="0"/>
        <pt x="237" y="-98" on="0"/>
        <pt x="237" y="-126" on="1"/>
        <pt x="237" y="-146" on="0"/>
        <pt x="267" y="-174" on="0"/>
        <pt x="288" y="-174" on="1"/>
        <pt x="307" y="-174" on="0"/>
        <pt x="357" y="-147" on="0"/>
        <pt x="383" y="-121" on="1"/>
      </contour>
      <contour>
        <pt x="505" y="728" on="1"/>
        <pt x="440" y="728" on="0"/>
        <pt x="327" y="662" on="0"/>
        <pt x="243" y="546" on="0"/>
        <pt x="195" y="390" on="0"/>
        <pt x="195" y="300" on="1"/>
        <pt x="195" y="172" on="0"/>
        <pt x="284" y="44" on="0"/>
        <pt x="370" y="44" on="1"/>
        <pt x="433" y="44" on="0"/>
        <pt x="540" y="112" on="0"/>
        <pt x="619" y="232" on="0"/>
        <pt x="663" y="398" on="0"/>
        <pt x="663" y="496" on="1"/>
        <pt x="663" y="616" on="0"/>
        <pt x="586" y="728" on="0"/>
      </contour>
    </TTGlyph>
</ttFont>
